<?xml version="1.0" encoding="UTF-8"?>
<svg xmlns="http://www.w3.org/2000/svg" version="1.1" viewBox="0 0 80 80">
  <defs>
    <style>
      .cls-1 {
        fill: #fff;
      }
    </style>
  </defs>
  <!-- Generator: Adobe Illustrator 28.7.1, SVG Export Plug-In . SVG Version: 1.2.0 Build 142)  -->
  <g>
    <g id="Layer_1">
      <g>
        <path class="cls-1" d="M74,66.9c-.4.4-.9.5-1.5.5-21.7,0-43.4,0-65.1,0-1.2,0-1.5-.2-1.5-1.5,0-15.9,0-31.8,0-47.7,0-2.9,1.7-4.6,4.6-4.6,19.5,0,38.9,0,58.4,0,2.6,0,4.4,1,5.1,3.5v49.8ZM72.1,65.5V28.1H7.9v37.4h64.2ZM7.9,26.2h64.3c0-2.7,0-5.3,0-7.9,0-2-.8-2.8-2.8-2.8-19.6,0-39.1,0-58.7,0-.2,0-.4,0-.7,0-1.1,0-2.1,1-2.1,2.1,0,2.8,0,5.7,0,8.6Z"/>
        <path class="cls-1" d="M40,43.2c-9.4,0-18.9,0-28.3,0-1.2,0-1.5-.2-1.5-1.5,0-3.3,0-6.6,0-9.9,0-1,.3-1.3,1.3-1.3,19,0,37.9,0,56.9,0,1,0,1.3.3,1.3,1.3,0,3.3,0,6.7,0,10,0,1.1-.3,1.3-1.3,1.3-9.5,0-18.9,0-28.4,0ZM12.1,41.2h55.7v-8.9H12.1v8.9Z"/>
        <path class="cls-1" d="M27.8,45.6c5.4,0,10.8,0,16.1,0,1.1,0,1.3.2,1.3,1.3,0,5,0,9.9,0,14.9,0,1.1-.3,1.4-1.4,1.4-10.7,0-21.5,0-32.2,0-1.1,0-1.4-.3-1.4-1.4,0-4.9,0-9.8,0-14.8,0-1.2.2-1.4,1.4-1.4,5.4,0,10.7,0,16.1,0ZM12.1,61.2h31.2v-13.8H12.1v13.8Z"/>
        <path class="cls-1" d="M58.7,45.6c3.3,0,6.5,0,9.8,0,1,0,1.3.3,1.3,1.3,0,5,0,10,0,15,0,1-.3,1.3-1.3,1.3-6.5,0-13.1,0-19.6,0-1,0-1.3-.3-1.3-1.3,0-5,0-10,0-15,0-1,.3-1.3,1.3-1.3,3.3,0,6.5,0,9.8,0ZM67.8,61.3v-13.8h-18.3v13.8h18.3Z"/>
        <path class="cls-1" d="M48.4,23.8c-6.5,0-13.1,0-19.6,0-1.3,0-1.5-.2-1.5-1.5,0-1,0-2.1,0-3.1,0-1,.3-1.3,1.3-1.3,12.9,0,25.8,0,38.6,0,.5,0,1,0,1.5,0,.7,0,1,.3,1.1,1,0,1.3,0,2.6,0,3.9,0,.6-.3.9-.9,1-.2,0-.4,0-.7,0-6.6,0-13.1,0-19.7,0ZM67.9,19.8H29.1v2.1h38.7v-2.1Z"/>
        <path class="cls-1" d="M13.3,23.8c-.6,0-1.3,0-1.9,0-.8,0-1.1-.3-1.1-1.1,0-1.2,0-2.4,0-3.7,0-.8.3-1.1,1.1-1.1,1.3,0,2.6,0,3.8,0,.8,0,1.1.3,1.1,1.1,0,1.2,0,2.4,0,3.7,0,.8-.3,1.1-1.1,1.1-.6,0-1.3,0-1.9,0ZM12.2,19.8v2.1h2.3v-2.1h-2.3Z"/>
        <path class="cls-1" d="M21.9,17.9c.6,0,1.3,0,1.9,0,.7,0,1,.4,1.1,1.1,0,1.3,0,2.5,0,3.8,0,.7-.3,1.1-1.1,1.1-1.3,0-2.7,0-4,0-.7,0-1-.4-1.1-1.1,0-1.3,0-2.5,0-3.8,0-.7.4-1,1.1-1.1.7,0,1.4,0,2.1,0ZM23,21.9v-2.1h-2.3v2.1h2.3Z"/>
      </g>
    </g>
  </g>
</svg>