<?xml version="1.0" encoding="UTF-8"?>
<svg xmlns="http://www.w3.org/2000/svg" version="1.1" viewBox="0 0 80 80">
  <defs>
    <style>
      .cls-1 {
        fill: #fff;
      }
    </style>
  </defs>
  <!-- Generator: Adobe Illustrator 28.7.1, SVG Export Plug-In . SVG Version: 1.2.0 Build 142)  -->
  <g>
    <g id="Layer_1">
      <g>
        <path class="cls-1" d="M77.6,42.3c-.1.5-.2,1.1-.4,1.6-1.5,6-6.6,10-12.8,10-1.4,0-2.7,0-4.1,0-.3,0-.5,0-.9,0,0,1,0,1.9,0,2.8,0,1.8-.8,2.6-2.6,2.6-.2,0-.4,0-.6,0v1.5c.3,0,.7,0,1,0,1.2,0,2.1.9,2.2,2.1,0,2.3,0,4.5,0,6.8,0,1.2-.9,2-2,2.1-.2,0-.5,0-.7,0-11.1,0-22.1,0-33.2,0-2,0-2.8-.8-2.8-2.8,0-1.8,0-3.7,0-5.5,0-2,.7-2.7,2.7-2.7.2,0,.3,0,.5,0v-1.4c-.3,0-.6,0-.9,0-1.4,0-2.3-.9-2.3-2.3,0-1,0-2,0-2.9,0,0,0,0,0-.3-.3,0-.6,0-.9,0-2.1,0-4.2,0-6.2-.2-6-.9-10.4-5.8-10.9-11.9-.5-5.9,3.2-11.4,8.8-13.3.6-.2.8-.5,1-1.1,1.5-6.9,7.5-11.7,14.5-11.6,1.5,0,2.9.4,4.4.7.5.1.7,0,1-.4,4-5.7,9.6-8.5,16.5-8.3,9.2.3,17,7.5,18,16.7.1,1.1.1,2.2.2,3.3,2.1.5,4.1,1.3,5.8,2.8,2.6,2.2,4.2,5,4.7,8.3,0,.1,0,.3.1.4v2.8ZM44.8,36c.8,0,1.4,0,2.1,0,.2,0,.4-.1.6-.3,1.5-1.4,3.1-2.8,4.6-4.2.2-.2.3-.5.3-.7,0-1.7,0-3.3,0-5,0-.2-.2-.6-.4-.7-1.2-.8-1.7-2.1-1.3-3.4.4-1.2,1.6-2.1,2.8-2.1,1.3,0,2.5.9,2.8,2.2.4,1.3-.2,2.6-1.4,3.3-.3.2-.5.4-.5.8,0,1.8,0,3.6,0,5.4,0,.6-.2,1.1-.7,1.5-1,.9-2.1,1.9-3.1,2.8-.1.1-.2.3-.4.5.4,0,.6,0,.9,0,2,0,4,0,5.9,0,1.4,0,2.3.9,2.3,2.3,0,2.2,0,4.3,0,6.5,0,1.4-.9,2.2-2.3,2.3-.3,0-.6,0-1,0v1.5c.4,0,.8,0,1.2,0,1.1,0,2,.9,2,2,0,.3,0,.6,0,.9,0,.4.2.6.6.5,1.8,0,3.5,0,5.3,0,5.6-.3,10.1-4.9,10.3-10.5.2-5.8-3.9-10.7-9.5-11.4-1-.1-1.2-.5-1.2-1.5,0-1.4,0-2.8-.1-4.2-1-7-6.5-12.7-13.5-14-7-1.3-14.1,1.8-17.7,7.9-.7,1.1-.9,1.2-2.1.7-7.5-3.1-16,1.7-17.2,9.8-.1.9-.5,1.3-1.4,1.6-4.9,1.3-8.2,5.7-8.2,10.7,0,5,3.5,9.4,8.3,10.6,2.5.6,5.1.3,7.6.3,0,0,0,0,.1,0,0-.9.2-1.9.7-2.6.5-.9,1.7-.7,2.6-.8v-1.4c-.2,0-.4,0-.6,0-1.8,0-2.6-.8-2.6-2.7,0-1.9,0-3.9,0-5.8,0-1.8.8-2.6,2.5-2.6,1.9,0,3.8,0,5.7,0,.3,0,.5,0,1,0-1.2-1.1-2.2-2.1-3.2-3-.8-.7-1.1-1.4-1-2.4,0-1.6,0-3.2,0-4.8,0-.4-.1-.6-.5-.8-1.2-.7-1.7-2.1-1.4-3.3.3-1.2,1.5-2.2,2.8-2.2,1.3,0,2.5.9,2.8,2.1.4,1.3-.1,2.6-1.3,3.4-.2.1-.4.5-.4.7,0,1.6,0,3.3,0,4.9,0,.3.2.7.4.9,1.3,1.2,2.7,2.4,3.9,3.7,1,1.1,2.1.8,3.3.8v-7.9c-.7,0-1.3-.2-1.8.6-.9,1.5-3,1.6-4.2.5-1.3-1.2-1.4-3.1-.1-4.4,1.2-1.2,3.3-1.1,4.3.3.5.8,1.1.9,1.9.8.2,0,.4,0,.7,0,1.2,0,1.5.3,1.5,1.5,0,2.6,0,5.2,0,7.8,0,.3,0,.5,0,.8h1.6c0-.1,0-.2,0-.3,0-4,0-8,0-12,0-.2-.3-.6-.5-.7-1.1-.7-1.6-2.1-1.3-3.3.4-1.3,1.5-2.1,2.8-2.1,1.3,0,2.5.8,2.9,2.1.4,1.3,0,2.7-1.2,3.3-.5.3-.5.6-.5,1.1,0,3.7,0,7.5,0,11.2v.8h1.6v-.8c0-2.5,0-5.1,0-7.6,0-1.3.3-1.6,1.5-1.6.4,0,.7,0,1.1,0,.5,0,.9,0,1.2-.6.7-1.1,2-1.6,3.3-1.2,1.2.4,2.1,1.5,2.1,2.8,0,1.2-.8,2.4-2,2.8-1.2.4-2.7,0-3.3-1.1-.5-.8-1.1-.7-1.8-.6v8ZM22.7,69.9h34.6v-6.8H22.7v6.8ZM57.3,50.6H22.7v6.8h34.6v-6.8ZM22.7,38.1v6.8h34.6v-6.8H22.7ZM25.9,48.4h28.1v-1.3h-28.1v1.3ZM54.1,59.6h-28.1c0,.3,0,.5,0,.7,0,.2,0,.5,0,.7h28.1v-1.4ZM39.1,20.4c0,.5.4.9.9.9.5,0,.9-.3.8-.9,0-.5-.3-.9-.9-.8-.6,0-.8.4-.9.9ZM31.1,26c-.6,0-.9.4-.9.9,0,.5.4.9.9.8.5,0,.8-.4.8-.9,0-.5-.3-.8-.9-.9ZM26.6,23.3c.5,0,.9-.4.8-.9,0-.5-.4-.9-.9-.9-.5,0-.9.3-.8.9,0,.5.3.8.9.9ZM54.3,22.4c0-.6-.3-.9-.9-.9-.5,0-.9.3-.9.9,0,.5.3.9.9.9.6,0,.8-.3.9-.8ZM48,26.9c0,.5.3.8.9.8.5,0,.9-.4.9-.9,0-.5-.3-.9-.9-.9-.6,0-.8.3-.9.9Z"/>
        <path class="cls-1" d="M30.8,67.5c-1.9,0-3.7,0-5.6,0-.8,0-1.3-.4-1.3-1,0-.6.5-1.1,1.3-1.1,3.7,0,7.4,0,11.1,0,.8,0,1.3.4,1.3,1,0,.6-.4,1-1.2,1-1.9,0-3.7,0-5.6,0Z"/>
        <path class="cls-1" d="M54.6,67.5c-.6,0-1.2,0-1.3-.9,0-.3.2-.9.4-1,.6-.1,1.3-.1,1.9,0,.2,0,.4.6.4,1,0,.6-.5.9-1.5.9Z"/>
        <path class="cls-1" d="M46.4,67.7c-.5-.2-1-.3-1.2-.6-.4-.4-.3-.9.1-1.3.4-.4,1.7-.4,2.2,0,.4.4.5.9.1,1.3-.3.3-.8.4-1.2.6Z"/>
        <path class="cls-1" d="M50.5,67.5c-.9,0-1.4-.4-1.4-1.1,0-.7.5-1,1.5-1,.8,0,1.3.4,1.4,1,0,.7-.5,1.1-1.5,1.1Z"/>
        <path class="cls-1" d="M42.3,67.7c-.5-.3-1-.4-1.3-.7-.3-.4-.2-.9.2-1.3.4-.4,1.8-.4,2.2,0,.4.4.5.9.2,1.2-.3.3-.8.5-1.3.7Z"/>
        <path class="cls-1" d="M30.7,55c-1.8,0-3.7,0-5.5,0-.8,0-1.3-.4-1.3-1,0-.6.5-1,1.3-1,3.7,0,7.4,0,11.1,0,.9,0,1.5.6,1.2,1.4-.2.5-.6.7-1.2.7-1.9,0-3.8,0-5.6,0Z"/>
        <path class="cls-1" d="M50.5,55.2c-.4-.2-.9-.3-1.2-.5-.4-.4-.4-.9,0-1.4.4-.5,1.8-.5,2.2,0,.4.4.5,1,0,1.4-.3.3-.7.4-1.2.5Z"/>
        <path class="cls-1" d="M54.6,55c-.6,0-1.2-.1-1.3-.9,0-.3.2-.9.4-1,.6-.1,1.3-.1,2,0,.2,0,.4.6.4,1,0,.6-.5.9-1.5.9Z"/>
        <path class="cls-1" d="M42.3,55.2c-.5-.2-.9-.3-1.2-.6-.4-.4-.3-.9.1-1.3.4-.4,1.8-.4,2.2,0,.4.4.5.9.1,1.3-.3.3-.8.4-1.2.6Z"/>
        <path class="cls-1" d="M46.4,55c-.3,0-.6,0-.8-.1-.5-.2-.7-.6-.6-1.1.1-.7.7-.9,1.3-.9.9,0,1.4.2,1.5.8,0,.5-.1.9-.6,1.1-.2,0-.5,0-.8.1Z"/>
        <path class="cls-1" d="M30.7,42.5c-1.9,0-3.7,0-5.6,0-.8,0-1.3-.4-1.3-1,0-.6.5-1,1.3-1,3.7,0,7.5,0,11.2,0,.8,0,1.2.4,1.2,1.1,0,.6-.5,1-1.2,1-1.9,0-3.8,0-5.6,0Z"/>
        <path class="cls-1" d="M50.4,42.6c-.4-.2-.8-.3-1.1-.6-.4-.4-.3-1.1.2-1.4.4-.3,1.7-.4,2.1,0,.2.3.4.7.3,1,0,.3-.5.6-.8.7-.2,0-.4,0-.6,0v.2Z"/>
        <path class="cls-1" d="M42.1,42.7c-.4-.2-1-.4-1.2-.7-.2-.3,0-.9.2-1.2.3-.4,1.6-.4,2,0,.4.3.5.7.3,1.2-.2.5-.5.6-1.5.8Z"/>
        <path class="cls-1" d="M54.6,42.5c-.6,0-1.2-.1-1.3-.9,0-.3.2-.9.4-1,.6-.1,1.3-.1,1.9,0,.2,0,.4.6.4,1,0,.6-.5.9-1.5.9Z"/>
        <path class="cls-1" d="M46.4,42.5c-.6,0-1.2,0-1.3-.6,0-.4,0-.9.3-1.2.3-.4,1.7-.4,2,0,.2.3.4.8.3,1.2-.2.6-.8.7-1.3.6Z"/>
      </g>
    </g>
  </g>
</svg>