<?xml version="1.0" encoding="UTF-8"?>
<svg xmlns="http://www.w3.org/2000/svg" version="1.1" viewBox="0 0 80 80">
  <defs>
    <style>
      .cls-1 {
        fill: #fff;
      }
    </style>
  </defs>
  <!-- Generator: Adobe Illustrator 28.7.1, SVG Export Plug-In . SVG Version: 1.2.0 Build 142)  -->
  <g>
    <g id="Layer_1">
      <g>
        <g>
          <path class="cls-1" d="M49.1,72.5c-1.8,0-3.2-.9-4.2-2.5-1.4-2.4-2.8-4.9-4.2-7.3-1-1.8-2-3.5-3-5.2-.5-.9-.8-1.9-.7-2.9,0-1,.5-2,1.2-2.9.1-.1.2-.5.1-.6-.4-.8-.9-1.6-1.4-2.4-.1-.2-.3-.5-.4-.7-3.1,1.6-6.4,2.4-9.8,2.4-4,0-7.9-1.1-11.4-3.3-3.4-2.1-6-5.1-7.7-8.5-2.3-4.8-2.8-10.2-1.4-15.3,1.4-5.1,4.7-9.4,9.2-12.2,3.4-2.1,7.3-3.2,11.2-3.2,6.7,0,12.8,3,16.8,8.4,3.7,5,5.1,10.6,4,16.7-1.1,5.9-4.2,10.7-9.5,14.2.1.2.3.5.4.7.5.8.9,1.6,1.4,2.4,0,.1.3.2.5.2s0,0,0,0c.5-.1,1-.2,1.4-.2,1.8,0,3.3.9,4.3,2.6l1.2,2.1c2,3.4,4,6.9,6,10.4.9,1.5.9,3.3.1,4.8-.8,1.5-2.2,2.4-4,2.5-.1,0-.3,0-.4,0ZM42.1,51.8c-1.3,0-2.4.6-3,1.6-.5.9-.5,2,0,2.9,2.5,4.4,5,8.8,7.4,12.9.5.9,1.5,1.5,2.6,1.5h0c.5,0,1.1-.1,1.5-.4,1.5-.8,2-2.7,1.2-4.1-2.6-4.5-5.2-9.1-7.5-13-.5-.9-1.4-1.4-2.3-1.4ZM26.6,9.4c-10.6,0-19.2,8.7-19.3,19.3,0,10.9,8.4,19.6,19.4,19.7h.2c10.5,0,19.2-8.6,19.3-19.2.1-11-8.4-19.7-19.4-19.8,0,0-.1,0-.2,0Z"/>
          <path class="cls-1" d="M26.7,7.7c6.4,0,12.7,2.9,16.8,8.3,3.7,4.9,5.1,10.5,4,16.6-1.1,6.1-4.4,10.7-9.5,14.2.6,1.1,1.2,2.2,1.9,3.2,0,.1.4.3.6.3s0,0,0,0c.5-.1,1-.2,1.4-.2,1.8,0,3.2.8,4.2,2.6,2.4,4.1,4.8,8.3,7.2,12.5,1.8,3.2-.2,6.9-3.8,7.2-.1,0-.2,0-.4,0-1.8,0-3.2-.9-4.1-2.5-2.4-4.2-4.8-8.4-7.2-12.5-.5-.9-.7-1.8-.7-2.9,0-1.1.5-2,1.2-2.8.1-.2.2-.6.1-.7-.6-1.1-1.2-2.1-1.8-3.2-3.3,1.7-6.6,2.4-9.8,2.4-8.2,0-15.6-4.8-19-11.7-4.8-9.9-1.5-21.7,7.8-27.4,3.5-2.2,7.4-3.2,11.2-3.2M26.8,48.5c10.5,0,19.3-8.7,19.4-19.3.1-11-8.5-19.8-19.5-19.9,0,0-.1,0-.2,0-10.6,0-19.3,8.7-19.4,19.4,0,10.9,8.6,19.7,19.5,19.8,0,0,.1,0,.2,0M49.1,70.8c.5,0,1.1-.1,1.6-.4,1.5-.8,2.1-2.7,1.2-4.2-2.5-4.3-5-8.7-7.5-13-.6-1-1.5-1.5-2.4-1.5-2.7,0-4.2,2.5-3,4.6,2.4,4.3,4.9,8.6,7.4,12.9.6,1,1.6,1.5,2.7,1.5M26.7,7.5c-4,0-7.9,1.1-11.3,3.2-4.5,2.8-7.8,7.1-9.2,12.3-1.4,5.1-.9,10.6,1.4,15.4,1.7,3.5,4.4,6.4,7.8,8.5,3.5,2.2,7.4,3.3,11.4,3.3s6.6-.8,9.7-2.3c.1.2.3.4.4.7.5.8.9,1.6,1.4,2.4,0,0,0,.4-.1.5-.8.9-1.2,1.9-1.3,3,0,1,.1,2.1.7,3,1,1.7,2,3.5,3,5.2,1.4,2.4,2.8,4.9,4.2,7.3,1,1.7,2.5,2.6,4.3,2.6s.3,0,.4,0c1.8-.1,3.3-1,4.1-2.5.8-1.5.8-3.3-.1-4.9-2-3.5-4-7-6-10.4-.4-.7-.8-1.4-1.2-2.1-1-1.8-2.5-2.7-4.4-2.7s-.9,0-1.4.2c0,0,0,0,0,0-.2,0-.3,0-.4-.2-.5-.8-.9-1.6-1.4-2.4-.1-.2-.2-.4-.4-.7,5.2-3.5,8.4-8.3,9.4-14.2,1.1-6.1-.2-11.8-4-16.8-2-2.7-4.6-4.8-7.6-6.3-2.9-1.4-6.1-2.1-9.3-2.1h0ZM26.8,48.3c0,0-.1,0-.2,0-10.9,0-19.4-8.7-19.3-19.6,0-10.6,8.7-19.2,19.2-19.2s.1,0,.2,0c10.9.1,19.4,8.8,19.3,19.7-.1,10.5-8.7,19.1-19.2,19.1h0ZM49.1,70.6c-1,0-2-.5-2.5-1.4-2.4-4.1-4.9-8.5-7.4-12.9-.5-.9-.5-1.9,0-2.8.6-1,1.6-1.5,2.9-1.5.9,0,1.7.5,2.2,1.4,2.3,3.9,4.9,8.4,7.5,13,.8,1.4.3,3.1-1.2,3.9-.5.3-1,.4-1.5.4h0Z"/>
        </g>
        <g>
          <path class="cls-1" d="M63.3,50.1c-1.8,0-3.2-1.1-4-3.2h-3.6c-1.8,0-3.5,0-5.3,0s-4.5,0-6.4,0c-.3,0-.9-.2-1-.5-.1-.3,0-.9.3-1.1,8.8-9.3,8.9-23.2.1-32.4-.3-.3-.8-.8-.4-1.4.2-.3.8-.5,1.2-.5,3,0,5.9,0,8.4,0h6.7c.9-2.1,2.3-3.3,4-3.3s.6,0,1,.1c1.9.4,3.2,2.1,3.2,4.1,0,1.9-1.5,3.6-3.3,4-.3,0-.5,0-.8,0-.9,0-3.1-.3-4.1-3.2h-13.6c3.7,4.5,5.7,9.5,5.9,15.3,0,0,.1,0,.2,0,.2,0,.3,0,.5,0h5.7c2.4,0,5,0,7.6,0h0c.5,0,.7-.1.8-.6.6-1.6,2.1-2.7,3.9-2.7s.5,0,.8,0c1.9.4,3.4,2.1,3.4,4.1,0,2-1.4,3.7-3.5,4.1-.2,0-.5,0-.7,0-1.7,0-3.3-1.1-3.9-2.8h0c-.1-.4-.2-.5-.6-.5-3.5,0-7,0-10.4,0h-3.6s0,0-.1,0c0,0,0,0,0,0-.3,5.7-2.3,10.8-5.8,15.2h13.5c.9-2.1,2.3-3.2,4-3.2s.7,0,1,.1c1.9.4,3.2,2.2,3.2,4.2,0,2-1.5,3.7-3.4,4-.3,0-.5,0-.8,0ZM63.3,43.6c-1.3,0-2.3,1-2.3,2.4,0,1.3,1,2.4,2.3,2.4h0c.6,0,1.2-.3,1.7-.7.4-.5.7-1.1.7-1.7,0-1.3-1.1-2.4-2.4-2.4h0c0-.1,0,0,0,0ZM70.3,26.5c-1.3,0-2.3,1.1-2.4,2.4,0,.6.2,1.2.7,1.7.4.4,1,.7,1.7.7,1.3,0,2.4-1,2.4-2.3,0-1.3-1-2.4-2.3-2.4h0ZM63.4,9.3c-1.3,0-2.3,1-2.3,2.3,0,1.4,1,2.4,2.3,2.4h0c1.3,0,2.3-1,2.4-2.3,0-.6-.2-1.2-.7-1.7-.4-.5-1-.7-1.7-.7h0Z"/>
          <path class="cls-1" d="M63.3,7.6c.3,0,.6,0,1,.1,1.8.4,3.2,2.1,3.1,4,0,1.9-1.4,3.6-3.2,3.9-.3,0-.5,0-.8,0-1.5,0-3.2-.8-4-3.2h-13.9c3.8,4.5,5.8,9.7,6.1,15.5.3,0,.5,0,.8,0,.6,0,1.1,0,1.7,0,1.4,0,2.7,0,4.1,0,2.5,0,5.1,0,7.6,0,0,0,0,0,0,0,.5,0,.7-.1.9-.6.6-1.6,2.1-2.7,3.8-2.7s.5,0,.8,0c1.9.4,3.3,2.1,3.3,4,0,2-1.4,3.6-3.4,4-.2,0-.5,0-.7,0-1.6,0-3.2-1.1-3.8-2.7-.1-.4-.2-.6-.7-.6,0,0,0,0,0,0-4.7,0-9.3,0-14,0,0,0-.1,0-.3,0-.3,5.7-2.2,10.8-5.9,15.4h13.7c.9-2.1,2.2-3.2,3.9-3.2.3,0,.6,0,1,.1,1.8.4,3.2,2.1,3.1,4.1,0,1.9-1.5,3.6-3.3,3.9-.3,0-.5,0-.8,0-1.8,0-3.2-1.1-4-3.2-.2,0-.4,0-.6,0s-.2,0-.3,0c-2.7,0-5.3,0-8,0s-4.3,0-6.4,0c-.3,0-.8-.2-.9-.4-.1-.3,0-.8.3-1,8.8-9.3,8.9-23.3.1-32.6-.3-.4-.7-.8-.4-1.2.2-.3.7-.5,1.1-.5,2.8,0,5.6,0,8.4,0s3.9,0,5.9,0h.9c.9-2.2,2.2-3.3,4-3.3M63.4,14.2c1.3,0,2.4-1.1,2.5-2.4,0-1.3-1.1-2.5-2.4-2.5,0,0,0,0,0,0-1.4,0-2.4,1.1-2.4,2.4,0,1.4,1,2.5,2.4,2.5,0,0,0,0,0,0M70.3,31.3c1.4,0,2.5-1.1,2.5-2.4,0-1.4-1.1-2.5-2.4-2.5,0,0,0,0,0,0-1.3,0-2.4,1.1-2.5,2.5,0,1.4,1.1,2.5,2.4,2.5,0,0,0,0,0,0M63.4,48.4s0,0,0,0c1.4,0,2.5-1.1,2.5-2.5,0-1.4-1.1-2.5-2.5-2.5s0,0,0,0c-1.4,0-2.4,1.1-2.4,2.5,0,1.4,1.1,2.5,2.4,2.5M63.3,7.4c-1.8,0-3.2,1.1-4.1,3.3h-.7c-1,0-2,0-2.9,0-1,0-2,0-2.9,0-2.5,0-5.5,0-8.4,0-.4,0-1,.2-1.3.6-.4.6,0,1.2.4,1.5,8.7,9.2,8.7,23.1-.1,32.3-.3.3-.4.9-.3,1.3.1.3.7.6,1.1.6,1.9,0,4,0,6.4,0s3.5,0,5.3,0h2.8s.3,0,.3,0h.3s.2,0,.2,0c.8,2.1,2.2,3.2,4.1,3.2s.5,0,.8,0c2-.3,3.5-2.1,3.5-4.1,0-2-1.4-3.8-3.3-4.3-.3,0-.7-.1-1-.1-1.8,0-3.2,1.1-4.1,3.2h-13.2c3.5-4.3,5.4-9.4,5.7-15,0,0,0,0,.1,0,1.2,0,2.4,0,3.6,0,3.4,0,6.9,0,10.4,0,.3,0,.4.1.5.4h0c.6,1.7,2.2,2.9,4,2.9s.5,0,.7,0c2.1-.4,3.6-2.1,3.6-4.2,0-2-1.5-3.8-3.5-4.2-.3,0-.5,0-.8,0-1.8,0-3.4,1.1-4,2.8-.1.4-.3.5-.7.5h0c-2.6,0-5.2,0-7.6,0h-2s-2,0-2,0h-1.7c-.2,0-.3,0-.5,0,0,0,0,0,0,0-.3-5.7-2.2-10.7-5.8-15.1h13.3c1,2.9,3.2,3.2,4.2,3.2s.6,0,.8,0c1.9-.3,3.4-2.1,3.4-4.1,0-2-1.4-3.8-3.3-4.2-.3,0-.7-.1-1-.1h0ZM63.4,14h0c-1.3,0-2.2-1-2.2-2.3,0-1.3,1-2.2,2.2-2.2h0c.6,0,1.2.3,1.6.7.4.4.6,1,.6,1.6,0,1.2-1,2.2-2.3,2.2h0ZM70.3,31.1h0c-.6,0-1.2-.2-1.6-.7-.4-.4-.7-1-.6-1.6,0-1.3,1-2.3,2.3-2.3h0c1.2,0,2.2,1,2.2,2.3,0,1.3-1,2.2-2.3,2.2h0ZM63.4,48.2c-1.2,0-2.2-1-2.2-2.3,0-1.3.9-2.3,2.2-2.3h0c1.2,0,2.3,1,2.3,2.3,0,.6-.2,1.2-.7,1.6-.4.4-1,.7-1.6.7h0Z"/>
        </g>
        <g>
          <path class="cls-1" d="M26.7,47.2c-5.1,0-9.9-2.2-13.3-5.9-3.5-3.8-5.2-8.6-4.8-13.8.3-4.3,2.1-8.3,5.2-11.4,3.1-3.1,7.1-5,11.3-5.3.6,0,1.1,0,1.7,0,6.5,0,11.7,2.9,15.4,8.6,0,0,0,0,0,.1,0,.1.2.2.2.3,0,0,0,.1,0,.2,0,.3,0,.7-.3.9-.1.1-.3.2-.5.2-.3,0-.5-.2-.7-.5-.1-.2-.3-.4-.4-.6-.3-.4-.5-.8-.8-1.2-3.5-4.3-7.7-6.4-12.6-6.4s-2.8.2-4.3.5c-6.2,1.4-11.1,6.8-12.1,13.3-.8,4.8.6,9.7,3.7,13.3,3.1,3.6,7.6,5.7,12.5,5.7s.4,0,.7,0c2.4,0,4.7-.7,6.9-1.9,0,0,.1,0,.2-.1.1,0,.2-.1.3-.2.2,0,.4-.1.6-.1.3,0,.6.2.7.5.2.5,0,.9-.5,1.2-1.9,1-3.6,1.7-5.3,2-.8.1-1.7.2-2.5.3-.4,0-.7,0-1.1.1h0s0,0,0,0Z"/>
          <path class="cls-1" d="M26.8,10.8c6.5,0,11.6,2.9,15.3,8.6,0,.1.2.3.2.4,0,.4,0,.8-.3,1-.1.1-.3.2-.4.2-.2,0-.5-.2-.7-.4-.4-.6-.8-1.2-1.2-1.8-3.5-4.3-7.8-6.4-12.7-6.4-1.4,0-2.8.2-4.3.5-6.4,1.5-11.2,6.9-12.2,13.3-1.6,10.2,6.1,19.2,16.3,19.2s.4,0,.7,0c2.4,0,4.8-.7,6.9-1.9.2,0,.3-.2.5-.3.2,0,.4-.1.5-.1.3,0,.5.1.6.4.2.5,0,.9-.4,1.1-1.7.9-3.4,1.6-5.3,2-1.2.2-2.4.3-3.6.4-10.6-.1-18.8-9-18-19.6.6-8.7,7.7-16,16.4-16.6.6,0,1.1,0,1.7,0M26.8,10.6c-.5,0-1.1,0-1.7,0-4.3.3-8.3,2.2-11.4,5.3-3.1,3.1-4.9,7.2-5.2,11.5-.4,5.2,1.3,10.1,4.8,13.8,3.5,3.8,8.2,5.9,13.4,5.9h0s0,0,0,0c.4,0,.7,0,1.1-.1.8,0,1.6-.2,2.5-.3,1.7-.3,3.5-1,5.4-2,.6-.3.8-.8.5-1.4-.2-.4-.6-.5-.8-.5-.2,0-.4,0-.6.2-.1,0-.2.1-.3.2,0,0-.1,0-.2.1-2.2,1.1-4.5,1.8-6.9,1.9-.2,0-.4,0-.6,0-4.8,0-9.3-2.1-12.4-5.7-3.1-3.6-4.5-8.5-3.7-13.3,1-6.5,5.9-11.7,12.1-13.2,1.5-.3,2.9-.5,4.3-.5,4.9,0,9.1,2.1,12.6,6.4.3.4.6.8.8,1.2.1.2.3.4.4.6.2.3.5.5.8.5s.4,0,.6-.2c.2-.2.3-.6.3-1,0,0,0-.1,0-.2,0-.2,0-.3-.2-.4,0,0,0,0,0,0-3.8-5.8-9-8.7-15.5-8.7h0Z"/>
        </g>
        <g>
          <path class="cls-1" d="M26.4,34.6c-.7,0-1.4,0-2,0-.6,0-.9-.4-.9-1,0-2.8,0-6.2,0-9.5,0-.6.4-1,1-1,1.3,0,2.6,0,3.9,0,.8,0,1.5,0,2.3,0,.4,0,.7,0,.9.3.1.2.2.4.2.6,0,.9-.9.9-1.1.9h0c-.7,0-1.4,0-2,0h-3.3v3h2.1c.4,0,.8,0,1.1.3.1.2.2.4.2.6,0,.8-.6.9-1.2.9h0c-.3,0-.6,0-.9,0s-1.1,0-1.3,0v3.1h2c1.2,0,2.4,0,3.6,0,.6,0,.9.3.9.9,0,.3,0,.5-.2.6-.2.2-.4.3-.7.3-1.5,0-3,0-4.5,0Z"/>
          <path class="cls-1" d="M24.5,23.2h0c2.1,0,4.1,0,6.2,0,.6,0,1,.2,1,.8,0,.6-.5.8-1,.8s0,0,0,0c-.7,0-1.4,0-2,0s-1.8,0-2.7,0c-.2,0-.5,0-.8,0v3.2c.5,0,.9,0,1.4,0s.6,0,.9,0c0,0,0,0,0,0,.6,0,1.2,0,1.1.8,0,.7-.5.8-1.1.8s0,0,0,0c-.3,0-.6,0-.9,0-.5,0-.9,0-1.4,0v3.3c.2,0,.4,0,.5,0s.2,0,.3,0c1.6,0,3.2,0,4.9,0,.5,0,.8.3.8.8,0,.5-.3.8-.8.8-1.5,0-3,0-4.5,0s-1.4,0-2,0c-.5,0-.8-.4-.8-.9,0-3.2,0-6.3,0-9.5,0-.6.4-.9.9-.9M24.5,23h0c-.7,0-1.1.4-1.1,1.1,0,3.3,0,6.6,0,9.5,0,.7.4,1.1,1,1.1.7,0,1.4,0,2,0,1.5,0,3.1,0,4.5,0,.3,0,.6-.1.8-.3.2-.2.3-.4.3-.7,0-.6-.4-.9-1-.9-1.2,0-2.4,0-3.6,0h-1.3s-.3,0-.3,0h-.2s0,0,0,0v-2.9c.2,0,.3,0,.5,0,.2,0,.5,0,.7,0,.4,0,.6,0,.9,0,0,0,0,0,0,0,.3,0,1.2,0,1.3-1,0-.3,0-.5-.2-.7-.3-.3-.7-.3-1.1-.3h0c-.3,0-.6,0-.9,0h-.7s-.5,0-.5,0v-2.8h.6c.4,0,.9,0,1.3,0,.4,0,.9,0,1.3,0,.8,0,1.4,0,2,0h0c.8,0,1.2-.3,1.2-1,0-.3,0-.5-.2-.7-.2-.2-.5-.3-1-.3-.8,0-1.6,0-2.3,0-1.3,0-2.6,0-3.9,0h0Z"/>
        </g>
        <g>
          <path class="cls-1" d="M37.6,34.6c-1.3,0-2.6-.6-3.5-1.7-1.8-2.1-1.9-5.5-.2-7.8.9-1.3,2.3-2,3.7-2s2.8.7,3.7,2c.8,1.1,1.2,2.3,1.2,3.7,0,1.5-.4,2.8-1.3,3.9-.9,1.2-2.2,1.8-3.6,1.8ZM37.6,25c-.8,0-1.5.4-2.1,1-1.4,1.6-1.3,4.3,0,5.8.6.7,1.3,1,2.1,1s1.5-.4,2.1-1c.7-.7,1-1.7,1.1-2.9,0-1.2-.4-2.2-1.1-3-.6-.6-1.3-1-2.1-1Z"/>
          <path class="cls-1" d="M37.6,23.3c1.4,0,2.7.7,3.7,2,.8,1.1,1.2,2.3,1.1,3.6,0,1.4-.4,2.7-1.3,3.8-.9,1.2-2.2,1.8-3.5,1.8s-2.5-.5-3.4-1.6c-1.8-2.1-1.9-5.4-.2-7.6,1-1.3,2.3-1.9,3.6-1.9M37.6,32.9c.8,0,1.6-.3,2.2-1,.7-.8,1-1.9,1.1-3,0-1.1-.3-2.2-1.1-3-.6-.7-1.4-1-2.2-1s-1.6.4-2.2,1.1c-1.4,1.6-1.4,4.3,0,5.9.6.7,1.4,1.1,2.2,1.1M37.6,23.1h0c-1.5,0-2.9.7-3.8,2-1.7,2.3-1.6,5.7.2,7.9.9,1.1,2.2,1.7,3.6,1.7s2.7-.7,3.7-1.9c.9-1.1,1.3-2.5,1.3-3.9,0-1.4-.4-2.7-1.2-3.8-.9-1.3-2.3-2-3.8-2h0ZM37.6,32.7c-.8,0-1.5-.4-2-1-1.3-1.5-1.3-4.2,0-5.7.6-.6,1.3-1,2.1-1s1.5.3,2,1c.7.7,1,1.7,1,2.9,0,1.2-.4,2.1-1,2.8-.6.6-1.3,1-2,1h0Z"/>
        </g>
        <g>
          <path class="cls-1" d="M17.7,34.8c-1.1-.2-2.3-.4-3.1-1.3-.5-.5-.7-1.3-.9-1.9,0,0,0-.2,0-.3.1-.2.4-.5.7-.6,0,0,0,0,0,0,.3,0,.8.4.8.7.2.8.7,1.3,1.7,1.5.3,0,.5,0,.7,0,.7,0,1.4-.3,1.9-.8.2-.2.3-.5.3-.7,0-.2-.2-.5-.5-.7-.4-.3-.9-.5-1.4-.7-.2,0-.3-.1-.5-.2-.3-.1-.6-.2-.9-.4-.6-.2-1.1-.5-1.7-.8-.8-.5-1.3-1.2-1.4-2.1,0-.9.3-1.7,1.1-2.4.8-.6,1.8-1,3-1s2.1.3,2.9.9c.8.6,1.2,1.3,1.1,2.1,0,.4-.4.8-.7.9,0,0-.2,0-.3,0-.4,0-.6-.3-.8-.8-.2-.9-.8-1.4-1.8-1.5-.2,0-.4,0-.5,0-.9,0-1.6.3-2,.9-.1.2-.2.4-.2.6,0,.2.2.4.4.5.5.3,1,.5,1.5.8.3.2.7.3,1,.4.6.3,1.3.5,1.9.9.9.6,1.5,1.4,1.5,2.4,0,1-.5,1.8-1.5,2.4-.5.3-1.1.5-1.7.7-.3,0-.5.2-.8.2h0s0,0,0,0Z"/>
          <path class="cls-1" d="M17.7,23.3c1,0,2,.3,2.8.9.6.5,1.1,1.2,1.1,2,0,.3-.3.7-.6.9,0,0-.2,0-.2,0-.3,0-.6-.3-.7-.7-.2-1-.8-1.4-1.9-1.6-.2,0-.4,0-.5,0-.8,0-1.6.2-2.1,1-.3.5-.2.9.2,1.2.5.3,1,.5,1.5.8,1,.4,2,.7,2.9,1.3,1.9,1.1,1.9,3.5,0,4.6-.7.4-1.6.6-2.5.9-1.2-.2-2.3-.4-3.1-1.3-.4-.5-.7-1.2-.9-1.9,0-.2.4-.7.7-.8,0,0,0,0,0,0,.2,0,.7.3.7.6.2,1,.9,1.4,1.8,1.6.3,0,.5,0,.8,0,.7,0,1.4-.2,1.9-.8.5-.5.4-1.1-.2-1.5-.6-.4-1.3-.6-1.9-.9-.8-.4-1.7-.7-2.5-1.1-1.7-1-1.8-3-.3-4.3.8-.6,1.8-1,2.9-1M17.7,23.1c-1.2,0-2.3.4-3,1-.8.7-1.2,1.5-1.1,2.4,0,.9.6,1.7,1.4,2.2.5.3,1.1.6,1.7.8.3.1.6.2.9.4.2,0,.3.1.5.2.5.2,1,.4,1.4.7.3.2.4.4.4.6,0,.2,0,.4-.3.6-.5.5-1.1.7-1.8.7s-.5,0-.7,0c-1-.2-1.5-.6-1.6-1.4,0-.3-.6-.7-.9-.7s0,0,0,0c-.3,0-.6.4-.7.6,0,.1-.1.3,0,.4.2.7.4,1.4.9,2,.8.9,2,1.2,3.2,1.4h0s0,0,0,0c.3,0,.5-.2.8-.2.6-.2,1.2-.4,1.7-.7,1-.6,1.5-1.5,1.5-2.5,0-1-.6-1.9-1.5-2.5-.6-.4-1.3-.6-1.9-.9-.3-.1-.7-.3-1-.4-.5-.2-1-.5-1.5-.8-.2-.1-.3-.3-.3-.4,0-.2,0-.3.2-.5.4-.6,1.1-.9,1.9-.9s.3,0,.5,0c1,.1,1.5.5,1.8,1.4.1.5.4.8.9.8s.2,0,.3,0c.4-.1.7-.6.7-1,0-.8-.3-1.5-1.1-2.2-.8-.6-1.8-.9-2.9-.9h0Z"/>
        </g>
      </g>
    </g>
  </g>
</svg>