<?xml version="1.0" encoding="UTF-8"?>
<svg xmlns="http://www.w3.org/2000/svg" version="1.1" viewBox="0 0 80 80">
  <defs>
    <style>
      .cls-1 {
        fill: #fff;
      }
    </style>
  </defs>
  <!-- Generator: Adobe Illustrator 28.7.1, SVG Export Plug-In . SVG Version: 1.2.0 Build 142)  -->
  <g>
    <g id="Layer_1">
      <g>
        <path class="cls-1" d="M67.5,39.2h-10.5c-.1,1.4-.2,2.8-.5,4.1-.4,2.2-1,4.3-1.5,6.5-.2.8-.8,1.1-1.4.9-.6-.2-.9-.8-.6-1.6,1-3,1.6-6.1,1.7-9.3,0-.2,0-.4,0-.6h-15.7c0,.2,0,.5,0,.7,0,3,0,6,0,9.1,0,.2,0,.5,0,.7-.1.6-.6,1-1.1.9-.6,0-1-.4-1-1,0-.6,0-1.3,0-1.9,0-2.8,0-5.6,0-8.4h-15.8c.2,1.6.3,3.2.6,4.7.6,3.4,1.6,6.7,3.2,9.8.2.5.4.5.9.4,2.2-.4,4.5-.8,6.7-1.2.7-.1,1.3.3,1.4.9,0,.7-.3,1.1-1.1,1.3-2,.3-4.1.7-6.1,1-.1,0-.2,0-.4.1,0,.2.2.4.2.5,1.7,2.7,3.8,5.2,6.2,7.3.2.2.5.4.7.6.5.5.5,1.1.1,1.5-.4.5-1,.5-1.6,0-.9-.8-1.7-1.5-2.5-2.4-2-2-3.7-4.2-5.1-6.6-.2-.4-.4-.5-.9-.4-1.9.8-3.8,1.6-5.8,2.3,0,0,0,.2,0,.3.8.7,1.7,1.4,2.5,2.1,3.7,2.8,7.8,4.6,12.3,5.4,1,.2,1.4,1,.9,1.7-.3.5-.8.5-1.3.4-9.6-2-17-7.2-21.9-15.8-2.9-5-4.3-10.5-4-16.2.6-12.3,6.2-21.7,17.1-27.5,12.4-6.5,26.8-4.3,36.9,5.5,5.5,5.4,8.6,12,9.3,19.7.5,4.9-.2,9.6-1.9,14.2-.3.7-.7,1.1-1.3,1-.7-.1-1-.8-.8-1.6.5-2,1.1-3.9,1.6-5.9.3-1.1.3-2.3.4-3.6ZM36.8,23.5c-.3,0-.5,0-.8,0-3.5,0-7-.6-10.4-1.4-.5-.1-.7,0-.9.4-1.7,3.3-2.8,6.9-3.3,10.6-.2,1.3-.3,2.6-.4,4h15.8v-13.5ZM39.1,23.5v13.5h15.7c-.2-5.2-1.4-10.1-3.8-14.7-.2-.3-.3-.4-.7-.3-2.7.5-5.5.9-8.2,1.3-1,.1-2,.1-3,.2ZM18.9,39.3h-10.5c.4,7.2,2.9,13.4,7.6,18.7,2.4-1,4.6-2,6.9-3.1-2.4-4.9-3.8-10.1-4-15.6ZM18.9,37c.2-5.5,1.5-10.8,4-15.6-2.3-1-4.6-2-6.9-3.1-4.7,5.3-7.2,11.5-7.5,18.7h10.5ZM59.9,18.3c-2.4,1-4.6,2-6.7,3,.9,2.6,1.9,5.1,2.6,7.7.7,2.6.9,5.3,1.4,8h10.3c-.4-7.2-2.9-13.4-7.5-18.6ZM36.8,9c-4.4,2.9-7.9,6.5-10.6,11,3.6.9,7.1,1.3,10.6,1.4v-12.4ZM39.1,9v12.3c2.6,0,8.4-.7,10.6-1.4-2.7-4.4-6.2-8-10.6-10.9ZM51.9,19.4c2.1-.9,4.2-1.8,6.3-2.7-2.9-3.5-12.2-8.1-15.3-7.7,3.6,2.9,6.6,6.3,9,10.4ZM23.9,19.4c2.4-4.1,5.4-7.5,8.9-10.4-5.8,1-10.9,3.5-15.4,7.7,2.2.9,4.3,1.8,6.4,2.7Z"/>
        <path class="cls-1" d="M54.2,63.7c6,0,12,0,18,0,1.4,0,1.6.3,1.6,1.6,0,2.3,0,4.7,0,7,0,1.1-.4,1.5-1.5,1.5-12.1,0-24.2,0-36.3,0-1.2,0-1.5-.4-1.5-1.5,0-2.3,0-4.6,0-6.9,0-1.4.3-1.7,1.6-1.7,6,0,12,0,18,0ZM71.6,65.9h-34.8v5.6h34.8v-5.6Z"/>
        <path class="cls-1" d="M54.2,61.4c-5.7,0-11.5,0-17.2,0-1.8,0-2.4-.7-2.4-2.5,0-1.8,0-3.6,0-5.4,0-1.4.7-2.2,2.2-2.2,11.6,0,23.3,0,34.9,0,1.4,0,2.1.7,2.2,2.1,0,2,0,3.9,0,5.9,0,1.4-.7,2.1-2.1,2.1-5.8,0-11.7,0-17.5,0ZM36.8,59.2h34.8v-5.6h-34.8v5.6Z"/>
        <path class="cls-1" d="M46.2,67.6c2.3,0,4.6,0,6.9,0,.4,0,.8,0,1.1.3.2.2.4.7.3,1,0,.3-.4.6-.7.8-.2.1-.5,0-.8,0-4.5,0-9,0-13.4,0-.2,0-.3,0-.5,0-.7,0-1.1-.5-1.1-1.1,0-.6.5-1.1,1.2-1.1,2.4,0,4.8,0,7.1,0h0Z"/>
        <path class="cls-1" d="M66.6,67.6c.9,0,1.7,0,2.6,0,.8,0,1.2.4,1.2,1,0,.7-.4,1.1-1.2,1.1-1.7,0-3.4,0-5.2,0-.8,0-1.3-.4-1.2-1.1,0-.7.4-1,1.2-1.1.9,0,1.7,0,2.6,0Z"/>
        <path class="cls-1" d="M58.7,70.5c-1,0-1.8-.8-1.8-1.8,0-1,.8-1.9,1.8-1.9,1,0,1.9.9,1.8,1.9,0,1-.8,1.8-1.8,1.8Z"/>
        <path class="cls-1" d="M46.3,55.3c2.3,0,4.7,0,7,0,1,0,1.6.8,1.1,1.6-.2.3-.7.6-1,.6-4.8,0-9.5,0-14.3,0-.7,0-1.2-.5-1.2-1.1,0-.6.5-1.1,1.2-1.1,2.4,0,4.8,0,7.1,0Z"/>
        <path class="cls-1" d="M66.7,55.3c.8,0,1.7,0,2.5,0,.8,0,1.3.4,1.3,1.1,0,.7-.4,1.1-1.2,1.1-1.7,0-3.4,0-5.1,0-.8,0-1.3-.4-1.2-1.1,0-.7.5-1.1,1.3-1.1.9,0,1.7,0,2.6,0Z"/>
        <path class="cls-1" d="M60.5,56.4c0,1-.8,1.8-1.8,1.8-1,0-1.9-.8-1.9-1.8,0-1,.8-1.8,1.9-1.8,1,0,1.8.8,1.8,1.8Z"/>
      </g>
    </g>
  </g>
</svg>