<?xml version="1.0" encoding="UTF-8"?>
<svg xmlns="http://www.w3.org/2000/svg" version="1.1" viewBox="0 0 80 80">
  <defs>
    <style>
      .cls-1 {
        fill: #fff;
      }
    </style>
  </defs>
  <!-- Generator: Adobe Illustrator 28.7.1, SVG Export Plug-In . SVG Version: 1.2.0 Build 142)  -->
  <g>
    <g id="Layer_1">
      <path class="cls-1" d="M13.1,64.2c.1,1.8,1,2.9,2.4,3.3h48.9c1.8-.5,2.6-1.7,2.6-4,0-.2,0-.4,0-.5,0-7.6,0-15.1,0-22.7,0-3.5-1.2-4.7-4.7-4.7-.8,0-1-.2-1-1,0-2.9,0-5.8,0-8.7,0-1.9-1.2-3.1-3.1-3.1-.9,0-1.9,0-2.8,0-1.9,0-3,1.2-3,3.1,0,2.8,0,5.5,0,8.3,0,1.6.2,1.4-1.4,1.5-.7,0-1.1-.1-1.5-.8-.5-.9-1.4-1.2-2.3-1.3-1,0-2.1,0-3.1,0-1,0-1.9.4-2.4,1.4-.3.5-.7.7-1.2.7-1.9,0-1.6.1-1.6-1.6,0-1.5-.9-2.6-2.4-2.8-.8-.2-1.6,0-2.4,0-3.1,0-3.9.7-4.1,3.8,0,.5-.2.7-.6.7-.6,0-1.1,0-1.7,0s-.7,0-.9-.4c-.2-.4,0-.6.3-.9,1.8-1.9,3.5-3.8,5.3-5.6.3-.3.5-.4.9-.3,1.7.5,3.2.1,4.3-1.3.3-.3.5-.4.9-.3.9.2,1.8.4,2.6.6.4,0,.7.3.8.8.6,2.2,2.7,3.4,4.8,2.8,2.1-.6,3.3-2.8,2.6-4.9-.1-.5,0-.8.3-1.1,1.6-1.5,3.2-3,4.7-4.5.5-.4.8-.6,1.5-.4,1.4.4,2.7.2,3.8-.9,1.1-1.1,1.4-2.4,1.1-3.8-.6-2.1-2.7-3.3-4.7-2.7-2.1.5-3.3,2.7-2.7,4.8.1.4.2.7-.2,1.1-1.7,1.6-3.3,3.2-5,4.8-.3.3-.5.3-.9.2-1.8-.7-3.3-.2-4.6,1.3-.3.3-.5.4-.9.3-.8-.2-1.7-.4-2.6-.6-.5,0-.8-.3-.9-.9-.6-2.2-2.8-3.4-5-2.7-2.1.7-3.2,2.9-2.4,5,.2.5.1.8-.2,1.1-1.7,1.8-3.4,3.6-5.1,5.4-.4.4-.7.6-1.3.4-1.6-.5-3.1,0-4,1.3-.8,1.3-1.7,1.4-2.9,1.3-.3,0-.5,0-.8,0-1.6.1-2.9,1-3.4,2.5-.2.6-.2,1.3-.2,1.9,0,3.9,0,7.8,0,11.7,0,2.1,0,4.3,0,6.4,0,2.1,0,4.1,0,6.2ZM56.9,14.8c.9,0,1.6.7,1.6,1.6,0,.9-.7,1.6-1.6,1.6-.9,0-1.6-.6-1.6-1.6,0-1,.6-1.6,1.6-1.6ZM45.6,25.6c1,0,1.6.6,1.6,1.5,0,.9-.7,1.7-1.6,1.6-.8,0-1.5-.7-1.5-1.6,0-1,.6-1.6,1.6-1.6ZM34.4,23.1c.9,0,1.6.7,1.6,1.6,0,.9-.7,1.6-1.6,1.6-.9,0-1.6-.7-1.6-1.6,0-.9.7-1.6,1.6-1.6ZM54.7,26.3c0-1.1,0-1.2,1.2-1.2.8,0,1.5,0,2.3,0,.6,0,.9.3.9.8,0,.2,0,.4,0,.6,0,9.8,0,19.7,0,29.5,0,.2,0,.5,0,.7,0,.5-.3.9-.9.8-.8,0-1.6,0-2.5,0-.9,0-1-.2-1-1.1,0-3.9,0-7.7,0-11.6,0-1.2,0-2.5,0-3.7,0-5,0-10,0-15ZM44.4,35.8c.8,0,1.6,0,2.4,0,.9,0,1.1.2,1.1,1.1,0,3.3,0,6.5,0,9.8,0,3.2,0,6.5,0,9.7,0,1.1-.1,1.2-1.2,1.2-.8,0-1.5,0-2.3,0-.6,0-.9-.3-.9-.9,0-6.7,0-13.3,0-20,0-.7.3-.9.9-.9ZM32.2,45.4c0-3.6,0-7.2,0-10.9,0-1,.1-1.1,1.2-1.2.7,0,1.4,0,2.2,0,.9,0,1.1.1,1.1,1.1,0,2.9,0,5.8,0,8.6,0,4.4,0,8.8,0,13.3,0,1.1-.1,1.2-1.2,1.2-.7,0-1.4,0-2.2,0-.9,0-1-.2-1-1,0-3.7,0-7.4,0-11.1ZM23.2,35.1c.9,0,1.6.6,1.6,1.6,0,1-.7,1.6-1.6,1.6-.9,0-1.6-.7-1.6-1.6,0-.9.7-1.6,1.6-1.6ZM15.3,39.7c0-1.5.3-1.8,1.8-1.8.3,0,.6,0,.8,0,.9-.1,1.5.2,2,1,1.6,2.4,5.1,2.2,6.5-.3.3-.6.7-.7,1.3-.7,2.1,0,2.1,0,2.1,2.2,0,5.5,0,11,0,16.5,0,2.2,1.1,3.3,3.3,3.3.8,0,1.7,0,2.5,0,1.9,0,3.1-1.2,3.1-3.1,0-5.9,0-11.9,0-17.8,0-.3-.2-.9.3-1,.6-.1,1.3-.2,1.9,0,.3.1.2.6.2.9,0,6,0,12,0,18,0,1.8,1.2,2.9,2.9,3,0,0,.1,0,.2,0,.9,0,1.7,0,2.6,0,2,0,3.2-1.2,3.2-3.2,0-5.9,0-11.8,0-17.7,0-.3-.2-.9.3-1,.6-.1,1.3-.2,1.9,0,.3.1.2.6.2.9,0,6,0,11.9,0,17.9,0,1.2.4,2.3,1.5,2.7,1.9.7,4,.7,5.9,0,1.2-.5,1.5-1.6,1.5-2.8,0-5.8,0-11.6,0-17.4q0-1.3,1.3-1.3c.3,0,.6,0,.9,0,.7,0,1.1.5,1.1,1.1,0,.2,0,.5,0,.7,0,7.9,0,15.9,0,23.8,0,1.6-.3,1.9-1.9,1.9-7.6,0-15.2,0-22.8,0-7.6,0-15.2,0-22.8,0-1.5,0-1.8-.4-1.8-1.8,0-8,0-16,0-24Z"/>
    </g>
  </g>
</svg>