<?xml version="1.0" encoding="UTF-8"?>
<svg xmlns="http://www.w3.org/2000/svg" version="1.1" viewBox="0 0 80 80">
  <defs>
    <style>
      .cls-1 {
        fill: #fff;
      }
    </style>
  </defs>
  <!-- Generator: Adobe Illustrator 28.7.1, SVG Export Plug-In . SVG Version: 1.2.0 Build 142)  -->
  <g>
    <g id="Layer_1">
      <g>
        <path class="cls-1" d="M19.6,57.2c-4-2.7-4-7.6-1.5-10.4,2.6-2.9,7.1-2.9,9.8-.2,2.6,2.7,2.8,7.7-1.3,10.5,0,.2.2.2.3.2,1.7.7,3.2,1.9,4.3,3.4.2.2.3.5.6,0,1.2-1.6,2.7-2.8,4.5-3.6,0,0,0,0,.1-.1-4.3-2.9-3.8-8-1.3-10.5,2.7-2.7,7-2.7,9.6,0,2.5,2.4,3.1,7.6-1.3,10.6,1.2.5,2.3,1.1,3.3,2,.5.5,1,1,1.4,1.6.2.2.3.4.5,0,1.2-1.7,2.7-2.9,4.8-3.7-2.1-1.5-3.3-3.4-3.3-6,0-2,.9-3.7,2.4-5.1,2.8-2.4,7.1-2,9.5.8,2.3,2.7,2.3,7.4-1.6,10.1,0,.2.1.2.2.2,3.7,1.7,5.8,4.5,6.2,8.6,0,.4,0,.9,0,1.3,0,.6-.3.9-.9.9-.2,0-.3,0-.5,0-17.1,0-34.2,0-51.2,0-1.2,0-1.4-.2-1.4-1.4.2-4.4,2.2-7.6,6.2-9.4,0,0,.2,0,.3-.2ZM40,66.7h7.2q1.4,0,1.2-1.4c-.7-4.7-5.3-7.9-9.9-7-3.9.8-6.6,3.7-7,7.7,0,.5.1.7.6.7,2.6,0,5.2,0,7.8,0ZM22.2,66.7c2.3,0,4.7,0,7,0,.6,0,.8-.2.8-.7,0-.9.2-1.7.5-2.6.1-.4,0-.7-.1-1-1.7-3.1-5.5-4.8-8.9-4.1-3.9.8-6.6,3.8-7,7.8,0,.5.1.6.6.6,2.4,0,4.7,0,7.1,0ZM57.7,66.7h6.1q1.8,0,1.4-1.8c-1-4.5-5.1-7.3-9.6-6.6-2.6.4-4.6,1.8-6,4.1-.2.3-.3.5-.2.9.3.9.5,1.9.6,2.8,0,.5.3.6.7.6,2.3,0,4.6,0,6.9,0ZM23.1,46.2c-2.9,0-5.2,2.3-5.2,5.2,0,2.8,2.3,5.2,5.2,5.2,2.8,0,5.2-2.4,5.2-5.2,0-2.9-2.3-5.2-5.2-5.2ZM34.8,51.4c0,2.9,2.4,5.3,5.2,5.3,2.8,0,5.2-2.4,5.2-5.2,0-2.9-2.3-5.2-5.1-5.3-2.9,0-5.3,2.3-5.3,5.2ZM56.9,46.2c-2.9,0-5.2,2.3-5.2,5.2,0,2.8,2.2,5.2,5.2,5.2,2.9,0,5.2-2.4,5.2-5.2,0-2.8-2.4-5.2-5.2-5.2Z"/>
        <path class="cls-1" d="M40,11.8c7.3,0,14.5,0,21.8,0,1.9,0,3,1.1,3,3,0,5.8,0,11.6,0,17.3,0,1.9-1.1,3-3,3-10.1,0-20.2,0-30.3,0-.6,0-1,.2-1.4.6-1.3,1.5-2.6,3-3.9,4.5-.3.3-.6.6-1.1.4-.5-.2-.5-.6-.5-1,0-1.3,0-2.6,0-3.9,0-.6-.2-.7-.7-.7-1.9,0-3.9,0-5.8,0-1.8,0-2.9-1.1-2.9-3,0-5.8,0-11.6,0-17.5,0-1.8,1.1-2.9,2.9-2.9,7.3,0,14.6,0,21.9,0ZM26.1,38c1.1-1.3,2.2-2.4,3.1-3.6.5-.6,1-.8,1.7-.8,10.2,0,20.4,0,30.7,0,1.3,0,1.6-.3,1.6-1.6,0-5.7,0-11.4,0-17.1,0-.2,0-.4,0-.6,0-.5-.3-.8-.8-.9-.3-.1-.7-.1-1-.1-9.6,0-19.1,0-28.7,0-4.8,0-9.6,0-14.4,0-1.2,0-1.6.4-1.6,1.5,0,5.8,0,11.5,0,17.3,0,1.1.3,1.4,1.5,1.5,2.2,0,4.3,0,6.5,0,1.3,0,1.4.1,1.4,1.4,0,1,0,1.9,0,3Z"/>
        <path class="cls-1" d="M45.9,26.4c.5-1.2-.2-2.2-1.1-3.1-.6-.6-.3-1.3.5-1.4,1.4-.2,2.3-.8,2.8-2.1.3-.8,1.1-.8,1.5,0,.6,1.2,1.4,1.9,2.8,2,.9.1,1.1.8.5,1.5-1,.9-1.3,2-1,3.3.1.8-.5,1.2-1.2.9-1.2-.7-2.3-.7-3.6,0-.7.4-1.2,0-1.2-1.1ZM47.6,24.8c.2.2-.3.9.5.6.6-.3,1.2-.3,1.8,0,.3.2.5,0,.4-.3-.2-.7,0-1.2.5-1.7.3-.3.2-.4-.2-.5-.7,0-1.2-.4-1.4-1-.2-.4-.4-.4-.5,0-.3.6-.7.9-1.4,1-.4,0-.5.2-.2.6.3.4.7.7.5,1.3Z"/>
        <path class="cls-1" d="M28.2,26.2c.4-1.2-.2-2-1-2.8-.8-.8-.6-1.4.5-1.6,1.2-.2,1.9-.7,2.5-1.8.5-1.1,1.2-1,1.7,0,.5,1,1.2,1.6,2.4,1.7.2,0,.3,0,.5.1.5.2.7.7.4,1.2-.2.3-.4.6-.7.9-.6.5-.7,1.2-.6,2,0,.3,0,.6,0,.9,0,.6-.5,1-1.1.7-1.3-.7-2.5-.7-3.8,0-.6.3-1.1-.1-1.1-.8,0-.2,0-.3,0-.5ZM29.8,25.1c0,.4.1.6.4.4.6-.4,1.2-.3,1.8,0,.3.1.4,0,.4-.3-.1-.7.1-1.3.7-1.8.2-.2.2-.3,0-.4-.8,0-1.3-.4-1.7-1.2-.1-.2-.3-.3-.4,0-.3.7-.8,1.1-1.6,1.1-.3,0-.3.2-.1.4.5.5.8,1,.6,1.7Z"/>
        <path class="cls-1" d="M37.1,26.2c.5-1.1-.2-2-1-2.8-.6-.7-.4-1.3.5-1.5,0,0,0,0,0,0,1.3-.1,2.1-.7,2.7-1.9.4-.9,1.2-.9,1.6,0,.6,1.2,1.4,1.7,2.7,1.9,1,.2,1.1.8.5,1.5,0,0,0,0,0,0-.8.7-1.3,1.6-1,2.8,0,.2,0,.4,0,.6,0,.6-.5,1-1,.7-1.3-.7-2.6-.7-3.9,0-.6.3-1-.2-1-1.4ZM38.7,25.1c0,.4,0,.5.3.4.6-.4,1.3-.4,1.9,0,.3.1.4,0,.4-.3-.2-.7,0-1.3.6-1.8.2-.2.3-.4-.1-.5-.7,0-1.2-.4-1.5-1.1-.1-.3-.3-.3-.5,0-.3.7-.8,1-1.5,1.1-.3,0-.4.2-.1.4.5.5.8,1.1.6,1.7Z"/>
        <path class="cls-1" d="M19.2,26.6c0-.4,0-.7,0-1.1.1-.6-.1-1.1-.5-1.6-.2-.2-.4-.5-.6-.8-.4-.6-.3-1.1.4-1.4.5-.1.9-.3,1.4-.3.4,0,.6-.2.8-.6.2-.4.5-.9.8-1.3.4-.5,1.1-.6,1.3,0,.6,1.4,1.6,2,3.1,2.2.6,0,.8.7.4,1.3,0,.1-.2.3-.3.4-1,.8-1,1.8-.9,2.9.1.9-.5,1.4-1.2,1-1.2-.7-2.3-.7-3.5,0-.7.4-1.2,0-1.2-.8ZM23.5,24.8c-.2-.5.2-.9.6-1.3.2-.2.3-.5-.1-.5-.7,0-1.2-.4-1.5-1.1-.2-.4-.4-.3-.5,0-.3.6-.8,1-1.5,1.1-.4,0-.4.3-.1.5.5.4.7,1,.6,1.6,0,.5.2.5.5.3.5-.2.9-.3,1.4,0,.7.3.7.3.7-.6Z"/>
        <path class="cls-1" d="M54.8,26.6s0,0,0-.1c.3-1.2,0-2.2-.9-3.1-.8-.8-.6-1.4.5-1.6,1.2-.2,2-.7,2.5-1.8.5-1,1.1-1,1.7,0,0,0,0,0,0,.1.4,1,1.1,1.6,2.2,1.6.2,0,.4,0,.6.2.5.2.7.7.4,1.2-.1.2-.3.4-.4.5-.9.7-1,1.6-.8,2.6,0,.3,0,.6,0,.9-.2.4-.5.5-.9.4-.4-.1-.9-.3-1.2-.5-.5-.3-1-.2-1.4,0-.3.2-.7.3-1.1.4-.7.3-1.2-.1-1.2-.9ZM56.5,24.7c0,.9,0,.9.7.6.5-.2.9,0,1.4.1.3.2.5,0,.5-.3,0-.6,0-1.2.5-1.6.3-.3.2-.5-.2-.5-.7,0-1.1-.4-1.4-1-.2-.4-.4-.4-.6,0-.3.6-.7.9-1.3,1-.5,0-.5.3-.2.6.3.3.6.7.5,1.2Z"/>
      </g>
    </g>
  </g>
</svg>