<?xml version="1.0" encoding="UTF-8"?>
<svg xmlns="http://www.w3.org/2000/svg" version="1.1" viewBox="0 0 80 80">
  <defs>
    <style>
      .cls-1 {
        fill: #fff;
      }
    </style>
  </defs>
  <!-- Generator: Adobe Illustrator 28.7.1, SVG Export Plug-In . SVG Version: 1.2.0 Build 142)  -->
  <g>
    <g id="Layer_1">
      <g>
        <path class="cls-1" d="M60.7,56.5c.8.8,1.6,1.5,2.3,2.3.7.7.9,1.5.6,2.5-.3,1-1,1.6-2,1.8-.8.2-1.6,0-2.1-.6-1.6-1.6-3.2-3.2-4.9-4.9-.1-.1-.2-.2-.3-.4-.2-.2,0-.6-.4-.7-.5,0-1-.1-1.5,0-1.2.5-2.5.8-3.8.7-1.1,0-2.2-.2-3.2-.7-.4-.2-.5,0-.4.3,0,.7,0,1.5,0,2.2,0,.3.1.5.5.5.6,0,1.2,0,1.8,0,1.8.2,3.4,1.8,3.2,4.3,0,.4-.3.7-.7.7-.2,0-.3,0-.5,0-6.7,0-13.5,0-20.2,0-1.1,0-1.3-.2-1.3-1.3,0-2.2,1.5-3.7,3.8-3.8.4,0,.8,0,1.2,0,.3,0,.5,0,.5-.4,0-.8,0-1.6,0-2.3,0-.3-.1-.4-.4-.4-.5,0-1,0-1.4,0-4.6,0-9.2,0-13.8,0-1.7,0-2.6-1-2.6-2.6,0-9.6,0-19.1,0-28.7,0-1.4.8-2.7,2.7-2.8.2,0,.4,0,.6,0,13.2,0,26.3,0,39.5,0,.2,0,.4,0,.5,0,.3,0,.4-.1.4-.4,0-1.1.2-1.3,1.3-1.3,1.3,0,2.5,0,3.8,0,.8,0,1.1.2,1.1,1.1,0,1.4,0,2.8,0,4.2,0,.7-.2.9-.9.9q-.8,0-.8.8c0,8.7,0,17.4,0,26.1,0,1.3-.7,2.3-1.9,2.6-.2,0-.4,0-.8.1ZM39.1,26.9c-6.4,0-12.7,0-19.1,0-.3,0-.6,0-.6.5,0,7.5,0,15,0,22.5,0,.4.1.5.5.5,6.6,0,13.1,0,19.7,0,.1,0,.3,0,.4,0,0-.2,0-.4-.1-.5-.4-.3-.4-.7-.4-1.1,0-4.6,0-9.2,0-13.8,0-.5,0-.9,0-1.4,0-.5.3-.8.8-.8,1,0,2,0,3.1,0,.6,0,.8.3.8.9,0,.5,0,1,0,1.4,0,1.7,0,3.5,0,5.2,0,.3,0,.4.4.3.4-.2.4-.4.4-.8,0-2.9,0-5.7,0-8.6,0-1,.3-1.2,1.2-1.2.8,0,1.6,0,2.5,0,.8,0,1.1.3,1.1,1.1,0,2.6,0,5.1,0,7.7q0,.8.7.9c4.8.9,8,5.5,7.3,10.3,0,.6,0,.6.6.6.5,0,.4-.4.4-.7,0-7.4,0-14.8,0-22.2,0-.6,0-.6-.7-.6-6.3,0-12.7,0-19,0ZM42.9,55c-.8-.8-1.5-1.6-1.9-2.5-.2-.4-.5-.6-.9-.6-6.9,0-13.8,0-20.6,0-1.2,0-1.4-.1-1.4-1.3,0-8,0-15.9,0-23.9,0-1.2.1-1.3,1.4-1.4,0,0,.2,0,.2,0,12.8,0,25.5,0,38.3,0,.2,0,.4,0,.6,0,.1,0,.3,0,.3-.1,0-.4.1-.8,0-1.1-.1-.3-.5-.2-.7-.2-13.4,0-26.7,0-40.1,0-1.2,0-1.5.3-1.5,1.5,0,9.4,0,18.7,0,28.1,0,1.3.3,1.6,1.5,1.6,8.1,0,16.1,0,24.2,0s.3,0,.6,0ZM61.8,40.6c0-3.1,0-6.1,0-9.2,0-1.4,0-2.7,0-4.1,0-.2,0-.4-.1-.5-.4-.1-.8-.1-1.2,0-.3,0-.2.4-.2.7,0,4.6,0,9.2,0,13.9,0,3.2,0,6.3,0,9.5,0,.7-.3,1-1,1-.6,0-1.2,0-1.7,0-.2,0-.4,0-.5.2-.2.3-.3.6-.5,1-.1.2,0,.5.3.4.7,0,1.2.3,1.6.9.4.5.9.8,1.6.6,0,0,.2,0,.2,0,1.1,0,1.4-.3,1.4-1.4,0-4.3,0-8.6,0-13ZM56.4,48.4c0-.3,0-.6,0-.9-.5-4.3-4.4-7.2-8.7-6.5-4.6.7-7.5,5.6-5.8,10,1.6,4.3,6.5,6.2,10.6,4,.8-.4,1.5-.7,2.4-.2.2,0,.3,0,.4,0,.1-.1.2-.2,0-.4-.4-.8-.2-1.6.2-2.4.6-1.1.9-2.2.8-3.5ZM39.2,63.1c.4,0,.9,0,1.3,0,2.7,0,5.3,0,8,0,.6,0,.6,0,.4-.6-.3-.8-1-1.4-1.9-1.4-5.2,0-10.4,0-15.6,0-.9,0-1.5.5-1.9,1.3-.3.6-.2.7.5.7,3.1,0,6.1,0,9.2,0ZM39.1,59.6c1.3,0,2.6,0,3.9,0,.4,0,.5,0,.5-.5,0-.7,0-1.5,0-2.2,0-.3-.1-.5-.5-.5-2.6,0-5.2,0-7.9,0-.3,0-.5.1-.5.5,0,.7,0,1.4,0,2.1,0,.4.1.6.5.5,1.3,0,2.5,0,3.8,0ZM62.2,60.6c0-.4-.2-.7-.5-1-1.2-1.2-2.4-2.4-3.6-3.6-1.1-1.1-1-1-2.1,0-.3.3-.3.5,0,.8,1.4,1.4,2.9,2.9,4.3,4.3.1.1.2.2.4.3.3.2.7.2,1,0,.3-.2.5-.5.5-.9ZM41.1,43.8c.4-.6.8-1.2,1.3-1.7.3-.3.4-.6.4-1,0-2,0-4,0-5.9,0-1.3.1-1.1-1.1-1.1-.5,0-.7.1-.6.6,0,2.9,0,5.8,0,8.6,0,.1,0,.3,0,.5ZM46.6,35.4c0,1.1,0,2.1,0,3.2q0,1,1,.8c0,0,.1,0,.2,0,.5,0,.6-.2.6-.7,0-2.1,0-4.1,0-6.2,0-1.4.2-1.2-1.2-1.2-.4,0-.5.1-.5.5,0,1.2,0,2.4,0,3.6ZM63.5,23.8c0-.4,0-.8,0-1.2,0-.3-.1-.4-.4-.4-.8,0-1.6,0-2.4,0-.3,0-.4.1-.4.4,0,.8,0,1.5,0,2.3,0,.3.1.5.5.5.7,0,1.5,0,2.2,0,.4,0,.6-.2.5-.6,0-.3,0-.7,0-1Z"/>
        <path class="cls-1" d="M57,15.3c.5,0,1.1,0,1.6,0,.6,0,.9.3.9.8,0,1.2,0,2.3,0,3.5,0,.5-.3.8-.8.8-1.2,0-2.3,0-3.5,0-.5,0-.8-.3-.8-.9,0-1.1,0-2.2,0-3.4,0-.6.3-.9.9-.9.6,0,1.1,0,1.7,0ZM56.9,19c1.2,0,1.1.2,1.1-1.1,0-1.2.2-1-1.1-1-1.2,0-1.1-.2-1.1,1.1,0,1.2-.2,1,1.1,1Z"/>
        <path class="cls-1" d="M34,43c0-1.9,0-3.9,0-5.8,0-.8.2-1,1-1,.9,0,1.9,0,2.8,0,.7,0,.9.2.9.9,0,3.9,0,7.8,0,11.7,0,.7-.3.9-.9,1-1,0-1.9,0-2.9,0-.7,0-.9-.3-.9-.9,0-2,0-3.9,0-5.9ZM37.2,43.1c0-1.4,0-2.8,0-4.2,0-1.3.1-1.1-1.1-1.2-.5,0-.6.1-.6.6,0,2.9,0,5.9,0,8.8,0,1.3-.2,1.1,1.2,1.2.4,0,.6-.2.6-.6,0-1.6,0-3.1,0-4.7Z"/>
        <path class="cls-1" d="M28.5,44.6c0-1.4,0-2.8,0-4.2,0-.7.3-1,1-1,.9,0,1.8,0,2.8,0,.7,0,1,.3,1,1,0,2.8,0,5.6,0,8.4,0,.7-.3,1-1,1-.9,0-1.8,0-2.8,0-.7,0-1-.3-1-1,0-1.4,0-2.8,0-4.2ZM31.7,44.7c0-.8,0-1.7,0-2.5,0-1.3.2-1.1-1.2-1.2-.4,0-.6.1-.6.6,0,1.8,0,3.7,0,5.5,0,1.4-.3,1.2,1.2,1.2.4,0,.5-.2.5-.5,0-1,0-2,0-3.1Z"/>
        <path class="cls-1" d="M58,30c0,.5,0,1,0,1.5,0,.5-.3.8-.7.8-1,0-2,0-3.1,0-.5,0-.7-.4-.7-.8,0-.9,0-1.9,0-2.8,0-.5.3-.8.8-.9,1,0,1.9,0,2.9,0,.5,0,.8.3.8.9,0,.5,0,.9,0,1.4,0,0,0,0,0,0ZM56.5,30q0-.8-.7-.8t-.8.7.8.8.8-.7Z"/>
        <path class="cls-1" d="M29.3,29.2c1.1,0,2.1,0,3.2,0,.6,0,.9.3.9.7,0,.4-.3.7-.9.7-2.1,0-4.3,0-6.4,0-.6,0-.9-.3-.9-.7,0-.5.3-.7.9-.7,1.1,0,2.1,0,3.2,0Z"/>
        <path class="cls-1" d="M29.3,33.4c-1.1,0-2.1,0-3.2,0-.6,0-.9-.2-.9-.7,0-.5.3-.7.9-.7,2.1,0,4.2,0,6.3,0,.6,0,.9.3.9.7,0,.4-.4.7-.9.7-1.1,0-2.1,0-3.2,0Z"/>
        <path class="cls-1" d="M23.2,30.6c-.2,0-.4,0-.5,0-.4,0-.7-.3-.7-.7,0-.4.2-.7.7-.7.3,0,.7,0,1,0,.4,0,.7.3.7.7,0,.4-.3.7-.7.7-.1,0-.3,0-.4,0,0,0,0,0,0,0Z"/>
        <path class="cls-1" d="M23.2,33.4c-.2,0-.4,0-.6,0-.4,0-.6-.3-.6-.8,0-.4.3-.6.7-.7.3,0,.7,0,1,0,.4,0,.7.3.7.7,0,.4-.3.7-.7.7-.1,0-.3,0-.4,0,0,0,0,0,0,0Z"/>
        <path class="cls-1" d="M48.9,54.9c-3.7,0-6.6-2.9-6.6-6.6,0-3.7,2.9-6.6,6.6-6.6,3.6,0,6.6,3,6.6,6.6,0,3.7-2.9,6.5-6.6,6.5ZM43.9,48.6c0,2.7,2.4,5,5.3,4.8,3.1-.2,5-2.8,4.8-5.4-.2-2.9-2.8-5.1-5.8-4.7-2.5.3-4.6,2.8-4.3,5.3Z"/>
      </g>
    </g>
  </g>
</svg>