<?xml version="1.0" encoding="UTF-8"?>
<svg xmlns="http://www.w3.org/2000/svg" version="1.1" viewBox="0 0 80 80">
  <defs>
    <style>
      .cls-1 {
        fill: #fff;
      }
    </style>
  </defs>
  <!-- Generator: Adobe Illustrator 28.7.1, SVG Export Plug-In . SVG Version: 1.2.0 Build 142)  -->
  <g>
    <g id="Layer_1">
      <g>
        <path class="cls-1" d="M74,66.9c-.4.4-.9.5-1.5.5-21.7,0-43.4,0-65.1,0-1.2,0-1.5-.2-1.5-1.5,0-15.9,0-31.8,0-47.7,0-2.9,1.7-4.6,4.6-4.6,19.5,0,38.9,0,58.4,0,2.6,0,4.4,1,5.1,3.5v49.8ZM72.1,65.5V28.1H7.9v37.4h64.2ZM7.9,26.2h64.3c0-2.7,0-5.3,0-7.9,0-2-.8-2.8-2.8-2.8-19.6,0-39.1,0-58.7,0-.2,0-.4,0-.7,0-1.1,0-2.1,1-2.1,2.1,0,2.8,0,5.7,0,8.6Z"/>
        <path class="cls-1" d="M48.4,23.8c-6.5,0-13.1,0-19.6,0-1.3,0-1.5-.2-1.5-1.5,0-1,0-2.1,0-3.1,0-1,.3-1.3,1.3-1.3,12.9,0,25.8,0,38.6,0,.5,0,1,0,1.5,0,.7,0,1,.3,1.1,1,0,1.3,0,2.6,0,3.9,0,.6-.3.9-.9,1-.2,0-.4,0-.7,0-6.6,0-13.1,0-19.7,0ZM67.9,19.8H29.1v2.1h38.7v-2.1Z"/>
        <path class="cls-1" d="M13.3,23.8c-.6,0-1.3,0-1.9,0-.8,0-1.1-.3-1.1-1.1,0-1.2,0-2.4,0-3.7,0-.8.3-1.1,1.1-1.1,1.3,0,2.6,0,3.8,0,.8,0,1.1.3,1.1,1.1,0,1.2,0,2.4,0,3.7,0,.8-.3,1.1-1.1,1.1-.6,0-1.3,0-1.9,0ZM12.2,19.8v2.1h2.3v-2.1h-2.3Z"/>
        <path class="cls-1" d="M21.9,17.9c.6,0,1.3,0,1.9,0,.7,0,1,.4,1.1,1.1,0,1.3,0,2.5,0,3.8,0,.7-.3,1.1-1.1,1.1-1.3,0-2.7,0-4,0-.7,0-1-.4-1.1-1.1,0-1.3,0-2.5,0-3.8,0-.7.4-1,1.1-1.1.7,0,1.4,0,2.1,0ZM23,21.9v-2.1h-2.3v2.1h2.3Z"/>
      </g>
      <g>
        <path class="cls-1" d="M31.8,38.9c-1.3,0-2.6,0-3.9,0-.4,0-.4.2-.5.4-.7,1.1-2,1.6-3.2,1.1-1.2-.5-1.9-1.7-1.6-2.9.3-1.3,1.4-2.2,2.7-2.1,1,0,1.7.5,2.1,1.4.1.3.3.4.6.4,3,0,6,0,9,0,.3,0,.4,0,.6-.3.5-.9,1.3-1.4,2.3-1.4,1,0,1.8.5,2.3,1.4.2.3.3.4.6.4,3,0,6,0,9,0,.3,0,.5,0,.6-.4.6-1.1,1.8-1.6,2.9-1.3,1.1.3,1.9,1.3,1.9,2.5,0,1.2-.8,2.2-1.9,2.5-1.2.3-2.3-.2-3-1.3,0-.1-.3-.3-.4-.3-1.3,0-2.6,0-4,0,.1,0,.3.2.4.3,2.7,1.5,4.8,3.6,5.8,6.7,0,.1,0,.2.1.4.1.9.4,1.5,1.2,2.1,1.2.9,1.1,2.8,0,3.8-1.1,1-2.9.9-3.8-.4-.9-1.2-.7-3,.7-3.7.5-.3.5-.6.4-1-.5-2.3-1.8-4-3.6-5.3-1.9-1.4-4.1-2.2-6.4-2.6-.3,0-.5,0-.7.3-1.1,1.6-3.3,1.6-4.4,0,0-.1-.3-.3-.5-.3-3.5.6-6.5,1.9-8.7,4.8-.8,1-1.3,2.2-1.5,3.5,0,.3,0,.4.3.6,1.1.6,1.6,1.8,1.2,3-.3,1.1-1.4,1.9-2.5,1.9-1.2,0-2.2-.8-2.5-2-.3-1.2.2-2.3,1.3-3,.2-.1.4-.3.4-.5.5-3.4,2.4-5.7,5.2-7.6.5-.3.9-.6,1.4-.9,0,0,0,0,0,0ZM26.1,38.1c0-.5-.4-.9-.9-.9-.5,0-.9.4-.9.9,0,.5.4.8.9.8.5,0,.9-.4.8-.9ZM40.9,38c0-.5-.4-.9-.9-.8-.5,0-.9.4-.9.9,0,.5.4.8.9.8.5,0,.8-.4.8-.9ZM54.8,37.2c-.5,0-.9.4-.9.9,0,.5.4.9.9.9.5,0,.9-.4.9-.9,0-.5-.4-.8-.9-.8ZM27,50.2c0-.5-.4-.9-.9-.8-.5,0-.9.4-.9.9,0,.5.4.8.9.8.5,0,.8-.4.8-.9ZM53.9,51.1c.5,0,.9-.4.9-.9,0-.5-.4-.9-.9-.9-.5,0-.8.4-.8.9,0,.5.4.9.9.9Z"/>
        <path class="cls-1" d="M40,61.6c-1.3,0-2.7,0-4,0-.9,0-1.3-.3-1.2-1.2.3-2.2-.3-4.1-1.5-5.9-.3-.5-.3-1,0-1.5,1.6-3.2,3.3-6.5,4.9-9.8.3-.6.7-.8,1.3-.8,2.2,0,1.8-.2,2.8,1.7,1.5,2.9,2.9,5.9,4.4,8.8.3.6.3,1,0,1.6-1.2,1.8-1.7,3.8-1.5,6,0,.8-.3,1.1-1.1,1.1-1.4,0-2.8,0-4.1,0ZM39.1,45.4c-.1.1-.1.1-.2.2-1.3,2.6-2.6,5.3-3.9,7.9,0,.1,0,.4,0,.5.3.7.6,1.3,1,2,0,.2.3.3.5.3,2.3,0,4.6,0,6.9,0,.2,0,.4-.2.5-.3.3-.6.6-1.3,1-1.9.2-.3.1-.5,0-.8-1.3-2.5-2.5-5-3.7-7.5,0-.1-.1-.3-.2-.4,0,0,0,.1,0,.2,0,1.2,0,2.3,0,3.5,0,.3,0,.5.4.7.8.5,1.3,1.2,1.3,2.2,0,1.3-.8,2.4-2.1,2.7-1.2.3-2.5-.4-2.9-1.6-.5-1.2,0-2.5,1.1-3.2.2-.1.4-.3.4-.5,0-1.2,0-2.5,0-3.8ZM36.6,58.1v1.7h6.9v-1.7h-6.9ZM40.9,52c0-.5-.4-.9-.9-.9-.5,0-.9.4-.9.9,0,.5.4.8.9.8.5,0,.9-.4.9-.9Z"/>
      </g>
    </g>
  </g>
</svg>