<?xml version="1.0" standalone="no"?>
<!DOCTYPE svg PUBLIC "-//W3C//DTD SVG 20010904//EN"
 "http://www.w3.org/TR/2001/REC-SVG-20010904/DTD/svg10.dtd">
<svg version="1.0" xmlns="http://www.w3.org/2000/svg"
 width="512.000000pt" height="512.000000pt" viewBox="0 0 512.000000 512.000000"
 preserveAspectRatio="xMidYMid meet">

<g transform="translate(0.000000,512.000000) scale(0.100000,-0.100000)"
fill="#000000" stroke="none">
<path d="M2882 3840 c-39 -34 -73 -67 -76 -75 -8 -21 112 -170 137 -170 34 0
32 31 -4 76 l-32 41 169 -4 c151 -3 174 -5 215 -26 70 -34 122 -84 160 -154
l34 -63 3 -177 c4 -184 10 -209 48 -194 14 5 15 29 12 188 -3 162 -6 190 -27
241 -32 81 -115 168 -199 209 -66 33 -68 33 -247 38 l-180 5 48 39 c34 28 47
45 45 60 -5 37 -34 28 -106 -34z"/>
<path d="M1347 3785 c-87 -24 -160 -67 -228 -134 -36 -36 -72 -77 -80 -90
l-15 -24 -69 34 c-64 31 -77 34 -165 34 -84 0 -102 -3 -157 -29 -74 -34 -154
-114 -185 -183 -12 -26 -23 -78 -26 -115 l-5 -67 -46 -6 c-76 -10 -129 -34
-185 -86 -74 -67 -100 -129 -101 -234 0 -68 4 -89 28 -137 32 -65 89 -121 156
-152 45 -21 55 -21 759 -24 l712 -3 0 -57 c1 -113 43 -255 111 -368 87 -144
256 -280 405 -324 l41 -12 0 -87 c0 -135 54 -245 156 -315 111 -76 28 -71
1127 -74 694 -2 1005 1 1052 8 136 23 277 117 345 231 158 264 -1 610 -309
670 l-57 11 -16 75 c-41 183 -163 342 -326 422 -225 111 -465 89 -663 -61 -61
-46 -156 -153 -168 -188 -2 -8 -20 -2 -52 19 -27 17 -64 35 -82 41 -29 10 -33
15 -39 63 -11 91 -45 199 -88 281 -58 114 -199 255 -312 313 -191 99 -411 118
-602 52 -48 -16 -59 -17 -72 -5 -28 24 -79 46 -138 59 l-56 13 -13 61 c-27
135 -143 286 -264 345 -113 56 -263 73 -373 43z m329 -89 c137 -68 231 -191
255 -336 12 -73 27 -90 78 -91 42 0 123 -29 128 -45 2 -6 -7 -15 -19 -21 -54
-25 -155 -112 -209 -180 -85 -107 -133 -215 -164 -365 l-5 -28 -692 0 c-505 0
-701 3 -730 12 -57 17 -131 87 -158 150 -54 126 9 278 139 334 20 9 67 17 106
18 l70 1 5 95 c5 81 10 103 35 149 94 170 320 214 475 91 47 -37 58 -33 92 34
45 88 178 189 286 216 20 5 81 8 134 6 90 -3 104 -6 174 -40z m560 -508 l29
-33 -32 29 c-18 17 -33 31 -33 33 0 8 8 1 36 -29z m49 -69 c9 -17 15 -33 13
-35 -3 -2 -12 12 -21 31 -21 43 -13 47 8 4z m410 -70 c81 -28 139 -63 204
-123 93 -89 153 -197 169 -309 l7 -52 75 -6 75 -5 -71 -2 -71 -2 -7 -72 c-24
-238 -191 -434 -421 -493 -32 -8 -96 -15 -140 -15 -45 0 -86 -5 -93 -10 -9 -7
-9 -7 -3 1 7 9 -12 19 -67 38 -98 33 -167 77 -234 150 -67 72 -103 139 -128
237 -33 129 -22 192 29 164 16 -8 21 -21 21 -48 0 -110 64 -245 156 -331 118
-111 251 -149 424 -123 29 4 31 6 15 13 -15 6 -9 8 22 8 56 1 73 9 74 35 0 18
1 19 7 3 7 -16 11 -15 52 12 143 91 229 267 216 436 -18 222 -164 390 -383
441 -116 27 -292 -2 -294 -49 -1 -17 -2 -18 -6 -4 -2 9 -7 17 -10 17 -13 0
-100 -61 -123 -85 l-23 -25 29 0 c39 0 67 -21 62 -46 -3 -17 -12 -19 -103 -19
l-100 0 -3 98 c-2 83 0 98 14 104 26 10 49 -11 52 -46 l3 -31 57 44 c85 65
174 104 277 120 55 8 178 -5 240 -25z m-378 -171 c-3 -8 -6 -5 -6 6 -1 11 2
17 5 13 3 -3 4 -12 1 -19z m-17 -56 c0 -5 -7 -17 -15 -28 -14 -18 -14 -17 -4
9 12 27 19 34 19 19z m241 -22 c17 -9 19 -22 19 -102 0 -80 3 -95 22 -115 19
-20 31 -23 99 -23 57 0 82 -4 93 -16 37 -36 9 -54 -87 -54 -72 0 -82 -2 -103
-25 -16 -18 -33 -25 -59 -25 -76 0 -114 89 -60 140 23 22 25 30 25 115 0 57 4
95 12 103 15 15 15 15 39 2z m1583 -60 c100 -25 165 -61 242 -133 101 -94 165
-216 180 -342 4 -30 12 -59 18 -64 6 -4 34 -11 61 -14 96 -11 164 -44 236
-116 87 -87 113 -150 114 -276 0 -80 -3 -97 -31 -156 -57 -120 -182 -215 -315
-239 -37 -7 -400 -10 -1040 -8 l-984 3 -60 28 c-67 32 -106 64 -141 120 -33
51 -57 150 -50 201 l6 41 148 0 c134 1 154 3 227 28 283 98 480 330 524 617 7
41 13 75 14 76 7 7 88 -37 119 -65 20 -17 42 -31 51 -31 8 0 32 30 53 66 127
217 387 326 628 264z m-1874 -3 c0 -2 -15 -16 -32 -33 l-33 -29 29 33 c28 30
36 37 36 29z m-100 -82 c0 -6 -56 -35 -67 -35 -4 1 8 9 27 20 39 22 40 22 40
15z m-127 -52 c-13 -2 -23 -12 -23 -20 0 -9 -3 -14 -6 -10 -13 13 6 37 28 36
l23 -2 -22 -4z m-105 -10 c-26 -2 -71 -2 -100 0 -29 2 -8 3 47 3 55 0 79 -1
53 -3z m1071 -67 c-2 -2 -15 -9 -29 -15 -24 -11 -24 -11 -6 3 16 13 49 24 35
12z m-97 -62 c-23 -19 -56 -52 -73 -72 -17 -20 -26 -28 -21 -17 11 23 116 125
128 125 4 0 -11 -16 -34 -36z m-114 -139 c-6 -14 -13 -23 -15 -21 -5 5 15 46
22 46 3 0 -1 -11 -7 -25z m-41 -142 c-3 -10 -5 -4 -5 12 0 17 2 24 5 18 2 -7
2 -21 0 -30z m-130 -129 c-3 -3 -12 -4 -19 -1 -8 3 -5 6 6 6 11 1 17 -2 13 -5z
m-244 -189 c-9 -19 -18 -33 -21 -31 -4 5 26 66 33 66 3 0 -3 -16 -12 -35z"/>
<path d="M1480 1918 c-19 -17 -54 -48 -77 -69 -27 -24 -41 -43 -37 -53 11 -29
34 -25 81 15 l48 39 6 -162 c6 -176 15 -214 68 -292 42 -61 95 -104 171 -140
l65 -31 185 0 185 0 0 25 0 25 -180 5 c-172 5 -183 6 -237 33 -72 35 -134 97
-167 167 -24 50 -26 68 -29 209 l-3 155 40 -37 c23 -20 45 -37 49 -37 11 0 32
22 32 33 0 16 -133 147 -149 147 -9 0 -32 -15 -51 -32z"/>
</g>
</svg>
