<?xml version="1.0" standalone="no"?>
<!DOCTYPE svg PUBLIC "-//W3C//DTD SVG 20010904//EN"
 "http://www.w3.org/TR/2001/REC-SVG-20010904/DTD/svg10.dtd">
<svg version="1.0" xmlns="http://www.w3.org/2000/svg"
 width="512.000000pt" height="512.000000pt" viewBox="0 0 512.000000 512.000000"
 preserveAspectRatio="xMidYMid meet">

<g transform="translate(0.000000,512.000000) scale(0.100000,-0.100000)"
fill="#000000" stroke="none">
<path d="M3180 4815 c-154 -110 -185 -140 -174 -168 8 -23 321 -247 344 -247
23 0 50 32 50 58 0 15 -25 38 -90 84 -49 35 -89 66 -90 71 0 4 351 7 780 7
l780 0 0 -1258 c0 -965 3 -1261 12 -1270 15 -15 61 -15 76 0 19 19 17 2601 -1
2617 -10 8 -245 12 -823 13 l-809 3 78 58 c43 32 81 65 84 73 3 8 1 26 -5 40
-21 45 -56 32 -212 -81z"/>
<path d="M140 4673 c-66 -25 -122 -108 -123 -181 0 -74 180 -869 209 -919 36
-62 80 -85 181 -92 l85 -6 233 -245 232 -244 -13 -51 c-8 -27 -21 -97 -30
-155 -22 -143 -15 -433 15 -568 157 -708 751 -1260 1456 -1353 130 -17 414 -6
534 20 52 12 96 19 99 16 3 -3 -16 -100 -43 -216 -54 -244 -56 -293 -11 -358
16 -23 47 -49 70 -61 42 -20 57 -20 985 -20 904 0 943 1 979 19 65 33 104 97
105 170 0 74 -180 868 -209 918 -36 63 -82 86 -180 91 l-84 4 -157 167 c-87
91 -189 198 -227 238 l-68 72 36 112 c113 346 109 709 -11 1052 -173 500 -586
910 -1083 1077 -156 53 -268 71 -456 77 -192 6 -278 -2 -437 -39 -49 -11 -90
-18 -92 -16 -2 1 10 62 27 133 36 159 35 225 -5 282 -15 22 -45 49 -66 61
l-39 22 -948 -1 c-522 0 -956 -3 -964 -6z m1913 -113 c15 -12 29 -35 32 -53 4
-22 -24 -167 -88 -455 -76 -343 -98 -428 -116 -445 -21 -22 -26 -22 -478 -27
-412 -5 -457 -7 -466 -22 -8 -12 -4 -73 16 -224 15 -114 25 -209 23 -211 -2
-2 -102 100 -222 226 l-219 231 -77 0 c-88 0 -121 10 -142 42 -16 25 -196 815
-196 861 0 32 16 66 39 84 12 10 230 12 942 13 918 0 927 0 952 -20z m654
-454 c53 -27 133 -105 183 -179 95 -142 189 -401 245 -676 l7 -34 -61 6 c-294
31 -672 34 -914 7 -59 -7 -110 -11 -112 -8 -2 2 7 53 20 114 113 500 328 820
537 800 25 -3 68 -16 95 -30z m-403 -8 c-4 -7 -24 -33 -45 -58 -82 -101 -158
-255 -222 -456 -34 -104 -87 -324 -87 -357 0 -21 -23 -33 -80 -41 -250 -38
-609 -178 -767 -300 -40 -31 -73 -52 -73 -47 0 36 15 71 30 71 33 0 43 26 38
97 -5 62 -2 77 34 163 21 52 67 142 102 200 l63 105 289 5 c311 5 321 7 370
62 38 41 50 79 99 298 26 118 49 217 51 219 6 6 166 49 187 50 12 1 16 -3 11
-11z m737 -23 c401 -120 737 -387 945 -752 75 -132 147 -324 170 -457 l7 -38
-74 56 c-92 71 -252 153 -389 201 -103 36 -370 105 -407 105 -35 0 -44 18 -69
140 -57 273 -170 552 -289 708 l-55 74 42 -7 c24 -4 77 -18 119 -30z m-1881
-627 c-11 -18 -35 -61 -53 -95 -17 -35 -34 -63 -38 -63 -5 0 -29 144 -29 178
0 8 21 12 71 12 l71 0 -22 -32z m1830 -318 c171 -18 168 -17 174 -58 15 -90
26 -241 32 -417 9 -268 -21 -675 -50 -675 -6 0 -45 -5 -86 -10 -232 -31 -687
-31 -936 1 l-92 11 -11 91 c-22 171 -31 463 -21 667 9 171 26 359 34 367 6 6
165 24 281 33 141 10 539 4 675 -10z m-1071 -97 c-32 -232 -35 -624 -8 -900 7
-68 10 -125 8 -127 -6 -6 -189 36 -304 69 -369 108 -605 291 -605 470 0 208
293 403 780 519 147 34 138 37 129 -31z m1518 21 c215 -52 425 -137 549 -222
134 -92 212 -209 201 -302 -25 -206 -309 -388 -781 -500 -71 -17 -131 -29
-133 -26 -3 3 0 49 7 103 27 228 24 665 -7 932 l-6 53 34 -7 c19 -4 80 -18
136 -31z m-2344 -837 c153 -125 397 -227 697 -292 157 -34 150 -32 154 -47 2
-7 16 -69 31 -138 64 -301 183 -579 304 -713 18 -21 31 -40 28 -43 -9 -9 -173
35 -267 71 -229 87 -388 191 -566 369 -174 175 -275 328 -364 552 -26 64 -80
251 -80 277 0 13 10 8 63 -36z m3057 -24 c-7 -32 -21 -86 -32 -120 -17 -58
-21 -63 -47 -63 -44 0 -55 -21 -48 -98 5 -63 3 -71 -30 -132 -52 -93 -107
-174 -181 -262 l-64 -78 -239 0 c-256 0 -286 -5 -337 -53 -39 -36 -58 -84 -87
-222 -15 -71 -33 -135 -39 -141 -9 -10 -136 -44 -161 -44 -3 0 20 33 50 72 70
92 152 252 200 388 38 110 90 304 101 380 9 60 20 80 46 80 40 0 254 52 373
91 151 49 339 142 430 212 39 30 72 53 73 51 2 -1 -2 -29 -8 -61z m-1815 -344
c165 -13 502 -7 683 12 62 6 115 9 118 6 3 -3 -7 -58 -21 -123 -102 -454 -297
-763 -497 -790 -211 -28 -444 324 -547 827 l-19 92 67 -7 c36 -3 134 -11 216
-17z m2035 -281 l215 -227 77 -1 c89 0 121 -10 142 -43 18 -27 196 -811 196
-863 0 -26 -8 -43 -29 -65 l-29 -29 -927 0 -926 0 -24 24 c-13 13 -27 36 -31
49 -6 25 163 808 188 870 6 15 20 33 32 40 15 9 145 13 470 17 410 5 450 6
460 22 8 13 4 67 -13 205 -12 103 -25 199 -28 212 -3 13 -2 22 4 20 5 -2 106
-106 223 -231z m-301 -21 c7 -54 11 -101 8 -103 -2 -3 -46 -3 -96 -2 l-92 3
44 57 c24 31 59 80 77 108 18 28 36 48 40 43 4 -4 12 -52 19 -106z"/>
<path d="M1054 4430 c-15 -6 -48 -82 -143 -338 -130 -348 -133 -361 -81 -377
40 -13 56 11 110 160 l53 145 81 0 82 0 53 -145 c55 -149 71 -173 112 -160 50
16 46 33 -80 373 -66 178 -123 327 -126 331 -8 13 -39 19 -61 11z m55 -287 c1
-8 -12 -13 -34 -13 -40 0 -40 0 -18 59 l17 44 17 -39 c10 -21 18 -45 18 -51z"/>
<path d="M3780 1151 c-6 -13 -10 -138 -10 -338 0 -272 2 -322 16 -341 15 -21
21 -22 167 -22 126 0 159 4 192 19 75 35 115 102 115 193 0 53 -27 129 -50
143 -8 5 -7 11 4 24 61 67 60 216 -2 284 -44 49 -81 57 -256 57 -153 0 -166
-1 -176 -19z m351 -110 c41 -41 41 -98 0 -143 l-29 -33 -114 0 -113 0 -3 103
-3 102 116 0 c115 0 117 0 146 -29z m0 -310 c41 -41 41 -98 0 -143 l-29 -33
-114 0 -113 0 -3 103 -3 102 116 0 c115 0 117 0 146 -29z"/>
<path d="M260 3021 c-7 -13 -10 -438 -10 -1305 0 -1154 2 -1286 16 -1300 14
-14 102 -16 820 -16 442 0 804 -3 804 -7 0 -5 -32 -30 -71 -58 -39 -27 -75
-58 -80 -68 -14 -25 14 -67 44 -67 31 0 330 214 341 245 7 17 5 29 -4 40 -27
33 -319 235 -339 235 -25 0 -55 -42 -47 -67 4 -10 48 -47 99 -83 l92 -65 -775
-3 c-426 -1 -781 0 -787 3 -10 3 -13 264 -13 1258 0 961 -3 1256 -12 1265 -19
19 -66 15 -78 -7z"/>
</g>
</svg>
