<?xml version="1.0" standalone="no"?>
<!DOCTYPE svg PUBLIC "-//W3C//DTD SVG 20010904//EN"
 "http://www.w3.org/TR/2001/REC-SVG-20010904/DTD/svg10.dtd">
<svg version="1.0" xmlns="http://www.w3.org/2000/svg"
 width="512.000000pt" height="512.000000pt" viewBox="0 0 512.000000 512.000000"
 preserveAspectRatio="xMidYMid meet">

<g transform="translate(0.000000,512.000000) scale(0.100000,-0.100000)"
fill="#000000" stroke="none">
<path d="M2462 5110 c-322 -44 -627 -296 -848 -700 l-59 -107 -200 -6 c-281
-7 -459 -44 -640 -132 -88 -42 -225 -137 -225 -155 0 -4 13 -11 29 -15 16 -3
47 -22 69 -40 40 -34 40 -35 64 -16 120 94 327 166 550 190 89 10 278 15 278
8 0 -2 -20 -57 -44 -123 -58 -155 -120 -383 -154 -562 l-27 -143 -80 -67
c-111 -93 -335 -318 -430 -432 -43 -52 -83 -95 -88 -95 -14 0 -110 173 -153
275 -19 47 -46 122 -59 167 -27 92 -49 270 -40 314 6 26 4 29 -18 29 -14 0
-50 13 -80 29 l-56 29 -7 -65 c-24 -226 85 -581 262 -856 24 -37 44 -72 44
-77 0 -5 -20 -40 -44 -77 -178 -276 -290 -643 -262 -866 l7 -55 56 29 c30 16
65 29 78 29 22 0 22 3 28 122 6 143 38 267 109 426 51 113 126 245 137 240 4
-2 43 -46 87 -98 98 -118 289 -311 414 -419 l94 -81 31 -158 c36 -182 97 -402
155 -557 22 -59 40 -109 40 -111 0 -8 -159 -4 -269 7 -211 20 -411 84 -535
173 l-50 35 -32 -29 c-18 -15 -49 -34 -68 -41 -20 -7 -36 -17 -36 -21 0 -15
116 -99 191 -138 96 -50 256 -104 374 -125 55 -11 169 -19 296 -22 l205 -5 34
-65 c198 -382 481 -645 780 -725 106 -28 276 -28 385 1 282 75 557 324 751
682 l59 108 160 1 c299 1 505 44 705 146 82 42 200 126 200 142 0 4 -16 14
-36 21 -19 7 -50 25 -67 41 l-32 28 -70 -47 c-130 -86 -303 -140 -520 -161
-107 -10 -265 -14 -265 -6 0 2 18 51 40 109 68 182 139 449 171 644 12 71 12
73 73 124 172 144 383 360 509 519 l27 35 20 -25 c11 -14 49 -83 85 -155 102
-205 145 -358 147 -523 1 -88 2 -92 24 -92 12 0 47 -13 77 -29 l56 -29 6 64
c24 223 -76 556 -256 850 l-52 84 51 83 c181 297 281 628 258 850 l-7 65 -56
-29 c-30 -16 -65 -29 -78 -29 -21 0 -22 -4 -23 -88 -1 -143 -43 -307 -122
-478 -47 -102 -119 -226 -129 -222 -5 2 -43 46 -86 98 -94 113 -330 350 -436
438 l-76 62 -12 73 c-32 195 -103 462 -171 644 -22 58 -40 107 -40 109 0 2 43
4 95 4 278 0 538 -65 696 -175 l63 -44 32 29 c18 15 49 34 68 41 20 7 36 16
36 20 0 15 -118 101 -191 139 -98 51 -257 104 -379 125 -57 10 -175 19 -295
22 l-200 6 -59 107 c-268 489 -661 752 -1044 700z m243 -175 c145 -38 291
-130 419 -266 76 -81 195 -249 241 -340 l25 -48 -38 -6 c-246 -42 -549 -120
-713 -183 l-76 -29 -79 29 c-179 66 -474 142 -716 183 l-38 6 25 48 c46 91
165 259 241 340 126 134 272 227 414 265 73 19 221 20 295 1z m-785 -855 c131
-26 387 -94 399 -105 6 -7 11 -5 -159 -88 -187 -91 -389 -208 -568 -330 -73
-49 -135 -88 -137 -85 -14 14 88 369 157 547 l40 103 62 -6 c33 -4 126 -20
206 -36z m1588 -62 c22 -57 54 -148 72 -203 34 -108 91 -337 85 -343 -2 -2
-75 44 -162 101 -196 131 -365 228 -555 320 -81 40 -148 75 -148 78 0 15 312
96 496 128 181 32 166 38 212 -81z m-841 -174 c241 -103 589 -293 788 -432 71
-50 227 -164 247 -182 13 -10 36 -213 49 -420 13 -217 7 -482 -17 -710 -22
-222 -9 -196 -142 -293 -300 -218 -587 -383 -914 -526 l-118 -51 -117 51
c-330 144 -648 327 -930 538 -116 86 -104 60 -130 291 -23 214 -23 686 0 900
26 230 14 204 130 291 193 145 446 303 661 411 76 39 369 175 383 178 1 0 51
-21 110 -46z m-1456 -944 c-14 -192 -14 -488 0 -680 6 -83 9 -154 5 -157 -16
-16 -456 462 -456 497 0 35 440 514 456 497 3 -3 1 -74 -5 -157z m2910 -49
c105 -114 239 -276 239 -291 0 -34 -440 -514 -456 -497 -3 3 0 86 7 184 12
173 8 586 -8 748 l-6 70 63 -55 c34 -29 106 -101 161 -159z m-2527 -1290 c177
-120 379 -237 566 -328 170 -83 165 -81 159 -88 -23 -22 -467 -126 -605 -141
l-62 -6 -40 103 c-53 137 -98 280 -128 409 -14 58 -28 113 -30 123 -3 9 -2 17
1 17 4 0 66 -40 139 -89z m2072 72 c-3 -10 -14 -56 -25 -103 -29 -123 -86
-310 -133 -429 l-40 -103 -62 6 c-100 11 -342 62 -476 101 -125 36 -145 44
-123 52 6 2 89 44 185 92 195 99 391 214 553 325 61 41 114 76 118 76 5 0 6
-8 3 -17z m-1019 -609 c163 -61 466 -138 705 -179 l38 -6 -25 -48 c-46 -91
-165 -259 -241 -340 -175 -187 -365 -281 -564 -281 -199 0 -389 94 -564 281
-76 81 -195 249 -241 340 l-25 48 38 6 c240 41 548 119 702 179 82 32 95 32
177 0z"/>
<path d="M2103 3150 c-12 -5 -29 -19 -37 -32 -8 -13 -112 -256 -231 -542 -236
-566 -234 -559 -172 -597 36 -22 71 -18 99 9 10 10 46 85 81 167 l62 150 228
0 228 0 66 -159 c60 -144 70 -160 99 -172 60 -25 114 10 114 73 0 34 -424
1060 -449 1085 -21 22 -60 30 -88 18z m116 -504 c39 -93 71 -171 71 -173 0 -1
-70 -3 -155 -3 -85 0 -155 3 -155 8 0 6 28 75 120 296 26 62 35 75 41 60 4
-10 39 -95 78 -188z"/>
<path d="M2780 3147 c-53 -27 -62 -96 -18 -137 19 -17 35 -20 125 -20 l103 0
0 -430 0 -430 -103 0 c-90 0 -106 -3 -125 -20 -29 -27 -37 -63 -20 -96 24 -52
39 -54 340 -52 l276 3 26 24 c35 33 35 83 1 116 -22 23 -31 25 -125 25 l-100
0 0 430 0 430 100 0 c94 0 103 2 125 25 34 33 34 83 -1 116 l-26 24 -276 3
c-211 2 -283 -1 -302 -11z"/>
</g>
</svg>
