<?xml version="1.0" standalone="no"?>
<!DOCTYPE svg PUBLIC "-//W3C//DTD SVG 20010904//EN"
 "http://www.w3.org/TR/2001/REC-SVG-20010904/DTD/svg10.dtd">
<svg version="1.0" xmlns="http://www.w3.org/2000/svg"
 width="512.000000pt" height="512.000000pt" viewBox="0 0 512.000000 512.000000"
 preserveAspectRatio="xMidYMid meet">

<g transform="translate(0.000000,512.000000) scale(0.100000,-0.100000)"
fill="#000000" stroke="none">
<path d="M650 4858 c-67 -34 -90 -86 -90 -204 l0 -92 -103 -4 c-117 -4 -158
-21 -192 -78 -20 -35 -20 -41 -20 -2080 l0 -2045 22 -35 c12 -19 37 -44 55
-55 33 -20 51 -20 1598 -20 1547 0 1565 0 1598 20 59 35 76 76 80 192 l4 103
92 0 c118 0 170 23 204 90 l22 44 0 972 0 973 323 3 c306 3 325 5 377 26 162
66 253 200 253 372 0 172 -91 306 -253 372 -52 21 -71 23 -377 26 l-323 3 0
653 0 652 -22 44 c-17 33 -35 51 -68 68 l-44 22 -1546 0 -1546 0 -44 -22z
m3110 -778 l0 -640 -80 0 -80 0 0 493 c0 491 0 493 -22 537 -17 33 -35 51 -68
68 l-44 22 -1373 0 -1373 0 0 80 0 80 1520 0 1520 0 0 -640z m-320 -160 l0
-480 -92 0 c-139 -1 -203 -38 -224 -132 l-6 -29 -94 3 -94 3 -33 95 c-119 346
-405 596 -772 676 -96 20 -302 23 -390 5 -385 -79 -683 -340 -798 -696 -40
-125 -50 -191 -50 -325 0 -138 10 -200 54 -336 82 -251 277 -473 524 -596 60
-30 187 -72 270 -89 88 -18 294 -15 390 5 367 80 653 330 772 676 l33 95 94 3
94 3 6 -29 c21 -94 85 -131 224 -132 l92 0 0 -1120 0 -1120 -1520 0 -1520 0 0
2000 0 2000 1520 0 1520 0 0 -480z m-1295 -25 c251 -69 464 -250 574 -487 52
-111 71 -191 78 -320 14 -265 -80 -504 -268 -684 -81 -76 -140 -116 -242 -164
-116 -54 -184 -70 -327 -77 -191 -9 -337 28 -508 129 -73 43 -237 207 -280
280 -91 154 -132 301 -132 468 0 244 84 444 260 620 128 128 270 208 435 244
90 20 323 15 410 -9z m2461 -650 c160 -99 149 -336 -19 -420 l-51 -25 -628 0
-628 0 0 240 0 240 638 -2 639 -3 49 -30z m-1486 -205 l0 -80 -80 0 -80 0 0
80 0 80 80 0 80 0 0 -80z m640 -1360 l0 -960 -80 0 -80 0 0 960 0 960 80 0 80
0 0 -960z"/>
<path d="M2189 1491 l-29 -29 0 -342 0 -342 29 -29 29 -29 179 0 c217 0 267
11 329 74 78 77 91 199 33 293 l-21 33 21 33 c58 94 45 216 -33 293 -62 63
-112 74 -329 74 l-179 0 -29 -29z m426 -156 c16 -15 25 -36 25 -55 0 -19 -9
-40 -25 -55 -21 -22 -33 -25 -90 -25 -60 0 -69 -3 -96 -29 -37 -37 -37 -65 0
-102 27 -26 36 -29 96 -29 57 0 69 -3 90 -25 33 -32 33 -78 0 -110 -23 -24
-29 -25 -160 -25 l-135 0 0 240 0 240 135 0 c131 0 137 -1 160 -25z"/>
<path d="M1395 1496 c-11 -8 -96 -167 -189 -353 -163 -329 -168 -341 -155
-369 8 -15 26 -35 42 -44 54 -30 69 -10 212 272 72 142 132 258 135 258 5 0
110 -205 110 -215 0 -3 -30 -5 -66 -5 -59 0 -68 -3 -95 -29 -16 -16 -29 -39
-29 -51 0 -12 13 -35 29 -51 29 -28 31 -29 138 -29 l108 0 35 -67 c43 -83 76
-106 117 -83 15 9 34 28 43 43 15 26 11 34 -154 364 -92 186 -175 346 -184
356 -18 21 -70 22 -97 3z"/>
<path d="M1869 3491 c-24 -25 -29 -37 -29 -80 l0 -51 -171 0 -171 0 -29 -29
c-35 -36 -37 -61 -5 -98 l24 -28 286 -5 286 -5 -45 -90 c-25 -49 -54 -101 -65
-115 l-20 -25 -73 78 c-50 52 -80 77 -96 77 -27 0 -81 -51 -81 -77 0 -26 29
-69 89 -135 l51 -56 -38 -30 c-21 -17 -72 -47 -113 -67 -40 -19 -85 -41 -99
-48 -13 -7 -31 -25 -40 -40 -13 -24 -13 -30 0 -54 9 -15 27 -34 41 -42 24 -13
32 -12 85 8 68 25 180 87 240 132 l41 31 77 -55 c42 -31 110 -73 151 -94 71
-36 76 -37 102 -23 15 9 34 28 43 43 23 42 0 72 -106 136 -51 31 -107 68 -125
82 l-33 25 52 79 c28 43 68 120 88 172 l37 93 59 0 c52 0 63 4 89 29 37 37 37
65 0 102 l-29 29 -171 0 -171 0 0 51 c0 43 -5 55 -29 80 -16 16 -39 29 -51 29
-12 0 -35 -13 -51 -29z"/>
</g>
</svg>
