<?xml version="1.0" standalone="no"?>
<!DOCTYPE svg PUBLIC "-//W3C//DTD SVG 20010904//EN"
 "http://www.w3.org/TR/2001/REC-SVG-20010904/DTD/svg10.dtd">
<svg version="1.0" xmlns="http://www.w3.org/2000/svg"
 width="512.000000pt" height="512.000000pt" viewBox="0 0 512.000000 512.000000"
 preserveAspectRatio="xMidYMid meet">

<g transform="translate(0.000000,512.000000) scale(0.100000,-0.100000)"
fill="#000000" stroke="none">
<path d="M2798 5109 c170 -30 311 -178 328 -346 l7 -61 58 -22 c96 -35 183
-124 231 -235 17 -40 17 -38 17 148 1 164 -2 195 -20 249 -39 116 -122 204
-236 249 -52 21 -78 23 -248 25 -143 2 -177 0 -137 -7z"/>
<path d="M3432 707 c-5 -39 -63 -135 -109 -178 -54 -51 -100 -81 -154 -98 -35
-11 -36 -13 -43 -73 -17 -170 -157 -317 -328 -347 -40 -7 -6 -9 137 -7 171 2
196 4 248 25 115 45 208 147 243 267 11 39 14 95 11 240 -1 104 -3 181 -5 171z"/>
</g>
</svg>
