<?xml version="1.0" standalone="no"?>
<!DOCTYPE svg PUBLIC "-//W3C//DTD SVG 20010904//EN"
 "http://www.w3.org/TR/2001/REC-SVG-20010904/DTD/svg10.dtd">
<svg version="1.0" xmlns="http://www.w3.org/2000/svg"
 width="512.000000pt" height="512.000000pt" viewBox="0 0 512.000000 512.000000"
 preserveAspectRatio="xMidYMid meet">

<g transform="translate(0.000000,512.000000) scale(0.100000,-0.100000)"
fill="#000000" stroke="none">
<path d="M1248 4592 l-198 -198 0 -586 0 -586 -54 -26 c-62 -31 -109 -80 -140
-145 -21 -46 -21 -54 -21 -826 l0 -780 23 -46 c31 -63 85 -117 146 -145 l51
-24 593 0 c533 0 592 -2 592 -16 0 -31 53 -150 97 -216 24 -36 68 -89 98 -116
82 -75 785 -547 815 -547 30 0 732 471 815 547 61 55 130 155 164 236 48 114
51 160 53 838 l3 636 -28 24 c-15 13 -39 24 -52 24 l-24 0 -3 618 -3 617 -26
55 c-36 77 -80 124 -147 157 l-57 28 -315 5 -315 5 -5 290 c-6 323 -6 327 -73
359 -32 14 -118 16 -913 16 l-878 0 -198 -198z m1942 -647 l0 -715 -1005 0
-1005 0 0 539 0 539 129 3 c112 4 133 7 158 25 51 37 63 76 63 207 l0 117 830
0 830 0 0 -715z m-1790 555 l0 -60 -62 0 -62 0 59 60 c33 33 61 60 62 60 2 0
3 -27 3 -60z m2552 -532 c25 -15 57 -45 70 -65 l23 -38 3 -598 3 -598 -28 7
c-15 4 -77 21 -138 38 l-110 32 -5 134 c-6 154 -20 198 -85 262 -66 66 -113
82 -252 86 l-123 4 0 378 c0 207 3 380 7 384 4 4 138 6 298 4 l290 -3 47 -27z
m-385 -894 c59 -44 73 -78 73 -180 0 -52 -3 -94 -6 -94 -12 0 -258 121 -305
150 -60 36 -97 38 -148 6 -194 -123 -521 -244 -811 -301 -86 -16 -128 -29
-137 -41 -16 -23 -18 -86 -18 -734 l0 -525 -555 0 c-305 0 -567 3 -582 7 -38
11 -88 57 -104 95 -11 26 -14 170 -14 771 l0 738 23 44 c14 30 36 53 62 67
l40 23 1227 -3 1227 -2 28 -21z m-196 -293 c202 -104 456 -195 672 -239 55
-11 102 -24 105 -27 4 -4 6 -278 4 -608 -4 -658 -4 -664 -63 -786 -53 -107
-122 -165 -491 -414 -186 -125 -342 -227 -348 -227 -5 0 -168 106 -360 236
-260 175 -364 251 -401 293 -58 65 -113 172 -127 251 -12 63 -27 1191 -17
1232 6 24 15 28 83 43 237 50 465 129 667 231 77 39 145 72 151 73 5 0 62 -26
125 -58z"/>
<path d="M1457 4019 c-32 -25 -35 -61 -7 -89 20 -20 33 -20 733 -20 555 0 717
3 730 13 27 20 31 60 9 88 l-20 24 -710 3 c-706 2 -709 2 -735 -19z"/>
<path d="M1450 3610 c-25 -25 -25 -51 -1 -81 l19 -24 717 0 717 0 19 24 c23
28 19 68 -8 89 -13 9 -175 12 -730 12 -700 0 -713 0 -733 -20z"/>
<path d="M3185 2541 c-84 -22 -154 -80 -196 -161 -20 -39 -24 -64 -27 -181
l-4 -137 -40 -5 c-55 -7 -113 -49 -140 -100 -23 -41 -23 -47 -23 -392 l0 -350
27 -47 c15 -25 45 -57 65 -70 l38 -23 366 0 366 0 40 28 c22 15 49 45 61 66
21 38 22 48 22 395 0 338 -1 359 -20 396 -25 48 -84 90 -138 97 l-40 5 -4 137
c-4 123 -7 141 -30 186 -49 94 -135 152 -235 160 -32 2 -71 1 -88 -4z m153
-148 c60 -45 67 -64 70 -204 l4 -129 -161 0 -161 0 0 114 c0 63 5 127 11 143
14 37 47 72 84 89 40 19 119 12 153 -13z m248 -471 c31 -20 34 -55 34 -360 0
-298 -1 -310 -21 -336 l-20 -26 -329 0 -329 0 -20 26 c-20 26 -21 38 -21 336
0 305 3 340 34 360 6 4 157 8 336 8 179 0 330 -4 336 -8z"/>
</g>
</svg>
