<?xml version="1.0" standalone="no"?>
<!DOCTYPE svg PUBLIC "-//W3C//DTD SVG 20010904//EN"
 "http://www.w3.org/TR/2001/REC-SVG-20010904/DTD/svg10.dtd">
<svg version="1.0" xmlns="http://www.w3.org/2000/svg"
 width="512.000000pt" height="512.000000pt" viewBox="0 0 512.000000 512.000000"
 preserveAspectRatio="xMidYMid meet">

<g transform="translate(0.000000,512.000000) scale(0.100000,-0.100000)"
fill="#000000" stroke="none">
<path d="M2377 4172 c-22 -25 -21 -75 1 -95 17 -16 90 -17 848 -17 561 0 842
-4 869 -11 63 -17 112 -56 140 -112 l25 -51 0 -803 0 -803 -50 0 c-37 0 -55
-5 -70 -20 -37 -37 -26 -69 65 -189 80 -103 88 -111 120 -111 42 0 51 9 144
133 45 60 71 103 71 120 0 37 -42 67 -96 67 l-43 0 -3 818 c-3 621 -7 826 -16
854 -20 58 -73 129 -127 170 -93 71 -53 68 -1005 68 -817 0 -858 -1 -873 -18z"/>
<path d="M2010 3435 l0 -155 860 0 860 0 0 120 c0 125 -11 171 -45 184 -9 3
-390 6 -846 6 l-829 0 0 -155z m1495 55 c26 -29 24 -79 -4 -102 -22 -17 -49
-18 -406 -18 -350 0 -385 1 -404 18 -28 22 -31 75 -6 102 18 19 31 20 410 20
380 0 392 -1 410 -20z"/>
<path d="M2001 3107 c-12 -34 -59 -86 -98 -106 -15 -7 -132 -11 -367 -11
l-346 0 0 -815 0 -816 25 -24 24 -25 976 0 975 0 0 236 c0 138 5 253 11 279
14 55 70 122 123 146 35 16 68 19 224 19 l182 0 0 575 0 575 -859 0 -859 0
-11 -33z m582 -152 c261 -68 459 -250 543 -500 35 -105 44 -282 20 -395 -53
-252 -251 -472 -497 -554 -414 -138 -850 95 -971 520 -28 101 -31 275 -5 374
23 88 96 233 151 300 182 220 492 325 759 255z"/>
<path d="M2336 2799 c-34 -29 -106 -156 -106 -185 0 -11 35 -14 181 -14 l180
0 -7 23 c-9 29 -48 104 -72 141 -49 71 -119 85 -176 35z"/>
<path d="M2105 2753 c-55 -29 -171 -133 -197 -177 -5 -9 12 -10 74 -2 54 7 83
16 88 26 9 18 68 170 66 170 0 -1 -14 -8 -31 -17z"/>
<path d="M2681 2764 c2 -5 18 -46 34 -91 17 -46 35 -85 41 -87 7 -3 45 -8 85
-12 l73 -7 -33 42 c-19 23 -53 58 -76 77 -47 40 -130 91 -124 78z"/>
<path d="M2183 2433 c-5 -16 -8 -117 -8 -225 0 -148 3 -200 13 -210 10 -10 64
-13 222 -13 114 0 211 3 215 7 4 3 12 56 18 117 10 107 0 312 -18 340 -4 7
-78 11 -220 11 l-215 0 -7 -27z"/>
<path d="M1925 2424 c-44 -8 -85 -16 -91 -18 -32 -12 -46 -246 -20 -331 11
-39 13 -40 76 -51 36 -6 85 -14 108 -17 l44 -5 -6 34 c-9 45 -9 324 0 369 7
41 10 41 -111 19z"/>
<path d="M2785 2221 l0 -219 35 5 c149 23 165 28 178 57 20 40 25 208 10 281
l-13 60 -65 11 c-36 6 -83 14 -105 17 l-40 6 0 -218z"/>
<path d="M1918 1852 c31 -43 132 -134 179 -159 l40 -22 -35 93 -35 94 -66 7
c-36 3 -75 9 -85 12 -18 5 -18 3 2 -25z"/>
<path d="M2822 1866 l-74 -11 -34 -90 c-18 -49 -34 -91 -34 -92 0 -2 24 12 53
29 77 47 208 183 170 177 -5 -1 -41 -7 -81 -13z"/>
<path d="M2246 1783 c74 -168 150 -213 234 -137 34 31 110 161 110 188 0 3
-83 6 -185 6 l-185 0 26 -57z"/>
<path d="M558 2758 c-98 -117 -138 -176 -138 -206 0 -43 27 -62 88 -62 l52 0
0 -728 c0 -812 -1 -801 68 -901 20 -30 59 -69 85 -88 97 -66 51 -63 1114 -63
950 0 963 0 983 20 29 29 26 74 -6 99 -27 21 -31 21 -983 21 -903 0 -958 1
-996 19 -51 23 -101 79 -114 128 -7 25 -11 289 -11 766 l0 727 53 0 c40 0 58
5 70 18 31 34 21 70 -45 156 -130 171 -149 179 -220 94z"/>
</g>
</svg>
