<?xml version="1.0" standalone="no"?>
<!DOCTYPE svg PUBLIC "-//W3C//DTD SVG 20010904//EN"
 "http://www.w3.org/TR/2001/REC-SVG-20010904/DTD/svg10.dtd">
<svg version="1.0" xmlns="http://www.w3.org/2000/svg"
 width="512.000000pt" height="512.000000pt" viewBox="0 0 512.000000 512.000000"
 preserveAspectRatio="xMidYMid meet">

<g transform="translate(0.000000,512.000000) scale(0.100000,-0.100000)"
fill="#000000" stroke="none">
<path d="M3141 5109 c-107 -21 -203 -103 -238 -202 -17 -50 -18 -153 -18
-2347 0 -2194 1 -2297 18 -2347 61 -175 272 -257 442 -172 29 15 215 194 568
548 498 499 526 529 542 581 41 125 14 242 -74 331 -92 92 -96 92 -508 97
l-353 3 -2 1632 c-3 1866 7 1684 -97 1788 -76 76 -179 109 -280 88z"/>
</g>
</svg>
