<?xml version="1.0" standalone="no"?>
<!DOCTYPE svg PUBLIC "-//W3C//DTD SVG 20010904//EN"
 "http://www.w3.org/TR/2001/REC-SVG-20010904/DTD/svg10.dtd">
<svg version="1.0" xmlns="http://www.w3.org/2000/svg"
 width="512.000000pt" height="512.000000pt" viewBox="0 0 512.000000 512.000000"
 preserveAspectRatio="xMidYMid meet">

<g transform="translate(0.000000,512.000000) scale(0.100000,-0.100000)"
fill="#000000" stroke="none">
<path d="M1362 5064 c-103 -27 -188 -114 -211 -214 -16 -71 -15 -2071 2 -2092
20 -27 52 -30 78 -9 l24 19 5 1039 5 1038 22 35 c12 20 40 46 61 58 l40 22
1716 0 c1435 0 1722 -2 1749 -14 39 -16 82 -61 96 -99 8 -20 11 -557 11 -1746
l0 -1717 -26 -41 c-15 -22 -41 -49 -58 -59 -30 -18 -78 -19 -1234 -24 -1177
-5 -1204 -5 -1218 -24 -19 -27 -18 -52 6 -76 20 -20 33 -20 1198 -20 774 0
1192 4 1222 11 62 14 130 60 168 113 66 91 63 -14 60 1872 l-3 1709 -23 51
c-29 64 -92 126 -157 156 l-50 23 -1715 2 c-1468 2 -1723 0 -1768 -13z"/>
<path d="M1598 4629 c-17 -9 -18 -38 -18 -374 0 -350 1 -365 19 -375 29 -15
56 -12 74 8 15 16 17 54 17 330 l0 312 313 0 c291 0 315 1 330 18 22 24 21 55
-1 75 -17 15 -57 17 -368 17 -218 0 -356 -4 -366 -11z"/>
<path d="M4160 4421 c-129 -37 -245 -70 -257 -75 -44 -14 -38 -87 7 -101 11
-3 84 12 165 34 80 23 149 41 153 41 3 0 -271 -278 -611 -618 -444 -445 -617
-624 -617 -640 0 -23 32 -62 51 -62 6 0 20 5 32 11 12 6 295 284 630 618 334
333 607 603 607 599 0 -4 -18 -73 -41 -154 -33 -118 -39 -151 -30 -170 15 -33
57 -42 82 -18 20 21 159 503 159 553 0 68 -34 66 -330 -18z"/>
<path d="M2347 3572 c-14 -15 -17 -40 -17 -123 0 -114 6 -129 51 -129 50 0 59
21 59 131 0 86 -3 102 -20 119 -25 25 -52 26 -73 2z"/>
<path d="M1911 3451 c-18 -32 -13 -48 35 -132 53 -92 80 -111 119 -85 36 24
32 52 -23 148 -45 78 -50 83 -84 86 -28 2 -39 -1 -47 -17z"/>
<path d="M2768 3453 c-9 -10 -34 -52 -57 -94 -35 -64 -40 -81 -32 -102 11 -28
41 -42 70 -32 17 5 97 130 115 179 18 49 -61 89 -96 49z"/>
<path d="M2225 3181 c-185 -53 -327 -190 -391 -376 -24 -68 -28 -96 -28 -185
1 -135 25 -208 124 -366 116 -186 130 -217 130 -302 0 -78 16 -124 50 -142 17
-9 20 -21 20 -75 0 -60 3 -68 34 -103 l34 -37 174 -3 c160 -2 176 -1 206 18
40 25 62 73 62 138 0 37 5 54 21 68 37 33 49 70 49 145 0 83 15 118 126 295
89 142 115 213 121 334 9 180 -42 316 -167 440 -80 80 -162 129 -260 155 -75
20 -229 18 -305 -4z m268 -106 c223 -58 374 -267 354 -491 -8 -87 -36 -153
-126 -297 -43 -70 -84 -140 -91 -157 -11 -27 -17 -30 -56 -30 l-44 0 0 175 0
175 43 0 c82 0 147 66 147 150 0 188 -281 204 -300 17 -5 -50 -6 -52 -37 -55
-32 -3 -33 -2 -33 35 0 86 -67 153 -153 153 -64 0 -109 -28 -136 -84 -26 -53
-26 -79 -1 -132 26 -53 61 -77 125 -84 l50 -5 3 -172 2 -173 -45 0 c-42 0 -46
2 -66 43 -12 23 -51 88 -86 144 -110 177 -118 199 -118 338 0 118 1 121 37
195 100 205 320 310 531 255z m-263 -454 c5 -11 10 -29 10 -40 0 -16 -6 -21
-28 -21 -34 0 -52 16 -52 46 0 36 52 47 70 15z m374 -3 c16 -26 -4 -52 -43
-56 -28 -3 -31 -1 -31 25 0 51 49 71 74 31z m-189 -343 l0 -170 -32 -3 -33 -3
0 176 0 176 33 -3 32 -3 0 -170z m183 -332 l-3 -38 -212 -3 -213 -2 0 40 0 40
216 0 215 0 -3 -37z m-78 -198 l0 -46 -137 3 -138 3 -3 28 c-7 56 -4 57 143
57 l135 0 0 -45z"/>
<path d="M1606 3147 c-12 -9 -17 -23 -14 -47 3 -31 10 -38 86 -82 96 -55 124
-59 148 -23 26 39 7 66 -85 119 -85 49 -106 54 -135 33z"/>
<path d="M1099 2460 c-223 -35 -426 -204 -500 -415 -79 -226 -30 -466 134
-651 32 -36 44 -55 35 -58 -7 -3 -51 -17 -98 -31 -304 -95 -519 -282 -597
-519 -26 -79 -27 -87 -31 -388 l-4 -307 26 -25 25 -26 1108 0 c987 0 1111 2
1131 16 22 15 22 16 22 322 0 349 -4 374 -72 511 -46 92 -151 209 -242 271
-78 52 -213 116 -323 150 l-103 33 60 63 c65 70 129 190 151 284 16 71 16 209
0 280 -7 30 -31 93 -53 140 -74 156 -238 291 -405 334 -78 20 -192 27 -264 16z
m236 -125 c88 -23 152 -62 231 -140 104 -103 154 -221 154 -365 0 -144 -50
-262 -154 -365 -113 -112 -216 -155 -371 -155 -138 0 -263 51 -360 146 -169
167 -206 414 -92 627 60 114 191 217 318 251 72 19 201 20 274 1z m-335 -1109
c142 -45 285 -43 418 6 49 18 56 19 128 4 310 -64 549 -220 642 -418 46 -96
52 -147 52 -413 l0 -245 -1040 0 -1040 0 0 258 c0 182 4 272 14 307 63 236
281 409 631 501 112 29 105 29 195 0z"/>
<path d="M4547 2332 c-15 -16 -17 -54 -17 -330 l0 -312 -313 0 c-291 0 -315
-1 -330 -18 -21 -23 -22 -56 -1 -76 13 -14 61 -16 374 -16 345 0 360 1 370 19
6 13 10 147 10 369 0 325 -1 350 -18 365 -24 22 -55 21 -75 -1z"/>
</g>
</svg>
