<?xml version="1.0" encoding="UTF-8"?>
<svg xmlns="http://www.w3.org/2000/svg" version="1.1" xmlns:xlink="http://www.w3.org/1999/xlink" viewBox="0 0 144 144">
  <defs>
    <style>
      .cls-1 {
        isolation: isolate;
      }

      .cls-2 {
        fill: #dee1ec;
      }

      .cls-3 {
        fill: #a9afc4;
      }

      .cls-4 {
        fill: #df107b;
      }

      .cls-5 {
        fill: #f5f5f5;
      }

      .cls-6 {
        fill: #5e6175;
      }

      .cls-7 {
        fill: url(#linear-gradient);
        mix-blend-mode: multiply;
      }
    </style>
    <linearGradient id="linear-gradient" x1="27.1" y1="92.8" x2="54.8" y2="92.8" gradientUnits="userSpaceOnUse">
      <stop offset="0" stop-color="#cacfdd"/>
      <stop offset="1" stop-color="#eef0f1"/>
    </linearGradient>
  </defs>
  <!-- Generator: Adobe Illustrator 28.7.1, SVG Export Plug-In . SVG Version: 1.2.0 Build 142)  -->
  <g class="cls-1">
    <g id="Layer_1">
      <g>
        <path class="cls-3" d="M116.4,48.2H27.1v-10.9c0-2.1,1.7-3.9,3.9-3.9h81.5c2.1,0,3.9,1.7,3.9,3.9v10.9Z"/>
        <path class="cls-6" d="M117.2,49H26.4v-11.6c0-2.6,2.1-4.6,4.6-4.6h81.5c2.6,0,4.6,2.1,4.6,4.6v11.6ZM27.9,47.4h87.7v-10.1c0-1.7-1.4-3.1-3.1-3.1H31c-1.7,0-3.1,1.4-3.1,3.1v10.1Z"/>
        <path class="cls-5" d="M112.5,103.6H31c-2.1,0-3.9-1.7-3.9-3.9v-51.6h89.3v51.6c0,2.1-1.7,3.9-3.9,3.9Z"/>
        <path class="cls-6" d="M42.8,39.1c-1.4,0-2.5-1.1-2.5-2.5v-7.6c0-1.4,1.1-2.5,2.5-2.5,1.4,0,2.5,1.1,2.5,2.5v7.6c0,1.4-1.1,2.5-2.5,2.5Z"/>
        <path class="cls-6" d="M71.8,39.1c-1.4,0-2.5-1.1-2.5-2.5v-7.6c0-1.4,1.1-2.5,2.5-2.5s2.5,1.1,2.5,2.5v7.6c0,1.4-1.1,2.5-2.5,2.5Z"/>
        <path class="cls-6" d="M100.7,39.1c-1.4,0-2.5-1.1-2.5-2.5v-7.6c0-1.4,1.1-2.5,2.5-2.5s2.5,1.1,2.5,2.5v7.6c0,1.4-1.1,2.5-2.5,2.5Z"/>
        <path class="cls-5" d="M45,103.6h-14c-2.1,0-3.9-1.7-3.9-3.9v-51.6h17.9v55.4Z"/>
        <rect class="cls-5" x="45" y="48.2" width="17.9" height="55.4"/>
        <rect class="cls-5" x="62.8" y="48.2" width="17.9" height="55.4"/>
        <rect class="cls-5" x="80.7" y="48.2" width="17.9" height="55.4"/>
        <path class="cls-5" d="M112.5,103.6h-14v-55.4h17.9v51.6c0,2.1-1.7,3.9-3.9,3.9Z"/>
        <path class="cls-6" d="M45.8,104.4h-14.8c-2.6,0-4.6-2.1-4.6-4.6v-52.3h19.4v57ZM27.9,49v50.8c0,1.7,1.4,3.1,3.1,3.1h13.2v-53.9h-16.3Z"/>
        <path class="cls-6" d="M63.6,104.4h-19.4v-57h19.4v57ZM45.8,102.9h16.3v-53.9h-16.3v53.9Z"/>
        <path class="cls-6" d="M81.5,104.4h-19.4v-57h19.4v57ZM63.6,102.9h16.3v-53.9h-16.3v53.9Z"/>
        <path class="cls-6" d="M99.3,104.4h-19.4v-57h19.4v57ZM81.5,102.9h16.3v-53.9h-16.3v53.9Z"/>
        <path class="cls-6" d="M112.5,104.4h-14.8v-57h19.4v52.3c0,2.6-2.1,4.6-4.6,4.6ZM99.3,102.9h13.2c1.7,0,3.1-1.4,3.1-3.1v-50.8h-16.3v53.9Z"/>
        <rect class="cls-2" x="45" y="63.5" width="43.7" height="4.4"/>
        <rect class="cls-4" x="62.8" y="76.5" width="44.6" height="4.4"/>
        <rect class="cls-3" x="55.7" y="89.5" width="25" height="4.4"/>
        <path class="cls-6" d="M89.5,68.7h-45.3v-6h45.3v6ZM45.8,67.2h42.2v-2.9h-42.2v2.9Z"/>
        <path class="cls-6" d="M108.2,81.7h-46.2v-6h46.2v6ZM63.6,80.2h43.1v-2.9h-43.1v2.9Z"/>
        <path class="cls-6" d="M81.5,94.7h-26.5v-6h26.5v6ZM56.5,93.2h23.5v-2.9h-23.5v2.9Z"/>
        <polygon class="cls-4" points="91.4 86.6 88.8 90.1 85.3 90.1 85.3 114.4 128.8 114.4 128.8 90.1 93.9 90.1 91.4 86.6"/>
        <path class="cls-7" d="M54.8,103.6h-23.9c-2.1,0-3.9-1.7-3.9-3.9v-16.9c13.8-4.1,27.7,6.3,27.7,20.7Z"/>
        <circle class="cls-5" cx="33.2" cy="103.6" r="17.3"/>
        <path class="cls-6" d="M33.2,121.7c-10,0-18.1-8.1-18.1-18.1s8.1-18.1,18.1-18.1,18.1,8.1,18.1,18.1-8.1,18.1-18.1,18.1ZM33.2,87.1c-9.1,0-16.5,7.4-16.5,16.5s7.4,16.5,16.5,16.5,16.5-7.4,16.5-16.5-7.4-16.5-16.5-16.5Z"/>
        <g>
          <rect class="cls-6" x="118.5" y="27.7" width="5.3" height="1.5" transform="translate(15.3 94) rotate(-45)"/>
          <rect class="cls-6" x="114.1" y="22.3" width="1.5" height="5.3"/>
          <rect class="cls-6" x="122.2" y="33.6" width="5.3" height="1.5"/>
        </g>
        <path class="cls-6" d="M117.2,56.2H26.4v-8.7h90.8v8.7ZM27.9,54.6h87.7v-5.6H27.9v5.6Z"/>
        <rect class="cls-5" x="93.8" y="95.8" width="26.5" height="3.7"/>
        <rect class="cls-5" x="93.8" y="104.9" width="14.7" height="3.7"/>
        <circle class="cls-4" cx="33.2" cy="103.6" r="10.5"/>
        <polygon class="cls-5" points="30.7 107.7 29.2 106.2 32.2 103.2 32.2 96.8 34.3 96.8 34.3 104.1 30.7 107.7"/>
        <path class="cls-6" d="M58.1,121.7c-.6,0-1.2-.2-1.8-.6h0c-1.5-1-1.8-3-.8-4.4,1.6-2.3,5.2-1.6,5.8,1.2.4,2-1.1,3.8-3.1,3.8ZM57.2,119.9c1.2.8,2.8-.2,2.5-1.7-.3-1.4-2.2-1.8-3-.6-.5.8-.3,1.8.4,2.3h0Z"/>
        <path class="cls-6" d="M70.3,112.3c-.4-2.1,2-3.8,3.8-2.5,1.1.8,1.4,2.3.7,3.4-1.2,1.8-4.1,1.2-4.5-.9ZM72.7,110.9c-.9,0-1.3,1.2-.5,1.7h0c.7.5,1.6-.1,1.4-.9s-.5-.8-.9-.8Z"/>
        <path class="cls-3" d="M128.7,86.6h-1.5v-1.5h1.5v1.5ZM128.7,82.5h-1.5v-1.5h1.5v1.5ZM128.7,78.4h-1.5v-1.5h1.5v1.5ZM128.7,74.3h-1.5c0-1,0-1.1,0-1.5h1.5c0,.3,0,.5,0,1.5ZM126.6,70.6c-.2-.4-.4-.8-.7-1.2l1.3-.9c.3.5.6,1,.8,1.5l-1.4.6ZM124.3,67.8c-.4-.3-.8-.5-1.2-.7l.6-1.4c.5.2,1,.5,1.5.8l-.9,1.3ZM120.9,66.5c-.4,0-.6,0-1.5,0v-1.5c.9,0,1.2,0,1.6,0v1.5Z"/>
        <path class="cls-3" d="M112.6,66.5h-1.5v-1.5h1.5v1.5ZM108.5,66.5h-1.5v-1.5h1.5v1.5ZM104.4,66.5h-1.5v-1.5h1.5v1.5Z"/>
        <rect class="cls-3" x="93.9" y="65" width="1.5" height="1.5"/>
      </g>
    </g>
  </g>
</svg>