<?xml version="1.0" encoding="UTF-8"?>
<svg xmlns="http://www.w3.org/2000/svg" version="1.1" xmlns:xlink="http://www.w3.org/1999/xlink" viewBox="0 0 144 144">
  <defs>
    <style>
      .cls-1 {
        fill: url(#linear-gradient-2);
      }

      .cls-1, .cls-2, .cls-3 {
        mix-blend-mode: multiply;
      }

      .cls-4 {
        isolation: isolate;
      }

      .cls-5 {
        fill: #dee1ec;
      }

      .cls-6 {
        fill: #a9afc4;
      }

      .cls-7 {
        fill: #df107b;
      }

      .cls-2 {
        fill: url(#linear-gradient-3);
      }

      .cls-8 {
        fill: #f5f5f5;
      }

      .cls-9 {
        fill: #5e6175;
      }

      .cls-3 {
        fill: url(#linear-gradient);
      }
    </style>
    <linearGradient id="linear-gradient" x1="31.8" y1="84.4" x2="120.6" y2="84.4" gradientUnits="userSpaceOnUse">
      <stop offset="0" stop-color="#cacfdd"/>
      <stop offset="1" stop-color="#eef0f1"/>
    </linearGradient>
    <linearGradient id="linear-gradient-2" y1="111.1" y2="111.1" xlink:href="#linear-gradient"/>
    <linearGradient id="linear-gradient-3" x1="31.8" y1="50.1" y2="50.1" xlink:href="#linear-gradient"/>
  </defs>
  <!-- Generator: Adobe Illustrator 28.7.1, SVG Export Plug-In . SVG Version: 1.2.0 Build 142)  -->
  <g class="cls-4">
    <g id="Layer_1">
      <g>
        <path class="cls-5" d="M37.8,90.2h76.7c3.3,0,6,2.7,6,6v14.7c0,3.3-2.7,6-6,6H37.8c-3.3,0-6-2.7-6-6v-14.7c0-3.3,2.7-6,6-6Z"/>
        <rect class="cls-5" x="31.8" y="63.5" width="88.8" height="26.7" rx="6" ry="6"/>
        <rect class="cls-7" x="40.2" y="71.5" width="7" height="4.3"/>
        <rect class="cls-7" x="53" y="71.5" width="7" height="4.3"/>
        <rect class="cls-7" x="66" y="71.5" width="7" height="4.3"/>
        <path class="cls-6" d="M120.6,69.5v14.7c0,3.3-2.7,6-6,6h-19.4v-26.7h19.4c3.3,0,6,2.7,6,6Z"/>
        <path class="cls-6" d="M120.6,96.2v14.7c0,3.3-2.7,6-6,6h-19.4v-26.7h19.4c3.3,0,6,2.7,6,6Z"/>
        <path class="cls-9" d="M114.6,90.9h-20.2v-28.2h20.2c3.7,0,6.8,3,6.8,6.8v14.7c0,3.7-3,6.8-6.8,6.8ZM96,89.4h18.6c2.9,0,5.2-2.4,5.2-5.2v-14.7c0-2.9-2.4-5.2-5.2-5.2h-18.6v25.1Z"/>
        <path class="cls-9" d="M114.6,117.6h-20.2v-28.2h20.2c3.7,0,6.8,3,6.8,6.8v14.7c0,3.7-3,6.8-6.8,6.8ZM96,116.1h18.6c2.9,0,5.2-2.3,5.2-5.2v-14.7c0-2.9-2.4-5.2-5.2-5.2h-18.6v25.1Z"/>
        <circle class="cls-8" cx="107.9" cy="76.8" r="5"/>
        <circle class="cls-8" cx="107.9" cy="103.6" r="5"/>
        <path class="cls-9" d="M47.9,123.9h-6c-1.3,0-2.4-1.1-2.4-2.4v-4.6h10.9v4.6c0,1.3-1.1,2.4-2.4,2.4Z"/>
        <path class="cls-9" d="M111.3,123.9h-6c-1.3,0-2.4-1.1-2.4-2.4v-4.6h10.9v4.6c0,1.3-1.1,2.4-2.4,2.4Z"/>
        <rect class="cls-9" x="39.1" y="80.7" width="48.8" height="1.6"/>
        <rect class="cls-7" x="40.2" y="98" width="7" height="4.3"/>
        <rect class="cls-7" x="53" y="98" width="7" height="4.3"/>
        <rect class="cls-7" x="66" y="98" width="7" height="4.3"/>
        <rect class="cls-7" x="79.2" y="71.5" width="7" height="4.3"/>
        <rect class="cls-5" x="31.8" y="36.8" width="88.8" height="26.7" rx="6" ry="6"/>
        <path class="cls-5" d="M120.6,42.8v14.7c0,3.3-2.7,6-6,6H37.8c-3.3,0-5.9-2.6-6-5.8,0-.1,0,.9,0-14.9s2.7-6,6-6h76.7c3.3,0,6,2.7,6,6Z"/>
        <path class="cls-3" d="M120.6,78.7v5.4c0,3.3-2.7,6-6,6H37.8c-3.3,0-5.9-2.6-6-5.8,0,0,0,.3,0-5.6,0,3.3,2.7,6,6,6h76.7c3.3,0,6-2.7,6-6Z"/>
        <path class="cls-1" d="M120.6,105.4v5.4c0,3.3-2.7,6-6,6H37.8c-3.3,0-5.9-2.6-6-5.8,0,0,0,.3,0-5.6,0,3.3,2.7,6,6,6h76.7c3.3,0,6-2.7,6-6Z"/>
        <rect class="cls-7" x="53" y="44.8" width="7" height="4.3"/>
        <rect class="cls-7" x="66" y="44.8" width="7" height="4.3"/>
        <path class="cls-6" d="M120.6,42.8v14.7c0,3.3-2.7,6-6,6h-19.4v-26.7h19.4c3.3,0,6,2.7,6,6Z"/>
        <path class="cls-9" d="M114.6,64.2h-20.2v-28.3h20.2c3.7,0,6.8,3,6.8,6.8v14.7c0,3.7-3,6.8-6.8,6.8ZM96,62.7h18.6c2.9,0,5.2-2.4,5.2-5.2v-14.7c0-2.9-2.4-5.2-5.2-5.2h-18.6v25.1Z"/>
        <circle class="cls-8" cx="107.9" cy="50.1" r="5"/>
        <rect class="cls-9" x="44.5" y="54" width="43.5" height="1.6"/>
        <rect class="cls-7" x="79.2" y="44.8" width="7" height="4.3"/>
        <rect class="cls-7" x="79.2" y="98" width="7" height="4.3"/>
        <rect class="cls-9" x="39.1" y="107.2" width="48.8" height="1.6"/>
        <path class="cls-2" d="M114.6,58H37.8c-1,0-1.9-.2-2.7-.6,9.9-1.6,17.6-10.2,17.6-20.6h-14.9c-3.3,0-6,2.7-6,6,0,15.6,0,14.8,0,14.9.1,3.2,2.8,5.8,6,5.8h76.7c3.3,0,6-2.7,6-6v-5.4c0,3.3-2.7,6-6,6Z"/>
        <path class="cls-9" d="M114.6,117.6H37.8c-3.7,0-6.8-3-6.8-6.8v-14.7c0-3.7,3-6.8,6.8-6.8h76.7c3.7,0,6.8,3,6.8,6.8v14.7c0,3.7-3,6.8-6.8,6.8ZM37.8,90.9c-2.9,0-5.2,2.3-5.2,5.2v14.7c0,2.9,2.4,5.2,5.2,5.2h76.7c2.9,0,5.2-2.3,5.2-5.2v-14.7c0-2.9-2.4-5.2-5.2-5.2H37.8Z"/>
        <path class="cls-9" d="M114.6,90.9H37.8c-3.7,0-6.8-3-6.8-6.8v-14.7c0-3.7,3-6.8,6.8-6.8h76.7c3.7,0,6.8,3,6.8,6.8v14.7c0,3.7-3,6.8-6.8,6.8ZM37.8,64.2c-2.9,0-5.2,2.4-5.2,5.2v14.7c0,2.9,2.4,5.2,5.2,5.2h76.7c2.9,0,5.2-2.4,5.2-5.2v-14.7c0-2.9-2.4-5.2-5.2-5.2H37.8Z"/>
        <path class="cls-9" d="M114.6,64.2H37.8c-3.7,0-6.8-3-6.8-6.8v-14.7c0-3.7,3-6.8,6.8-6.8h76.7c3.7,0,6.8,3,6.8,6.8v14.7c0,3.7-3,6.8-6.8,6.8ZM37.8,37.5c-2.9,0-5.2,2.4-5.2,5.2v14.7c0,2.9,2.4,5.2,5.2,5.2h76.7c2.9,0,5.2-2.4,5.2-5.2v-14.7c0-2.9-2.4-5.2-5.2-5.2H37.8Z"/>
        <circle class="cls-8" cx="31.8" cy="36.8" r="16.8"/>
        <path class="cls-9" d="M31.8,54.3c-9.7,0-17.5-7.9-17.5-17.5s7.9-17.5,17.5-17.5,17.5,7.9,17.5,17.5-7.9,17.5-17.5,17.5ZM31.8,20.8c-8.8,0-16,7.2-16,16s7.2,16,16,16,16-7.2,16-16-7.2-16-16-16Z"/>
        <path class="cls-7" d="M38.8,35.5c-.3,0-.3,0-.3,0,0-3.5-2.8-6.3-6.3-6.3s-5.3,1.9-6,4.5c-2.4-.2-4.4,1.8-4.4,4.1s1.8,4.1,4.1,4.1h12.9c1.7,0,3.2-1.4,3.2-3.2s-1.4-3.2-3.2-3.2Z"/>
        <path class="cls-6" d="M77.4,31.9h-1.6v-1.6h1.6v1.6ZM73.3,31.9h-1.6v-1.6h1.6v1.6ZM69.2,31.9h-1.6v-1.6h1.6v1.6ZM65,31.9h-1.6v-1.6h1.6v1.6ZM60.9,31.9h-1.6v-1.6h1.6v1.6ZM56.6,31.8c-.6-.1-1.1-.3-1.6-.6l.7-1.4c.4.2.8.4,1.3.5l-.3,1.5ZM52.7,29.3c-.4-.5-.7-1-.9-1.5l1.4-.6c.2.4.4.8.7,1.2l-1.2,1ZM50.7,25.6c-.2-.4-.5-.9-.8-1.3l1.3-.9c.3.4.6.9.9,1.4l-1.3.8ZM48.3,22.4c-.6-.7-1-1-1-1l1-1.2s.5.4,1.2,1.2l-1.2,1Z"/>
        <rect class="cls-9" x="22.2" y="123.2" width="98.9" height="1.6"/>
        <rect class="cls-9" x="19.1" y="60.3" width="4.9" height="1.6" transform="translate(-36.9 33.1) rotate(-45)"/>
        <rect class="cls-9" x="26.5" y="61.9" width="1.6" height="4.9"/>
        <rect class="cls-9" x="15.7" y="54.8" width="4.9" height="1.6"/>
        <path class="cls-9" d="M116.4,29.7c-2.4,0-3.8-2.8-2.3-4.8,1.6-2,4.9-1.1,5.2,1.5.2,1.7-1.2,3.3-2.9,3.3ZM116.4,25.4c-.8,0-1.5.7-1.4,1.5h0c.1,1.2,1.7,1.7,2.4.7.7-.9,0-2.2-1.1-2.2Z"/>
        <path class="cls-9" d="M127.4,37.5c-1.9,0-3-2.2-1.8-3.7,1.3-1.6,3.8-.8,4,1.2.2,1.3-.9,2.5-2.3,2.5ZM126.9,34.8c-.4.5,0,1.2.6,1.2.4,0,.7-.4.6-.8,0-.6-.9-.9-1.3-.4Z"/>
      </g>
    </g>
  </g>
</svg>