<?xml version="1.0" encoding="UTF-8"?>
<svg xmlns="http://www.w3.org/2000/svg" version="1.1" xmlns:xlink="http://www.w3.org/1999/xlink" viewBox="0 0 144 144">
  <defs>
    <style>
      .cls-1 {
        isolation: isolate;
      }

      .cls-2 {
        fill: #dee1ec;
      }

      .cls-3 {
        fill: #a9afc4;
      }

      .cls-4 {
        fill: #df107b;
      }

      .cls-5 {
        fill: #f5f5f5;
      }

      .cls-6 {
        fill: #5e6175;
      }

      .cls-7 {
        fill: url(#linear-gradient);
        mix-blend-mode: multiply;
      }
    </style>
    <linearGradient id="linear-gradient" x1="91" y1="44.3" x2="109.9" y2="44.3" gradientUnits="userSpaceOnUse">
      <stop offset="0" stop-color="#cacfdd"/>
      <stop offset="1" stop-color="#eef0f1"/>
    </linearGradient>
  </defs>
  <!-- Generator: Adobe Illustrator 28.7.1, SVG Export Plug-In . SVG Version: 1.2.0 Build 142)  -->
  <g class="cls-1">
    <g id="Layer_1">
      <g>
        <path class="cls-5" d="M109.9,29.5v32.3c0,14-7.3,27.6-19.7,35.2l-15.1,9.2s.2.1-15.1-9.2c-12.1-7.4-19.7-21-19.7-35.2V29.5h11.4c8.6-.1,15.9-2.4,23.4-6.1,6.9,3.9,15,6.1,23.4,6.1h11.4Z"/>
        <path class="cls-3" d="M103.9,94.6l-1.1-1c.3-.3.6-.7.9-1.1l1.1.9c-.3.4-.6.7-1,1.1ZM106.4,91.7l-1.1-.9c.3-.4.6-.8.9-1.1l1.2.9c-.3.4-.6.8-.9,1.2ZM108.7,88.5l-1.2-.8c.3-.4.5-.8.8-1.2l1.2.8c-.3.4-.5.8-.8,1.2ZM110.7,85.1l-1.3-.7c.2-.4.5-.8.7-1.3l1.3.7c-.2.4-.5.9-.7,1.3ZM112.4,81.6l-1.3-.6c.2-.4.4-.9.6-1.3l1.3.6c-.2.5-.4.9-.6,1.3ZM113.9,78l-1.4-.5c.2-.4.3-.9.5-1.3l1.4.5c-.2.5-.3.9-.5,1.4ZM115.1,74.3l-1.4-.4c.1-.5.2-.9.4-1.4l1.4.3c-.1.5-.2,1-.4,1.4ZM116,70.5l-1.4-.3c0-.5.2-.9.2-1.4l1.4.2c0,.5-.2,1-.3,1.4ZM116.6,66.6l-1.4-.2c0-.5,0-.9.1-1.4h1.4c0,.6,0,1.1-.1,1.6ZM116.8,62.7h-1.4c0-.5,0-1,0-1.5h1.4c0,.5,0,1,0,1.5Z"/>
        <path class="cls-2" d="M75.1,30.4c-7.4,3.3-15.3,5.3-23.4,5.3h-5.2v26.1c0,12,6.5,23.6,16.8,29.9l11.8,7.2s11.9-7.3,11.8-7.2c10.3-6.3,16.8-17.9,16.8-29.9v-26.1c-7.4,0-14.6.5-28.6-5.3Z"/>
        <path class="cls-7" d="M109.9,29.5v29.8c-10.4,0-18.9-8.5-18.9-18.9s1.3-7.9,3.5-11c2.7.2,3.2.2,15.4.2Z"/>
        <path class="cls-6" d="M75.1,107.1c-.6-.4,1.6,1-15.5-9.5-12.4-7.6-20.1-21.3-20.1-35.8V28.7h12.1c8.6-.1,15.7-2.3,23.4-6.2,7.5,4.2,15.4,6.2,23.4,6.2h12.1v33c0,10.4-4.1,20.8-11.1,28.5h0c-2.6,2.9-5.6,5.3-8.9,7.3l-15.5,9.5ZM41,30.2v31.6c0,14,7.4,27.3,19.4,34.6l14.7,9,14.7-9c3.2-1.9,6.1-4.3,8.6-7.1h0c6.8-7.4,10.8-17.4,10.8-27.5v-31.6h-10.7c-8.2,0-16.3-2.1-23.4-6-8.2,4-15.4,5.9-23.4,6h-10.7Z"/>
        <g>
          <path class="cls-5" d="M79.7,107.5c3.1,0,5.6-2.5,5.6-5.6s-2.5-5.6-5.6-5.6h-7.2c-2.6,0-5.2-.6-7.5-1.8-4.8-2.5-10.7-2.5-15.6.3l-3,1.7v19.4s23.2,7.3,23.2,7.3c3.5,1,7.3.9,10.8-.2l29.7-10.2c3.3-1.1,5-4.7,3.9-8s-4.5-4.8-7.7-3.8l-20,6.3c-.5.2-1.1.3-1.7.3-39.7,0-.9,0-4.8,0Z"/>
          <path class="cls-6" d="M69.3,123.9l-23.7-7.4v-20.4l3.4-2c5.1-2.9,11.2-3,16.3-.4,2.2,1.1,4.7,1.7,7.2,1.7h7.2c3.5,0,6.4,2.9,6.4,6.4s-.9,3.7-2.3,4.9c.8,0,1.4,0,2.2-.2l20-6.3c3.6-1.1,7.4.8,8.6,4.3,1.3,3.7-.6,7.7-4.3,8.9l-29.7,10.2c-3.5,1.2-7.4,1.4-11.3.2ZM47.1,115.4l22.6,7.1c3.4,1,7,.9,10.4-.2l29.7-10.2c2.9-1,4.5-4.2,3.4-7.1-1-2.8-4-4.3-6.8-3.4l-20,6.3c-.6.2-1.3.3-1.9.3h-17.9v-1.4h13.1c2.7,0,4.9-2.2,4.9-4.9s-2.2-4.9-4.9-4.9h-7.2c-2.7,0-5.4-.7-7.8-1.9-4.7-2.4-10.3-2.3-15,.3l-2.7,1.5v18.5Z"/>
          <rect class="cls-4" x="28.5" y="91.9" width="18.6" height="28.3"/>
          <circle class="cls-5" cx="37.8" cy="99.3" r="2.4"/>
        </g>
        <g>
          <path class="cls-4" d="M69.2,42.2v16.2l1.8,10.1c.3,0,7.7,0,8,0l1.8-10.1v-16.2s-11.7,0-11.7,0Z"/>
          <rect class="cls-4" x="70.7" y="75.7" width="8.8" height="8.8"/>
        </g>
        <circle class="cls-5" cx="109.9" cy="40.3" r="15.1"/>
        <path class="cls-6" d="M109.9,56.1c-8.7,0-15.8-7.1-15.8-15.8s7.1-15.8,15.8-15.8,15.8,7.1,15.8,15.8-7.1,15.8-15.8,15.8ZM109.9,26c-7.9,0-14.3,6.4-14.3,14.3s6.4,14.3,14.3,14.3,14.3-6.4,14.3-14.3-6.4-14.3-14.3-14.3Z"/>
        <path class="cls-4" d="M116.1,40.3c0-1.2.9-2.2,2.1-2.4-.4-1.3-1.1-2.5-2-3.5-.7.9-2.1,1.2-3.1.6-1.1-.6-1.5-1.9-1-3-1.3-.3-2.7-.3-4.1,0,.4,1.1,0,2.4-1,3-1.1.6-2.4.3-3.1-.6-1,1-1.7,2.2-2,3.5,1.2.2,2.1,1.2,2.1,2.4s-.9,2.2-2.1,2.4c.4,1.3,1.1,2.5,2,3.5.7-.9,2.1-1.2,3.1-.6,1.1.6,1.5,1.9,1,3,1.3.3,2.7.3,4.1,0-.4-1.1,0-2.4,1-3,1.1-.6,2.4-.3,3.1.6.9-1,1.7-2.2,2-3.5-1.2-.2-2.1-1.2-2.1-2.4ZM109.5,43.8c-1-.1-2-.7-2.6-1.7-1-1.7-.4-3.8,1.3-4.8,1.7-1,3.8-.4,4.8,1.3,1.5,2.5-.6,5.6-3.5,5.2Z"/>
        <path class="cls-6" d="M21.5,95.4c-1.4,0-2.7-.9-3.1-2.4h0c-.4-1.7.6-3.4,2.3-3.9,1.7-.4,3.4.6,3.9,2.3.5,2-1,4-3.1,4ZM21.5,90.5c-1.1,0-2,1.1-1.7,2.2h0c.1.4.4.8.8,1.1,1.3.8,2.9-.4,2.5-1.9-.2-.8-.9-1.3-1.7-1.3Z"/>
        <path class="cls-6" d="M29.4,84.2c-.9,0-1.8-.6-2-1.6h0c-.3-1.1.4-2.3,1.5-2.6,1.1-.3,2.3.4,2.6,1.5.3,1.3-.7,2.6-2.1,2.6ZM28.7,82.2c0,.4.5.6.8.5.6-.1.7-.9.2-1.2-.5-.3-1.1.2-1,.7h0Z"/>
        <path class="cls-4" d="M24.9,25.2c3.2,0,5.9,2.6,5.9,5.9,0-3.2,2.6-5.9,5.9-5.9-3.2,0-5.9-2.6-5.9-5.9,0,3.2-2.6,5.9-5.9,5.9Z"/>
        <path class="cls-4" d="M118.2,100.2c1.3,0,2.4,1.1,2.4,2.4,0-1.3,1.1-2.4,2.4-2.4-1.3,0-2.4-1.1-2.4-2.4,0,1.3-1.1,2.4-2.4,2.4Z"/>
      </g>
    </g>
  </g>
</svg>