<?xml version="1.0" encoding="UTF-8"?>
<svg xmlns="http://www.w3.org/2000/svg" version="1.1" xmlns:xlink="http://www.w3.org/1999/xlink" viewBox="0 0 144 144">
  <defs>
    <style>
      .cls-1 {
        fill: url(#linear-gradient-2);
      }

      .cls-1, .cls-2, .cls-3, .cls-4, .cls-5, .cls-6, .cls-7, .cls-8 {
        mix-blend-mode: multiply;
      }

      .cls-2 {
        fill: url(#linear-gradient-4);
      }

      .cls-9 {
        isolation: isolate;
      }

      .cls-3 {
        fill: url(#linear-gradient-8);
      }

      .cls-10 {
        fill: #afb3da;
      }

      .cls-4 {
        fill: url(#linear-gradient-5);
      }

      .cls-11 {
        fill: #a9afc4;
      }

      .cls-12 {
        fill: #df107b;
      }

      .cls-5 {
        fill: url(#linear-gradient-3);
      }

      .cls-13 {
        fill: #f5f5f5;
      }

      .cls-14 {
        fill: #5e6175;
      }

      .cls-6 {
        fill: url(#linear-gradient);
      }

      .cls-7 {
        fill: url(#linear-gradient-6);
      }

      .cls-8 {
        fill: url(#linear-gradient-7);
      }
    </style>
    <linearGradient id="linear-gradient" x1="103.1" y1="50.7" x2="103.1" y2="40.1" gradientUnits="userSpaceOnUse">
      <stop offset="0" stop-color="#a9afc4"/>
      <stop offset="1" stop-color="#d4d8e5"/>
    </linearGradient>
    <linearGradient id="linear-gradient-2" x1="119" y1="50.7" x2="119" y2="40.1" xlink:href="#linear-gradient"/>
    <linearGradient id="linear-gradient-3" x1="26.5" y1="98.8" x2="26.5" y2="84.8" xlink:href="#linear-gradient"/>
    <linearGradient id="linear-gradient-4" x1="47.5" y1="98.8" x2="47.5" y2="84.8" xlink:href="#linear-gradient"/>
    <linearGradient id="linear-gradient-5" y1="88.9" y2="78.3" xlink:href="#linear-gradient"/>
    <linearGradient id="linear-gradient-6" x1="119" y1="88.9" x2="119" y2="78.3" xlink:href="#linear-gradient"/>
    <linearGradient id="linear-gradient-7" y1="127.1" y2="116.6" xlink:href="#linear-gradient"/>
    <linearGradient id="linear-gradient-8" x1="119" y1="127.1" x2="119" y2="116.6" xlink:href="#linear-gradient"/>
  </defs>
  <!-- Generator: Adobe Illustrator 28.7.1, SVG Export Plug-In . SVG Version: 1.2.0 Build 142)  -->
  <g class="cls-9">
    <g id="Layer_1">
      <g>
        <path class="cls-14" d="M46.1,50.6c-2.1,0-3.7-1.8-3.5-3.8.2-1.9,1.8-3.4,3.8-3.2,1.9.2,3.4,1.9,3.2,3.8-.1,1.9-1.7,3.2-3.5,3.2ZM46.1,45c-1,0-1.9.8-2,1.9h0c0,1.1.8,2.1,1.9,2.2,1.1,0,2.1-.7,2.2-1.9,0-1.2-.8-2.2-2-2.2Z"/>
        <path class="cls-14" d="M54.7,56.7c.1-1.3,1.2-2.2,2.5-2.1,2,.2,2.9,2.7,1.3,4.1-1.6,1.3-4,.1-3.8-2ZM57,56c-.4,0-.8.3-.8.8h0c0,.5.3.9.8.9.5,0,.9-.3.9-.8,0-.5-.3-.9-.8-.9Z"/>
        <path class="cls-12" d="M37.4,113c4.7,0,8.5,3.8,8.5,8.5,0-4.7,3.8-8.5,8.5-8.5-4.7,0-8.5-3.8-8.5-8.5,0,4.7-3.8,8.5-8.5,8.5Z"/>
        <path class="cls-12" d="M90.9,26.2c1.6,0,2.9,1.3,2.9,2.9,0-1.6,1.3-2.9,2.9-2.9-1.6,0-2.9-1.3-2.9-2.9,0,1.6-1.3,2.9-2.9,2.9Z"/>
        <g>
          <path class="cls-10" d="M97.9,50.3v-8.2c0-4.9,3.9-8.8,8.8-8.8h8.8c4.9,0,8.8,3.9,8.8,8.8v8.2h-26.4Z"/>
          <path class="cls-13" d="M111.1,33.3c-3.7,0-6.7-3-6.7-6.7v-1.6c0-3.7,3-6.7,6.7-6.7,3.7,0,6.7,3,6.7,6.7v1.6c0,3.7-3,6.7-6.7,6.7Z"/>
          <path class="cls-14" d="M111.1,34.1c-4.1,0-7.5-3.4-7.5-7.5v-1.6c0-4.1,3.4-7.5,7.5-7.5s7.5,3.4,7.5,7.5v1.6c0,4.1-3.4,7.5-7.5,7.5ZM111.1,19c-3.3,0-6,2.7-6,6v1.6c0,3.3,2.7,6,6,6s6-2.7,6-6v-1.6c0-3.3-2.7-6-6-6Z"/>
          <path class="cls-6" d="M101.8,50.3v-7.9c.5,0,.9.3,1,.8l1.4,7.1h-2.5Z"/>
          <path class="cls-1" d="M120.3,50.3v-7.9c-.5,0-.9.3-1,.8l-1.4,7.1h2.5Z"/>
          <path class="cls-14" d="M125,51h-27.8v-8.9c0-5.3,4.3-9.5,9.5-9.5h8.8c5.3,0,9.5,4.3,9.5,9.5v8.9ZM98.6,49.6h24.9v-7.4c0-4.4-3.6-8-8-8h-8.8c-4.4,0-8,3.6-8,8v7.4Z"/>
        </g>
        <g>
          <path class="cls-13" d="M19.7,98.2v-10.8c0-6.4,5.2-11.6,11.6-11.6h11.6c6.4,0,11.6,5.2,11.6,11.6v10.8H19.7Z"/>
          <path class="cls-13" d="M37.1,75.9c-4.9,0-8.9-4-8.9-8.9v-2.1c0-4.9,4-8.9,8.9-8.9,4.9,0,8.9,4,8.9,8.9v2.1c0,4.9-4,8.9-8.9,8.9Z"/>
          <path class="cls-14" d="M37.1,76.7c-5.3,0-9.6-4.3-9.6-9.6v-2.1c0-5.3,4.3-9.6,9.6-9.6s9.6,4.3,9.6,9.6v2.1c0,5.3-4.3,9.6-9.6,9.6ZM37.1,56.9c-4.5,0-8.1,3.6-8.1,8.1v2.1c0,4.5,3.6,8.1,8.1,8.1s8.1-3.6,8.1-8.1v-2.1c0-4.5-3.6-8.1-8.1-8.1Z"/>
          <path class="cls-5" d="M24.9,98.2c0-10.7,0-10.4,0-10.4.6,0,1.2.5,1.3,1.1l1.9,9.3h-3.2Z"/>
          <path class="cls-2" d="M49.2,98.2c0-10.7,0-10.4,0-10.4-.6,0-1.2.5-1.3,1.1l-1.9,9.3h3.2Z"/>
          <path class="cls-14" d="M55.2,99H19v-11.5c0-6.8,5.5-12.3,12.3-12.3h11.6c6.8,0,12.3,5.5,12.3,12.3v11.5ZM20.5,97.5h33.2v-10c0-6-4.9-10.8-10.8-10.8h-11.6c-6,0-10.8,4.9-10.8,10.8v10Z"/>
        </g>
        <g>
          <path class="cls-10" d="M97.9,88.5v-8.2c0-4.9,3.9-8.8,8.8-8.8h8.8c4.9,0,8.8,3.9,8.8,8.8v8.2h-26.4Z"/>
          <path class="cls-13" d="M111.1,71.5c-3.7,0-6.7-3-6.7-6.7v-1.6c0-3.7,3-6.7,6.7-6.7,3.7,0,6.7,3,6.7,6.7v1.6c0,3.7-3,6.7-6.7,6.7Z"/>
          <path class="cls-14" d="M111.1,72.3c-4.1,0-7.5-3.4-7.5-7.5v-1.6c0-4.1,3.4-7.5,7.5-7.5s7.5,3.4,7.5,7.5v1.6c0,4.1-3.4,7.5-7.5,7.5ZM111.1,57.2c-3.3,0-6,2.7-6,6v1.6c0,3.3,2.7,6,6,6s6-2.7,6-6v-1.6c0-3.3-2.7-6-6-6Z"/>
          <path class="cls-4" d="M101.8,88.5v-7.9c.5,0,.9.3,1,.8l1.4,7.1h-2.5Z"/>
          <path class="cls-7" d="M120.3,88.5v-7.9c-.5,0-.9.3-1,.8l-1.4,7.1h2.5Z"/>
          <path class="cls-14" d="M125,89.3h-27.8v-8.9c0-5.3,4.3-9.5,9.5-9.5h8.8c5.3,0,9.5,4.3,9.5,9.5v8.9ZM98.6,87.8h24.9v-7.4c0-4.4-3.6-8-8-8h-8.8c-4.4,0-8,3.6-8,8v7.4Z"/>
        </g>
        <g>
          <path class="cls-10" d="M97.9,126.7v-8.2c0-4.9,3.9-8.8,8.8-8.8h8.8c4.9,0,8.8,3.9,8.8,8.8v8.2h-26.4Z"/>
          <path class="cls-13" d="M111.1,109.8c-3.7,0-6.7-3-6.7-6.7v-1.6c0-3.7,3-6.7,6.7-6.7,3.7,0,6.7,3,6.7,6.7v1.6c0,3.7-3,6.7-6.7,6.7Z"/>
          <path class="cls-14" d="M111.1,110.5c-4.1,0-7.5-3.4-7.5-7.5v-1.6c0-4.1,3.4-7.5,7.5-7.5s7.5,3.4,7.5,7.5v1.6c0,4.1-3.4,7.5-7.5,7.5ZM111.1,95.4c-3.3,0-6,2.7-6,6v1.6c0,3.3,2.7,6,6,6s6-2.7,6-6v-1.6c0-3.3-2.7-6-6-6Z"/>
          <path class="cls-8" d="M101.8,126.7v-7.9c.5,0,.9.3,1,.8l1.4,7.1h-2.5Z"/>
          <path class="cls-3" d="M120.3,126.7v-7.9c-.5,0-.9.3-1,.8l-1.4,7.1h2.5Z"/>
          <path class="cls-14" d="M125,127.5h-27.8v-8.9c0-5.3,4.3-9.5,9.5-9.5h8.8c5.3,0,9.5,4.3,9.5,9.5v8.9ZM98.6,126h24.9v-7.4c0-4.4-3.6-8-8-8h-8.8c-4.4,0-8,3.6-8,8v7.4Z"/>
        </g>
        <path class="cls-11" d="M88.9,119.6h-1.5v-1.5h1.5v1.5ZM85,119.6h-1.5v-1.5h1.5v1.5ZM81,119.6c-.6,0-1.1-.1-1.6-.3l.4-1.4c.4.1.8.2,1.3.2v1.5ZM77,118c-.4-.4-.8-.8-1.1-1.2l1.2-.9c.2.4.5.7.9,1l-1,1.1ZM74.8,114.2c-.1-.7-.1-1.1-.1-1.6h1.5c0,.5,0,.8,0,1.3l-1.5.3ZM76.1,110.2h-1.5v-1.5h1.5v1.5ZM76.1,106.2h-1.5v-1.5h1.5v1.5ZM76.1,102.3h-1.5v-1.5h1.5v1.5ZM76.1,98.3h-1.5v-1.5h1.5v1.5ZM76.1,94.4h-1.5v-1.5h1.5v1.5ZM76.1,90.4h-1.5v-1.5h1.5v1.5ZM76.1,86.5h-1.5v-1.5h1.5v1.5ZM76.1,82.5h-1.5v-1.5h1.5v1.5ZM76.1,78.6h-1.5v-1.5h1.5v1.5ZM76.1,74.7h-1.5v-1.5h1.5v1.5ZM76.1,70.7h-1.5v-1.5h1.5v1.5ZM76.1,66.8h-1.5v-1.5h1.5v1.5ZM76.1,62.8h-1.5v-1.5h1.5v1.5ZM76.1,58.9h-1.5v-1.5h1.5v1.5ZM76.1,54.9h-1.5v-1.5h1.5v1.5ZM76.1,51h-1.5v-1.5h1.5v1.5ZM76.1,47h-1.5v-1.5h1.5v1.5ZM76.2,43.2l-1.5-.3c.1-.5.3-1.1.5-1.6l1.3.6c-.2.4-.3.8-.4,1.2ZM77.9,40.3l-1-1.1c.4-.4.9-.7,1.4-.9l.7,1.3c-.4.2-.7.4-1.1.7ZM81,39.1v-1.5c.2,0,.3,0,1.4,0v1.5c-1.3,0-1.3,0-1.4,0ZM90.4,39h-1.5v-1.5h1.5v1.5ZM86.4,39h-1.5v-1.5h1.5v1.5Z"/>
        <path class="cls-11" d="M87.9,78.6h-1.5v-1.5h1.5v1.5ZM84,78.6h-1.5v-1.5h1.5v1.5ZM80.1,78.6h-1.5v-1.5h1.5v1.5ZM76.1,78.6h-1.5v-1.5h1.5v1.5ZM72.2,78.6h-1.5v-1.5h1.5v1.5ZM68.2,78.6h-1.5v-1.5h1.5v1.5ZM64.3,78.6h-1.5v-1.5h1.5v1.5Z"/>
        <g>
          <path class="cls-14" d="M33.9,75.9l1.9,4h2.6l1.9-4h-6.4Z"/>
          <path class="cls-14" d="M38.4,81.4h-2.6l-1.7,13.6,3.1,3.2,3.1-3.2-1.9-13.6Z"/>
        </g>
      </g>
    </g>
  </g>
</svg>