<?xml version="1.0" encoding="UTF-8"?>
<svg xmlns="http://www.w3.org/2000/svg" version="1.1" xmlns:xlink="http://www.w3.org/1999/xlink" viewBox="0 0 144 144">
  <defs>
    <style>
      .cls-1 {
        fill: url(#linear-gradient-2);
      }

      .cls-1, .cls-2, .cls-3 {
        mix-blend-mode: multiply;
      }

      .cls-4 {
        isolation: isolate;
      }

      .cls-5 {
        fill: #dee1ec;
      }

      .cls-6 {
        fill: #a9afc4;
      }

      .cls-7 {
        fill: #df107b;
      }

      .cls-2 {
        fill: url(#linear-gradient-3);
      }

      .cls-8 {
        fill: #f5f5f5;
      }

      .cls-9 {
        fill: #5e6175;
      }

      .cls-3 {
        fill: url(#linear-gradient);
      }
    </style>
    <linearGradient id="linear-gradient" x1="66.9" y1="32.5" x2="66.9" y2="98.5" gradientUnits="userSpaceOnUse">
      <stop offset="0" stop-color="#cacfdd"/>
      <stop offset="1" stop-color="#eef0f1"/>
    </linearGradient>
    <linearGradient id="linear-gradient-2" x1="67.9" y1="98.5" x2="67.9" y2="105.2" xlink:href="#linear-gradient"/>
    <linearGradient id="linear-gradient-3" x1="93.6" y1="94" x2="123.7" y2="94" xlink:href="#linear-gradient"/>
  </defs>
  <!-- Generator: Adobe Illustrator 28.7.1, SVG Export Plug-In . SVG Version: 1.2.0 Build 142)  -->
  <g class="cls-4">
    <g id="Layer_1">
      <g>
        <path class="cls-6" d="M24.4,35.2h86.9c2.1,0,3.8,1.7,3.8,3.8v55.9c0,2.1-1.7,3.8-3.8,3.8H24.4c-2.1,0-3.8-1.7-3.8-3.8v-55.9c0-2.1,1.7-3.8,3.8-3.8Z"/>
        <rect class="cls-8" x="25.3" y="39.8" width="85.1" height="54.3"/>
        <rect class="cls-3" x="33.8" y="35.2" width="66.2" height="58.9"/>
        <path class="cls-6" d="M119.8,106.6H16c-2.2,0-3.9-1.8-3.9-3.9v-3.9h111.7v3.9c0,2.2-1.8,3.9-3.9,3.9Z"/>
        <path class="cls-1" d="M74.4,102.1h-13.1c-.9,0-1.6-.7-1.6-1.6v-1.7h16.2v1.7c0,.9-.7,1.6-1.6,1.6Z"/>
        <path class="cls-2" d="M123.7,98.8v3.9c0,2.2-1.8,3.9-3.9,3.9h-25.9c-2.2-13.1,8-25.2,21.3-25.3v13.6c0,2.1-1.7,3.8-3.8,3.8h12.4Z"/>
        <path class="cls-9" d="M119.8,107.4H16c-2.6,0-4.7-2.1-4.7-4.7v-4.7h113.3v4.7c0,2.6-2.1,4.7-4.7,4.7ZM12.9,99.6v3.1c0,1.7,1.4,3.1,3.1,3.1h103.8c1.7,0,3.1-1.4,3.1-3.1v-3.1H12.9Z"/>
        <path class="cls-9" d="M111.3,99.6H24.4c-2.6,0-4.7-2.1-4.7-4.7v-55.9c0-2.6,2.1-4.7,4.7-4.7h86.9c2.6,0,4.7,2.1,4.7,4.7v55.9c0,2.6-2.1,4.7-4.7,4.7ZM24.4,36.1c-1.7,0-3,1.3-3,3v55.9c0,1.7,1.3,3,3,3h86.9c1.7,0,3-1.3,3-3v-55.9c0-1.7-1.3-3-3-3H24.4Z"/>
        <circle class="cls-8" cx="115.3" cy="103.1" r="17.4"/>
        <path class="cls-9" d="M115.3,121.3c-10.1,0-18.3-8.2-18.3-18.3s8.2-18.3,18.3-18.3,18.3,8.2,18.3,18.3-8.2,18.3-18.3,18.3ZM115.3,86.4c-9.2,0-16.6,7.5-16.6,16.6s7.5,16.6,16.6,16.6,16.6-7.5,16.6-16.6-7.5-16.6-16.6-16.6Z"/>
        <polygon class="cls-7" points="107.5 105.2 115.2 97.4 120.5 102.7 112.7 110.5 106.8 111.1 107.5 105.2"/>
        <path class="cls-7" d="M117.2,95.5l.7-.7c1.5-1.5,3.8-1.5,5.3,0s1.5,3.8,0,5.3l-.7.7-5.3-5.3Z"/>
        <g>
          <rect class="cls-8" x="38.1" y="22.7" width="57.7" height="71.4"/>
          <polygon class="cls-9" points="96.6 94.1 94.9 94.1 94.9 23.5 38.9 23.5 38.9 94.1 37.2 94.1 37.2 21.9 96.6 21.9 96.6 94.1"/>
          <rect class="cls-6" x="50.7" y="49.2" width="32.7" height="3.1"/>
          <rect class="cls-6" x="50.7" y="57.9" width="9.1" height="3.1"/>
          <rect class="cls-6" x="64.3" y="57.9" width="11.7" height="3.1"/>
          <rect class="cls-6" x="50.7" y="66.7" width="32.7" height="3.1"/>
          <rect class="cls-6" x="50.7" y="75.4" width="25.3" height="3.1"/>
          <rect class="cls-6" x="50.7" y="84.1" width="32.7" height="3.1"/>
          <rect class="cls-5" x="50.7" y="33.2" width="32.7" height="9.2"/>
        </g>
        <rect class="cls-9" x="116.8" y="30.9" width="5" height="1.7" transform="translate(12.5 93.6) rotate(-45)"/>
        <rect class="cls-9" x="112.6" y="25.9" width="1.7" height="5"/>
        <rect class="cls-9" x="120.2" y="36.5" width="5" height="1.7"/>
        <path class="cls-6" d="M100.1,122.1c-.5-.3-.9-.7-1.3-1.1l1.1-1.3c.4.3.8.7,1.2,1l-1,1.3ZM96.7,119c-.4-.4-.8-.9-1.1-1.3l1.3-1c.3.4.6.8,1,1.2l-1.2,1.1ZM94.1,115.5c-.3-.4-.7-.7-1.1-.9l.9-1.4c.5.3,1,.7,1.4,1.2l-1.2,1.1ZM90.7,113.7c-.6-.1-1-.1-1.5-.1v-1.7c.6,0,1.1,0,1.8.1l-.3,1.6ZM86.5,113.6h-1.7v-1.7h1.7v1.7ZM82.1,113.6h-1.7v-1.7h1.7v1.7ZM77.7,113.6h-1.7v-1.7h1.7v1.7Z"/>
        <g>
          <path class="cls-9" d="M25.1,30.6c-1.5,0-3-1-3.5-2.5-.6-1.9.5-4,2.4-4.6,1.9-.6,4,.4,4.6,2.4.7,2.3-1,4.8-3.5,4.8ZM25.1,25c-1.4,0-2.3,1.3-1.9,2.6.3,1.1,1.5,1.6,2.5,1.3,1.1-.3,1.6-1.5,1.3-2.5-.3-.9-1.1-1.4-1.9-1.4Z"/>
          <path class="cls-9" d="M12.9,42c-1,0-2-.7-2.4-1.7-.4-1.3.3-2.7,1.6-3.1,1.3-.4,2.7.3,3.1,1.6.5,1.6-.7,3.2-2.4,3.2ZM12.9,38.7c-.9,0-1.1,1.2-.4,1.6.6.3,1.4-.3,1.2-1-.1-.4-.4-.6-.8-.6Z"/>
        </g>
      </g>
    </g>
  </g>
</svg>