<?xml version="1.0" encoding="UTF-8"?>
<svg xmlns="http://www.w3.org/2000/svg" version="1.1" xmlns:xlink="http://www.w3.org/1999/xlink" viewBox="0 0 144 144">
  <defs>
    <style>
      .cls-1 {
        fill: url(#linear-gradient-2);
      }

      .cls-1, .cls-2, .cls-3, .cls-4 {
        mix-blend-mode: multiply;
      }

      .cls-2 {
        fill: url(#linear-gradient-4);
      }

      .cls-5 {
        isolation: isolate;
      }

      .cls-6 {
        fill: #dee1ec;
      }

      .cls-7 {
        fill: #a9afc4;
      }

      .cls-8 {
        fill: #df107b;
      }

      .cls-3 {
        fill: url(#linear-gradient-3);
      }

      .cls-9 {
        fill: #f5f5f5;
      }

      .cls-10 {
        fill: #5e6175;
      }

      .cls-4 {
        fill: url(#linear-gradient);
      }
    </style>
    <linearGradient id="linear-gradient" x1="96.6" y1="97.3" x2="117.6" y2="97.3" gradientUnits="userSpaceOnUse">
      <stop offset="0" stop-color="#cacfdd"/>
      <stop offset="1" stop-color="#eef0f1"/>
    </linearGradient>
    <linearGradient id="linear-gradient-2" x1="1554.3" y1="89.5" x2="1604.1" y2="89.5" gradientTransform="translate(1671.9) rotate(-180) scale(1 -1)" xlink:href="#linear-gradient"/>
    <linearGradient id="linear-gradient-3" x1="15.2" y1="64.5" x2="117.6" y2="64.5" xlink:href="#linear-gradient"/>
    <linearGradient id="linear-gradient-4" x1="15.2" y1="89.5" x2="65.1" y2="89.5" xlink:href="#linear-gradient"/>
  </defs>
  <!-- Generator: Adobe Illustrator 28.7.1, SVG Export Plug-In . SVG Version: 1.2.0 Build 142)  -->
  <g class="cls-5">
    <g id="Layer_1">
      <g>
        <path class="cls-6" d="M117.6,49.2v53.4c0,2.9-2.4,5.2-5.2,5.2H20.5c-1.2,0-2.4-.4-3.4-1.2,96.2-63.2,96.9-63.6,96.9-63.6,2.2,1.2,3.6,3.6,3.6,6.3Z"/>
        <path class="cls-6" d="M117.6,49.2v53.4c0,2.9-2.4,5.2-5.2,5.2H20.5c-1.2,0-2.4-.4-3.4-1.2,0,0,96.9-63.6,96.9-63.6,2.2,1.2,3.6,3.6,3.6,6.3Z"/>
        <path class="cls-4" d="M117.6,86.7v15.9c0,2.9-2.4,5.2-5.2,5.2h-15.8c0-11.5,9.4-21.1,21.1-21.1Z"/>
        <path class="cls-1" d="M67.8,75.1l48,31.5c1.1-.9,1.9-2.4,1.9-4v-.4s-45.8-29.8-45.8-29.8l-4,2.6Z"/>
        <path class="cls-6" d="M65.1,75.1c-1.5,1-.4.3-48,31.5-1.2-1-1.8-2.3-1.9-3.7,0-.2,0,3.6,0-53.6s.8-4,2.6-5.5l47.2,31.4Z"/>
        <path class="cls-3" d="M117.6,49.2v5.5l-44.8,30.5c-3.3,2.3-7.6,2.4-10.9.2S20.5,58.1,15.2,54.7c0-5.8-.2-6.6.7-8.6,1.3-2.6,3.9-4.1,6.5-4.1h87.9c1.3,0,2.5.4,3.6,1,0,0,0,0,0,0,2.1,1.2,3.6,3.6,3.6,6.3Z"/>
        <path class="cls-2" d="M65.1,75.1l-48,31.5c-1.1-.9-1.9-2.4-1.9-4v-.4l45.8-29.8,4,2.6Z"/>
        <path class="cls-10" d="M17.1,107.6l-.5-.4c-1-.8-1.7-1.9-2-3.1-.3-1-.2,3.6-.2-54.9s1-4.6,2.9-6.2l.5-.4,48.8,32.5c-8.5,5.6,2-1.3-49.5,32.5ZM17.9,44.8c-1.2,1.2-1.8,2.8-1.8,4.5,0,43.8,0,53.4,0,53.6,0,.9.4,1.9,1.1,2.7l46.3-30.4-45.6-30.3Z"/>
        <path class="cls-10" d="M112.4,108.6H20.5c-1.4,0-2.8-.5-3.9-1.4l-.9-.7L114,42c.6.4,1.3.7,2.1,1.6,1.4,1.4,2.3,3.4,2.4,5.6,0,.1,0-2.4,0,53.5s-2.8,6-6.1,6ZM18.7,106.6c.6.3,1.2.4,1.8.4h91.9c2.4,0,4.4-2,4.4-4.3v-53.4c0-2.1-1-4.1-2.8-5.3L18.7,106.6Z"/>
        <path class="cls-10" d="M112.4,108.6H20.5c-3.2,0-5.9-2.6-6.1-5.7,0-.2,0,3.6,0-53.7s1-4.6,2.9-6.2c.6-.5,1.1-.8,1.6-1.1l98.3,64.5-.9.7c-1.1.9-2.5,1.4-3.9,1.4ZM18.9,44c-1.8,1.2-2.8,3.2-2.8,5.3,0,55.9,0,53.5,0,53.7.2,2.4,2.3,4,4.4,4h91.9c.6,0,1.2-.1,1.8-.4-54.9-36.1-33.5-22-95.3-62.6Z"/>
        <path class="cls-6" d="M70.2,81.5c48.3-32.8,47.4-32.2,47.4-32.2,0-4-3.2-7.2-7.2-7.2H22.5c-4,0-7.2,3.2-7.2,7.2l49.2,32.4c1.8,1.2,4,1.1,5.8-.1Z"/>
        <path class="cls-6" d="M117.6,49.2s-47.5,32.2-47.4,32.2c-1.7,1.3-4,1.3-5.8.1S15.2,49.2,15.2,49.2c0-4,3.2-7.2,7.2-7.2h87.9c4,0,7.2,3.2,7.2,7.2Z"/>
        <path class="cls-10" d="M64,82.3L14.4,49.7v-.5c0-4.5,3.6-8.1,8.1-8.1h87.9c4.5,0,8.1,3.6,8.1,8.1v.4l-47.8,32.5c-2,1.5-4.7,1.5-6.7.1ZM16.1,48.8l48.8,32.1c1.5,1,3.4.9,4.8-.1,0,0-1.1.7,47.1-32-.2-3.3-3-6-6.4-6H22.5c-3.4,0-6.1,2.6-6.4,5.9Z"/>
        <path class="cls-9" d="M134.2,107.8c0,9.1-7.4,16.5-16.5,16.5s-16.5-7.4-16.5-16.5,7.4-16.5,16.5-16.5,16.5,7.4,16.5,16.5Z"/>
        <path class="cls-10" d="M117.6,125.2c-9.6,0-17.4-7.8-17.4-17.4s7.8-17.4,17.4-17.4,17.4,7.8,17.4,17.4-7.7,17.4-17.4,17.4ZM117.6,92.1c-8.6,0-15.7,7-15.7,15.7s4.9,13.4,11.8,15.2c10,2.5,19.5-5.1,19.5-15.2s-7-15.7-15.7-15.7Z"/>
        <path class="cls-8" d="M117.8,118.8c-9.8-.5-13.5-10.3-9.6-16.7,2.8-4.6,8.9-6.5,13.9-4.3,4,1.7,6.3,6.1,6.3,11.6,0,2.9-2.3,4.8-4.8,4.7s-3.1-.9-4-2.4c-2.5,1.7-5.4,1.1-6.9-.7-1.5-1.8-1.5-4.7,0-6.5,1.8-2.2,5-2.6,7.5-.8h1.4v5.6c0,1.3,1,2.5,2.3,2.5,1.1,0,2.1-.8,2.1-2.4,0-12-11.9-12.2-15.7-6-3,4.9-.3,12.6,7.6,12.9v2.5ZM114.8,106c-.7.9-.7,2.4,0,3.3.7.8,1.9,1.1,2.9.6,1.2-.5,1.4-1,1.4-1.8v-2.2c-1.3-1.2-3.3-1.2-4.4,0Z"/>
        <rect class="cls-10" x="119.5" y="37.5" width="5.3" height="1.7" transform="translate(8.7 97.6) rotate(-45)"/>
        <rect class="cls-10" x="115.1" y="32.1" width="1.7" height="5.3"/>
        <rect class="cls-10" x="123.3" y="43.4" width="5.3" height="1.7"/>
        <path class="cls-7" d="M10.7,65.9h-1.7v-1.7h1.7v1.7ZM10.7,61.4h-1.7v-1.7h1.7v1.7ZM10.7,56.9h-1.7v-1.7h1.7v1.7ZM10.7,52.3h-1.7v-1.7h1.7v1.7ZM10.7,47.9h-1.7c0-.7.1-1.3.3-1.9l1.7.4c-.1.5-.2,1-.2,1.6ZM11.8,43.8l-1.5-.7c.3-.5.5-1.1.9-1.6l1.4.9c-.3.4-.5.9-.8,1.4ZM14.2,40.4l-1.2-1.2c.4-.4.9-.8,1.4-1.2l1,1.4c-.4.3-.8.7-1.2,1ZM17.7,38.1l-.7-1.5c.6-.2,1.1-.5,1.7-.6l.5,1.6c-.5.1-1,.3-1.5.5ZM21.7,37.1v-1.7c.4,0,.7,0,1.6,0v1.7c-.8,0-1.2,0-1.6,0ZM27.9,37.1h-1.7v-1.7h1.7v1.7Z"/>
        <path class="cls-8" d="M79.3,27.5c4.8,0,8.7,3.9,8.7,8.7,0-2.4,1-4.6,2.5-6.1s3.7-2.5,6.1-2.5c-4.8,0-8.7-3.9-8.7-8.7,0,4.8-3.9,8.7-8.7,8.7Z"/>
        <path class="cls-8" d="M21.9,117.3c1.9,0,3.5,1.6,3.5,3.5,0-1.9,1.6-3.5,3.5-3.5-1.9,0-3.5-1.6-3.5-3.5,0,1.9-1.6,3.5-3.5,3.5Z"/>
      </g>
    </g>
  </g>
</svg>