<?xml version="1.0" encoding="UTF-8"?>
<svg xmlns="http://www.w3.org/2000/svg" version="1.1" xmlns:xlink="http://www.w3.org/1999/xlink" viewBox="0 0 144 144">
  <defs>
    <style>
      .cls-1 {
        fill: url(#linear-gradient-2);
      }

      .cls-1, .cls-2, .cls-3 {
        mix-blend-mode: multiply;
      }

      .cls-4 {
        isolation: isolate;
      }

      .cls-5 {
        fill: #dee1ec;
      }

      .cls-6 {
        fill: #a9afc4;
      }

      .cls-7 {
        fill: #df107b;
      }

      .cls-2 {
        fill: url(#linear-gradient-3);
      }

      .cls-8 {
        fill: #f5f5f5;
      }

      .cls-9 {
        fill: #5e6175;
      }

      .cls-3 {
        fill: url(#linear-gradient);
      }
    </style>
    <linearGradient id="linear-gradient" x1="91.5" y1="62.6" x2="101.2" y2="62.6" gradientUnits="userSpaceOnUse">
      <stop offset="0" stop-color="#cacfdd"/>
      <stop offset="1" stop-color="#eef0f1"/>
    </linearGradient>
    <linearGradient id="linear-gradient-2" x1="30.9" y1="103.8" y2="103.8" xlink:href="#linear-gradient"/>
    <linearGradient id="linear-gradient-3" x1="59.7" y1="100.2" x2="128.8" y2="100.2" xlink:href="#linear-gradient"/>
  </defs>
  <!-- Generator: Adobe Illustrator 28.7.1, SVG Export Plug-In . SVG Version: 1.2.0 Build 142)  -->
  <g class="cls-4">
    <g id="Layer_1">
      <g>
        <rect class="cls-8" x="30.9" y="25" width="70.3" height="99"/>
        <path class="cls-3" d="M101.2,44.9v35.4c-5.8-3.7-9.7-10.3-9.7-17.7s3.9-14,9.7-17.7Z"/>
        <path class="cls-1" d="M101.2,83.6v40.5H30.9v-23.5h20.8c2.2,0,3.9-1.7,3.9-3.9v-9.2c0-2.2,1.7-3.9,3.9-3.9h41.7Z"/>
        <rect class="cls-5" x="30.9" y="25" width="70.3" height="17"/>
        <path class="cls-9" d="M102,124.9H30.2V24.2h71.8v100.6ZM31.7,123.3h68.7V25.8H31.7v97.5Z"/>
        <rect class="cls-8" x="59.7" y="87.7" width="69" height="36.3"/>
        <rect class="cls-8" x="20.4" y="104.7" width="31.7" height="19.3"/>
        <rect class="cls-7" x="38.4" y="30.3" width="6.4" height="6.4" rx="1.6" ry="1.6"/>
        <rect class="cls-9" x="51.2" y="30.7" width="44.4" height="1.6"/>
        <rect class="cls-9" x="51.2" y="34.8" width="15.7" height="1.6"/>
        <rect class="cls-5" x="20.4" y="108.1" width="31.7" height="12.6"/>
        <rect class="cls-7" x="26.1" y="111" width="6.4" height="6.4" rx="1.6" ry="1.6"/>
        <rect class="cls-9" x="36.5" y="111.7" width="10.4" height="1.6"/>
        <rect class="cls-9" x="36.5" y="115.8" width="5.2" height="1.6"/>
        <path class="cls-9" d="M52.9,124.9H19.6v-20.9h33.3v20.9ZM21.1,123.3h30.2v-17.8h-30.2v17.8Z"/>
        <rect class="cls-5" x="59.7" y="108.9" width="69" height="11.8"/>
        <rect class="cls-7" x="66.7" y="111.8" width="6.4" height="6.4" rx="1.6" ry="1.6"/>
        <rect class="cls-9" x="78.5" y="112.4" width="7" height="1.6"/>
        <rect class="cls-9" x="78.5" y="116.3" width="18" height="1.6"/>
        <polygon class="cls-2" points="59.7 87.7 59.7 94.1 94.2 112.6 128.8 94.1 128.8 87.7 59.7 87.7"/>
        <path class="cls-8" d="M59.7,87.7v2.7l34.5,18.5,34.5-18.5v-2.7H59.7Z"/>
        <path class="cls-9" d="M94.2,109.8l-35.3-18.9v-3.9h70.6v3.9l-35.3,18.9ZM60.5,89.9l33.7,18,33.7-18v-1.4H60.5v1.4Z"/>
        <path class="cls-9" d="M129.5,124.9H58.9v-37.9h70.6v37.9ZM60.5,123.3h67.5v-34.7H60.5v34.7Z"/>
        <circle class="cls-8" cx="112.5" cy="62.6" r="16.9"/>
        <path class="cls-9" d="M112.5,80.3c-9.8,0-17.7-7.9-17.7-17.7s7.9-17.7,17.7-17.7,17.7,7.9,17.7,17.7-7.9,17.7-17.7,17.7ZM112.5,46.5c-8.9,0-16.1,7.2-16.1,16.1s7.2,16.1,16.1,16.1,16.1-7.2,16.1-16.1-7.2-16.1-16.1-16.1Z"/>
        <polygon class="cls-7" points="109.9 71.2 102.5 63.8 105.4 60.9 109.9 65.3 120.2 55 123.2 57.9 109.9 71.2"/>
        <path class="cls-9" d="M95.9,19.9c-2.7,0-4.1-3.3-2.2-5.2.6-.6,1.4-.9,2.2-.9,2.7,0,4.1,3.3,2.2,5.2-.6.6-1.4.9-2.2.9ZM95.9,15.4c-.4,0-.8.2-1.1.5-.9.9-.3,2.6,1.1,2.6s.8-.2,1.1-.5c.9-.9.2-2.6-1.1-2.6Z"/>
        <path class="cls-9" d="M109.1,29.6c-1.3,0-2.3-1-2.3-2.3,0-1.3,1-2.4,2.3-2.4s2.3,1,2.3,2.3c0,1.3-1,2.4-2.3,2.4ZM108.3,27.3c0,.4.3.8.8.8.7,0,1-.8.5-1.3-.5-.5-1.3-.1-1.3.5Z"/>
        <path class="cls-6" d="M69.8,130.2h-1.6v-1.6h1.6v1.6ZM65.6,130.2h-1.6v-1.6h1.6v1.6ZM61.4,130.2h-1.6v-1.6h1.6v1.6ZM57.2,130.2h-1.6v-1.6h1.6v1.6ZM53,130.2h-1.6v-1.6h1.6v1.6ZM48.8,130.2h-1.6v-1.6h1.6v1.6ZM44.6,130.2h-1.6v-1.6h1.6v1.6ZM40.3,130.2h-1.6v-1.6h1.6v1.6ZM36.1,130.2h-1.6v-1.6h1.6v1.6ZM31.9,130.2h-1.6v-1.6h1.6v1.6ZM27.7,130.2h-1.6v-1.6h1.6v1.6ZM23.5,130.2h-1.6v-1.6h1.6v1.6ZM19.1,130.1c-.6-.1-1.2-.3-1.7-.6l.7-1.4c.4.2.8.4,1.3.4l-.3,1.5ZM15.1,127.6c-.4-.5-.7-1-.9-1.5l1.4-.6c.2.4.4.8.7,1.2l-1.2,1ZM15.2,123.2h-1.6v-1.6h1.6v1.6ZM15.2,119h-1.6v-1.6h1.6v1.6ZM15.2,114.8h-1.6v-1.6h1.6v1.6Z"/>
        <path class="cls-7" d="M16,93.9c2.4,0,4.4,2,4.4,4.4,0-1.1.4-2.2,1.1-3s2-1.4,3.2-1.4c-2.4,0-4.4-2-4.4-4.4,0,2.4-2,4.4-4.4,4.4Z"/>
        <path class="cls-7" d="M116,35.6c4,0,7.2,3.2,7.2,7.2,0-2,.8-3.8,2.1-5.1s3.1-2.1,5.1-2.1c-4,0-7.2-3.2-7.2-7.2,0,4-3.2,7.2-7.2,7.2Z"/>
      </g>
    </g>
  </g>
</svg>