<?xml version="1.0" encoding="UTF-8"?>
<svg xmlns="http://www.w3.org/2000/svg" version="1.1" xmlns:xlink="http://www.w3.org/1999/xlink" viewBox="0 0 144 144">
  <defs>
    <style>
      .cls-1 {
        fill: url(#linear-gradient-2);
      }

      .cls-1, .cls-2, .cls-3 {
        mix-blend-mode: multiply;
      }

      .cls-4 {
        fill: #f5f6f6;
      }

      .cls-5 {
        fill: #ababab;
      }

      .cls-6 {
        isolation: isolate;
      }

      .cls-7 {
        fill: #dee1ec;
      }

      .cls-2 {
        fill: url(#linear-gradient-3);
      }

      .cls-3 {
        fill: url(#linear-gradient);
      }

      .cls-8 {
        fill: #de117b;
      }

      .cls-9 {
        fill: #5f6276;
      }
    </style>
    <linearGradient id="linear-gradient" x1="82.6" y1="45.7" x2="106.7" y2="45.7" gradientUnits="userSpaceOnUse">
      <stop offset="0" stop-color="#cbd0de"/>
      <stop offset="1" stop-color="#eff0f1"/>
    </linearGradient>
    <linearGradient id="linear-gradient-2" x1="63.5" y1="87.4" x2="63.5" y2="73.5" gradientUnits="userSpaceOnUse">
      <stop offset="0" stop-color="#a9afc4"/>
      <stop offset="1" stop-color="#d5d9e5"/>
    </linearGradient>
    <linearGradient id="linear-gradient-3" x1="84.4" y1="87.4" x2="84.4" y2="73.5" xlink:href="#linear-gradient-2"/>
  </defs>
  <!-- Generator: Adobe Illustrator 28.7.1, SVG Export Plug-In . SVG Version: 1.2.0 Build 142)  -->
  <g class="cls-6">
    <g id="Layer_1">
      <g>
        <path class="cls-5" d="M98.5,121.6l-.5-1.5,1.5-.5.5,1.5-1.5.5ZM102.4,120.3l-.5-1.5,1.5-.5.5,1.5-1.5.5ZM106.3,118.9l-.5-1.5,1.5-.5.5,1.5-1.5.5ZM110.2,117.6l-.5-1.5,1.5-.5.5,1.5-1.5.5ZM114.2,115.8l-.8-1.3c.4-.3.8-.5,1.2-.9l1,1.2c-.4.4-.9.7-1.3,1ZM117.4,112.8l-1.2-.9c.3-.4.5-.8.8-1.2l1.4.7c-.3.5-.6.9-.9,1.4ZM119.3,108.9l-1.5-.4c.1-.5.2-.9.3-1.4l1.5.2c0,.5-.2,1.1-.3,1.6ZM119.7,104.6h-1.5v-1.5h1.5v1.5Z"/>
        <path class="cls-8" d="M108.2,67.4c0,19-15.4,34.5-34.5,34.5s-34.5-15.4-34.5-34.5,21.6-39.2,43.5-33.3c14.8,4,25.5,17.4,25.5,33.3Z"/>
        <circle class="cls-7" cx="73.7" cy="67.4" r="29.3"/>
        <path class="cls-3" d="M106.7,57.1c-13.6,2.3-25.7-9.2-23.9-23,11.4,3.1,20.4,11.8,23.9,23Z"/>
        <path class="cls-9" d="M73.7,102.6c-19.4,0-35.3-15.8-35.3-35.3s15.8-35.3,35.3-35.3,35.3,15.8,35.3,35.3-15.8,35.3-35.3,35.3ZM73.7,33.7c-18.6,0-33.7,15.1-33.7,33.7s15.1,33.7,33.7,33.7,33.7-15.1,33.7-33.7-15.1-33.7-33.7-33.7Z"/>
        <g>
          <g>
            <path class="cls-4" d="M56.7,86.9v-10.7c0-6.4,5.2-11.5,11.5-11.5h11.5c6.4,0,11.5,5.2,11.5,11.5v10.7h-34.6Z"/>
            <path class="cls-4" d="M74,64.6c-4.9,0-8.8-3.9-8.8-8.8v-2.1c0-4.9,4-8.8,8.8-8.8,4.9,0,8.8,3.9,8.8,8.8v2.1c0,4.9-4,8.8-8.8,8.8Z"/>
            <path class="cls-9" d="M74,65.4c-5.3,0-9.6-4.3-9.6-9.6v-2.1c0-5.3,4.3-9.6,9.6-9.6s9.6,4.3,9.6,9.6v2.1c0,5.3-4.3,9.6-9.6,9.6ZM74,45.7c-4.4,0-8.1,3.6-8.1,8.1v2.1c0,4.5,3.6,8.1,8.1,8.1s8.1-3.6,8.1-8.1v-2.1c0-4.4-3.6-8.1-8.1-8.1Z"/>
            <path class="cls-1" d="M61.8,86.9c0-10.7,0-10.4,0-10.4.6,0,1.2.5,1.3,1.1l1.9,9.3h-3.2Z"/>
            <path class="cls-2" d="M86,86.9c0-10.7,0-10.4,0-10.4-.6,0-1.2.5-1.3,1.1l-1.9,9.3h3.2Z"/>
            <path class="cls-9" d="M92,86.9h-1.5v-10.7c0-5.9-4.8-10.7-10.7-10.7h-11.5c-5.9,0-10.7,4.8-10.7,10.7v10.7h-1.5v-10.7c0-6.8,5.5-12.3,12.3-12.3h11.5c6.8,0,12.3,5.5,12.3,12.3v10.7Z"/>
          </g>
          <g>
            <path class="cls-9" d="M70.7,64.6l1.9,4h2.6l1.9-4h-6.4Z"/>
            <path class="cls-9" d="M75.2,70.1h-2.6l-1.7,13.6,3.1,3.2,3.1-3.2-1.9-13.6Z"/>
          </g>
        </g>
        <path class="cls-4" d="M77.9,106.5c3.3,0,6-2.7,6-6,0-3.3-2.7-6-6-6h-7.7c-2.8,0-5.5-.7-8-1.9-5.2-2.7-11.5-2.6-16.7.4l-3.3,1.9v20.7s24.7,7.8,24.7,7.8c3.8,1.1,7.8,1,11.5-.2l31.7-10.9c3.5-1.2,5.4-5,4.1-8.5-1.2-3.3-4.8-5.2-8.2-4.1l-21.3,6.8c-.6.2-1.2.3-1.8.3-42.3,0-.9,0-5.1,0Z"/>
        <path class="cls-9" d="M66.8,124l-25.2-7.9v-21.7l3.6-2.1c5.4-3.1,11.9-3.2,17.4-.4,2.4,1.2,5,1.9,7.7,1.9h7.7c3.7,0,6.8,3,6.8,6.8s-1,4-2.5,5.2c.9,0,1.5,0,2.3-.2l21.3-6.8c3.8-1.2,7.8.8,9.2,4.6,1.4,3.9-.7,8.2-4.6,9.5l-31.7,10.9c-3.8,1.3-7.9,1.4-12,.3ZM43.1,114.9l24.1,7.6c3.6,1.1,7.5,1,11.1-.2l31.7-10.9c3.1-1,4.8-4.4,3.7-7.5-1.1-3-4.2-4.6-7.3-3.6l-21.3,6.8c-.7.2-1.3.3-2,.3h-19.1v-1.5h14c2.9,0,5.2-2.3,5.2-5.2s-2.3-5.2-5.2-5.2h-7.7c-2.9,0-5.8-.7-8.4-2-5-2.6-11-2.5-15.9.3l-2.9,1.6v19.7Z"/>
        <rect class="cls-8" x="23.3" y="89.9" width="19.8" height="30.1"/>
        <circle class="cls-4" cx="33.2" cy="97.7" r="2.6"/>
        <circle class="cls-4" cx="103.2" cy="36.7" r="16.7"/>
        <path class="cls-9" d="M103.2,54.2c-9.6,0-17.5-7.8-17.5-17.5s7.8-17.5,17.5-17.5,17.5,7.8,17.5,17.5-7.8,17.5-17.5,17.5ZM103.2,20.8c-8.8,0-15.9,7.1-15.9,15.9s7.1,15.9,15.9,15.9,15.9-7.1,15.9-15.9-7.1-15.9-15.9-15.9Z"/>
        <polygon class="cls-8" points="100.1 45.1 93.6 38.5 96.3 35.8 100.1 39.7 110.1 29.7 112.8 32.4 100.1 45.1"/>
      </g>
    </g>
  </g>
</svg>