<?xml version="1.0" encoding="UTF-8"?>
<svg xmlns="http://www.w3.org/2000/svg" version="1.1" xmlns:xlink="http://www.w3.org/1999/xlink" viewBox="0 0 144 144">
  <defs>
    <style>
      .cls-1 {
        fill: url(#linear-gradient-2);
      }

      .cls-1, .cls-2 {
        mix-blend-mode: multiply;
      }

      .cls-3 {
        isolation: isolate;
      }

      .cls-4 {
        fill: #dee1ec;
      }

      .cls-5 {
        fill: #a9afc4;
      }

      .cls-6 {
        fill: #df107b;
      }

      .cls-7 {
        fill: #f5f5f5;
      }

      .cls-8 {
        fill: #5e6175;
      }

      .cls-2 {
        fill: url(#linear-gradient);
      }
    </style>
    <linearGradient id="linear-gradient" x1="91.7" y1="44.6" x2="111.5" y2="44.6" gradientUnits="userSpaceOnUse">
      <stop offset="0" stop-color="#cacfdd"/>
      <stop offset="1" stop-color="#eef0f1"/>
    </linearGradient>
    <linearGradient id="linear-gradient-2" x1="89.3" y1="86.9" y2="86.9" xlink:href="#linear-gradient"/>
  </defs>
  <!-- Generator: Adobe Illustrator 28.7.1, SVG Export Plug-In . SVG Version: 1.2.0 Build 142)  -->
  <g class="cls-3">
    <g id="Layer_1">
      <g>
        <g>
          <rect class="cls-7" x="19.9" y="32.5" width="91.6" height="84.5" rx="4.4" ry="4.4"/>
          <path class="cls-7" d="M24.3,32.5h82.7c2.4,0,4.4,2,4.4,4.4v75.6c0,2.4-2,4.4-4.4,4.4H24.3c-2.4,0-4.4-2-4.4-4.4V37c0-2.4,2-4.4,4.4-4.4Z"/>
          <g>
            <path class="cls-8" d="M111.5,37v5.4H19.9v-5.4c0-2.4,2-4.4,4.4-4.4h82.7c2.4,0,4.4,2,4.4,4.4Z"/>
            <path class="cls-8" d="M112.3,43.2H19v-6.3c0-2.9,2.4-5.3,5.3-5.3h82.7c2.9,0,5.3,2.4,5.3,5.3v6.3ZM20.7,41.5h89.9v-4.6c0-2-1.6-3.6-3.6-3.6H24.3c-2,0-3.6,1.6-3.6,3.6v4.6Z"/>
          </g>
          <circle class="cls-7" cx="26.5" cy="37.5" r="1.9"/>
          <circle class="cls-7" cx="33.8" cy="37.5" r="1.9"/>
          <rect class="cls-4" x="29.4" y="66.9" width="56.1" height="3.1"/>
          <rect class="cls-4" x="41.9" y="74.8" width="22.6" height="3.1"/>
          <rect class="cls-4" x="69.3" y="74.8" width="9.5" height="3.1"/>
          <rect class="cls-4" x="41.9" y="82.7" width="43.7" height="3.1"/>
          <rect class="cls-4" x="29.4" y="90.6" width="28.6" height="3.1"/>
          <rect class="cls-4" x="62.9" y="90.6" width="22.7" height="3.1"/>
          <rect class="cls-4" x="41.9" y="98.4" width="36.8" height="3.1"/>
          <rect class="cls-4" x="29.4" y="106.3" width="56.1" height="3.1"/>
          <path class="cls-2" d="M111.5,37v19.7c-12.6,0-22.1-11.8-19.3-24.2h14.9c2.4,0,4.4,2,4.4,4.4Z"/>
          <path class="cls-1" d="M111.5,56.8v55.8c0,2.4-2,4.4-4.4,4.4h-17.8v-51.9c0-4.6,3.8-8.4,8.4-8.4h13.8Z"/>
          <path class="cls-5" d="M80.4,60.4h-45.8c-2.8,0-5.1-2.3-5.1-5.1s2.3-5.1,5.1-5.1h45.8c2.8,0,5.1,2.3,5.1,5.1s-2.3,5.1-5.1,5.1Z"/>
          <path class="cls-8" d="M107.1,117.8H24.3c-2.9,0-5.3-2.4-5.3-5.3V37c0-2.9,2.4-5.3,5.3-5.3h82.7c2.9,0,5.3,2.4,5.3,5.3v75.6c0,2.9-2.4,5.3-5.3,5.3ZM24.3,33.4c-2,0-3.6,1.6-3.6,3.6v75.6c0,2,1.6,3.6,3.6,3.6h82.7c2,0,3.6-1.6,3.6-3.6V37c0-2-1.6-3.6-3.6-3.6H24.3Z"/>
          <circle class="cls-7" cx="111.5" cy="36.9" r="15.8"/>
          <path class="cls-8" d="M111.5,53.5c-9.2,0-16.7-7.5-16.7-16.7s7.5-16.7,16.7-16.7,16.7,7.5,16.7,16.7-7.5,16.7-16.7,16.7ZM111.5,21.9c-8.3,0-15,6.7-15,15s6.7,15,15,15,15-6.7,15-15-6.7-15-15-15Z"/>
          <polygon class="cls-6" points="104.3 31.8 98.8 37.1 104.3 42.4 106.3 40.3 102.9 37.1 106.3 33.9 104.3 31.8"/>
          <polygon class="cls-6" points="118.6 31.8 116.6 33.9 120 37.1 116.6 40.3 118.6 42.4 124.2 37.1 118.6 31.8"/>
          <rect class="cls-6" x="104.9" y="35.4" width="13.2" height="2.9" transform="translate(25.5 116.9) rotate(-61.2)"/>
          <path class="cls-4" d="M97.7,60.7h27.6c2.4,0,4.4,2,4.4,4.4v58.7c0,2.4-2,4.4-4.4,4.4h-27.6c-2.4,0-4.4-2-4.4-4.4v-58.7c0-2.4,2-4.4,4.4-4.4Z"/>
          <path class="cls-8" d="M125.3,129h-27.6c-2.9,0-5.2-2.3-5.2-5.2v-58.7c0-2.9,2.3-5.2,5.2-5.2h27.6c2.9,0,5.2,2.3,5.2,5.2v58.7c0,2.9-2.3,5.2-5.2,5.2ZM97.7,61.6c-2,0-3.5,1.6-3.5,3.5v58.7c0,2,1.6,3.5,3.5,3.5h27.6c1.9,0,3.5-1.6,3.5-3.5v-58.7c0-2-1.6-3.5-3.5-3.5h-27.6Z"/>
          <path class="cls-7" d="M126.2,66.1v56.6c0,1.1-.9,2-2,2h-25.2c-1.1,0-2-.9-2-2v-56.6c0-1.1.9-2,2-2h5.7c.6,0,1.1.4,1.3,1s.7,1,1.3,1h8.5c.6,0,1.1-.4,1.3-1s.7-1,1.3-1h5.7c1.1,0,2,.9,2,2Z"/>
          <rect class="cls-4" x="100.6" y="70.3" width="22.2" height="14.4" rx="3.1" ry="3.1"/>
          <path class="cls-8" d="M119.8,85.6h-16.1c-2.2,0-3.9-1.8-3.9-3.9v-8.3c0-2.2,1.8-3.9,3.9-3.9h16.1c2.2,0,3.9,1.8,3.9,3.9v8.3c0,2.2-1.8,3.9-3.9,3.9ZM103.7,71.2c-1.2,0-2.2,1-2.2,2.2v8.3c0,1.2,1,2.2,2.2,2.2h16.1c1.2,0,2.2-1,2.2-2.2v-8.3c0-1.2-1-2.2-2.2-2.2h-16.1Z"/>
          <polygon class="cls-6" points="102.9 81 109 74.8 113.8 79.6 116.4 77.1 120.4 81 102.9 81"/>
          <circle class="cls-6" cx="113.5" cy="74.6" r=".9"/>
          <rect class="cls-4" x="100.6" y="89.3" width="22.2" height="4.3"/>
          <rect class="cls-4" x="100.4" y="98.2" width="22.1" height="22.1" rx="3.2" ry="3.2"/>
          <path class="cls-5" d="M119.3,121.1h-1.7v-1.7h1.7c.4,0,.8-.1,1.2-.3l.8,1.5c-.6.3-1.3.5-2,.5ZM114.8,121.1h-1.7v-1.7h1.7v1.7ZM110.3,121.1h-1.7v-1.7h1.7v1.7ZM105.8,121.1h-1.7v-1.7h1.7v1.7ZM100.9,120c-.5-.5-.9-1.1-1.1-1.8l1.6-.5c.1.4.4.8.7,1l-1.1,1.2ZM123.3,117.8l-1.7-.3c0-.3,0-.4,0-1.5h1.7c0,1,0,1.3,0,1.8ZM101.3,115.2h-1.7v-1.7h1.7v1.7ZM123.4,113.2h-1.7v-1.7h1.7v1.7ZM101.3,110.7h-1.7v-1.7h1.7v1.7ZM123.4,108.7h-1.7v-1.7h1.7v1.7ZM101.3,106.2h-1.7v-1.7h1.7v1.7ZM123.4,104.2h-1.7v-1.7h1.7v1.7ZM101.3,101.7h-1.7c0-.7,0-1.3.4-2l1.5.7c-.2.5-.2.9-.2,1.3ZM121.3,100.2c-.2-.4-.5-.6-.9-.8l.8-1.5c.6.3,1.2.8,1.5,1.4l-1.4.9ZM103.1,99.1l-.4-1.6c.6-.2,1-.1,1.9-.1v1.7c-.8,0-1.1,0-1.5,0ZM118.1,99h-1.7v-1.7h1.7v1.7ZM113.6,99h-1.7v-1.7h1.7v1.7ZM109.1,99h-1.7v-1.7h1.7v1.7Z"/>
          <rect class="cls-5" x="104.5" y="102.4" width="13.9" height="13.9" rx="3.1" ry="3.1"/>
          <path class="cls-8" d="M115.3,117.1h-7.6c-2.2,0-4-1.8-4-4v-7.6c0-2.2,1.8-4,4-4h7.6c2.2,0,4,1.8,4,4v7.6c0,2.2-1.8,4-4,4ZM107.7,103.2c-1.3,0-2.3,1-2.3,2.3v7.6c0,1.3,1,2.3,2.3,2.3h7.6c1.3,0,2.3-1,2.3-2.3v-7.6c0-1.3-1-2.3-2.3-2.3h-7.6Z"/>
          <rect class="cls-8" x="110.6" y="106.8" width="1.7" height="5"/>
          <rect class="cls-8" x="109" y="108.5" width="5" height="1.7"/>
        </g>
        <path class="cls-8" d="M100.1,18.5c-1.8,0-3.2-1.4-3.3-3.2,0-2.9,3.5-4.4,5.5-2.4,2.1,2.1.6,5.6-2.3,5.6ZM100.1,13.7c-.9,0-1.6.7-1.6,1.6,0,1.4,1.7,2.1,2.7,1.1,1-1,.3-2.7-1.1-2.7Z"/>
        <path class="cls-8" d="M88,26.7c-2,0-3-2.4-1.6-3.8h0c1.4-1.4,3.8-.4,3.8,1.6s-1,2.3-2.2,2.3ZM87.6,24.1h0c-.2.2-.2.6,0,.8.4.3,1,0,.9-.4,0-.5-.6-.7-1-.4Z"/>
        <rect class="cls-8" x="87.4" y="130.4" width="4.8" height="1.7" transform="translate(-66.5 101.9) rotate(-45)"/>
        <rect class="cls-8" x="94.6" y="132.1" width="1.7" height="4.8"/>
        <rect class="cls-8" x="84.1" y="125.1" width="4.8" height="1.7"/>
        <path class="cls-5" d="M23.2,123.7l.2-1.7c.6,0,1,0,1.6,0v1.7c-.6,0-1.1,0-1.8,0ZM47.6,123.8h-1.7v-1.7h1.7v1.7ZM43.1,123.8h-1.7v-1.7h1.7v1.7ZM38.6,123.8h-1.7v-1.7h1.7v1.7ZM34,123.8h-1.7v-1.7h1.7v1.7ZM29.5,123.8h-1.7v-1.7h1.7v1.7ZM20.3,123c-.6-.2-1.1-.5-1.6-.8l.9-1.4c.4.3.9.5,1.4.7l-.7,1.6ZM16.3,120.2c-.4-.5-.8-.9-1.1-1.5l1.4-.9c.3.4.6.8.9,1.2l-1.3,1.1ZM14,115.9c-.2-.6-.3-1.2-.4-1.8l1.7-.2c0,.5.2,1,.3,1.5l-1.6.5ZM15.2,111.2h-1.7v-1.7h1.7v1.7ZM15.2,106.7h-1.7v-1.7h1.7v1.7Z"/>
      </g>
    </g>
  </g>
</svg>