<?xml version="1.0" encoding="UTF-8"?>
<svg xmlns="http://www.w3.org/2000/svg" version="1.1" xmlns:xlink="http://www.w3.org/1999/xlink" viewBox="0 0 144 144">
  <defs>
    <style>
      .cls-1 {
        fill: url(#linear-gradient-2);
      }

      .cls-1, .cls-2, .cls-3, .cls-4, .cls-5 {
        mix-blend-mode: multiply;
      }

      .cls-6 {
        fill: url(#linear-gradient-5);
      }

      .cls-2 {
        fill: url(#linear-gradient-4);
      }

      .cls-7 {
        isolation: isolate;
      }

      .cls-8 {
        fill: #dee1ec;
      }

      .cls-9 {
        fill: #a9afc4;
      }

      .cls-10 {
        fill: #df107b;
      }

      .cls-3 {
        fill: url(#linear-gradient-3);
      }

      .cls-11 {
        fill: #f5f5f5;
      }

      .cls-12 {
        fill: #5e6175;
      }

      .cls-4 {
        fill: url(#linear-gradient);
      }

      .cls-5 {
        fill: url(#linear-gradient-6);
      }
    </style>
    <linearGradient id="linear-gradient" x1="36.9" y1="131.1" x2="36.9" y2="119.1" gradientUnits="userSpaceOnUse">
      <stop offset="0" stop-color="#a9afc4"/>
      <stop offset="1" stop-color="#d4d8e5"/>
    </linearGradient>
    <linearGradient id="linear-gradient-2" x1="55" y1="131.1" x2="55" y2="119.1" xlink:href="#linear-gradient"/>
    <linearGradient id="linear-gradient-3" x1="90.5" x2="90.5" xlink:href="#linear-gradient"/>
    <linearGradient id="linear-gradient-4" x1="108.7" y1="131.1" x2="108.7" y2="119.1" xlink:href="#linear-gradient"/>
    <linearGradient id="linear-gradient-5" x1="44.7" y1="58.4" x2="52" y2="58.4" xlink:href="#linear-gradient"/>
    <linearGradient id="linear-gradient-6" x1="68.7" y1="39.7" x2="78.1" y2="39.7" gradientUnits="userSpaceOnUse">
      <stop offset="0" stop-color="#cacfdd"/>
      <stop offset="1" stop-color="#eef0f1"/>
    </linearGradient>
  </defs>
  <!-- Generator: Adobe Illustrator 28.7.1, SVG Export Plug-In . SVG Version: 1.2.0 Build 142)  -->
  <g class="cls-7">
    <g id="Layer_1">
      <g>
        <g>
          <g>
            <path class="cls-9" d="M31,130.6v-9.3c0-5.5,4.5-10,10-10h10c5.5,0,10,4.5,10,10v9.3h-29.9Z"/>
            <path class="cls-11" d="M45.9,111.4c-4.2,0-7.7-3.4-7.7-7.7v-1.8c0-4.2,3.4-7.7,7.7-7.7,4.2,0,7.7,3.4,7.7,7.7v1.8c0,4.2-3.4,7.7-7.7,7.7Z"/>
            <path class="cls-12" d="M45.9,112.2c-4.7,0-8.4-3.8-8.4-8.4v-1.8c0-4.7,3.8-8.4,8.4-8.4s8.4,3.8,8.4,8.4v1.8c0,4.7-3.8,8.4-8.4,8.4ZM45.9,95.1c-3.8,0-6.9,3.1-6.9,6.9v1.8c0,3.8,3.1,6.9,6.9,6.9s6.9-3.1,6.9-6.9v-1.8c0-3.8-3.1-6.9-6.9-6.9Z"/>
            <path class="cls-4" d="M35.5,130.6v-9c.6,0,1,.4,1.2.9l1.6,8h-2.8Z"/>
            <path class="cls-1" d="M56.4,130.6v-9c-.6,0-1,.4-1.2.9l-1.6,8h2.8Z"/>
            <path class="cls-12" d="M61.7,131.4h-31.5v-10.1c0-5.9,4.8-10.8,10.8-10.8h10c5.9,0,10.8,4.8,10.8,10.8v10.1ZM31.8,129.8h28.3v-8.5c0-5.1-4.1-9.2-9.2-9.2h-10c-5.1,0-9.2,4.1-9.2,9.2v8.5Z"/>
            <path class="cls-9" d="M84.7,130.6v-9.3c0-5.5,4.5-10,10-10h10c5.5,0,10,4.5,10,10v9.3h-29.9Z"/>
            <path class="cls-11" d="M99.6,111.4c-4.2,0-7.7-3.4-7.7-7.7v-1.8c0-4.2,3.4-7.7,7.7-7.7,4.2,0,7.7,3.4,7.7,7.7v1.8c0,4.2-3.4,7.7-7.7,7.7Z"/>
            <path class="cls-12" d="M99.6,112.2c-4.7,0-8.4-3.8-8.4-8.4v-1.8c0-4.7,3.8-8.4,8.4-8.4s8.4,3.8,8.4,8.4v1.8c0,4.7-3.8,8.4-8.4,8.4ZM99.6,95.1c-3.8,0-6.9,3.1-6.9,6.9v1.8c0,3.8,3.1,6.9,6.9,6.9s6.9-3.1,6.9-6.9v-1.8c0-3.8-3.1-6.9-6.9-6.9Z"/>
            <path class="cls-3" d="M89.2,130.6v-9c.6,0,1,.4,1.2.9l1.6,8h-2.8Z"/>
            <path class="cls-2" d="M110.1,130.6v-9c-.6,0-1,.4-1.2.9l-1.6,8h2.8Z"/>
            <path class="cls-12" d="M115.4,131.4h-31.5v-10.1c0-5.9,4.8-10.8,10.8-10.8h10c5.9,0,10.8,4.8,10.8,10.8v10.1ZM85.5,129.8h28.3v-8.5c0-5.1-4.1-9.2-9.2-9.2h-10c-5.1,0-9.2,4.1-9.2,9.2v8.5Z"/>
            <polygon class="cls-11" points="78.1 16.1 78.1 61.8 51.5 61.8 44.7 55.4 44.7 16.1 78.1 16.1"/>
            <rect class="cls-8" x="50.3" y="25.7" width="4.3" height="1.9"/>
            <rect class="cls-8" x="56.9" y="25.7" width="11.7" height="1.9"/>
            <rect class="cls-8" x="50.3" y="32.2" width="16" height="1.9"/>
            <rect class="cls-8" x="50.3" y="38.6" width="9.8" height="1.9"/>
            <rect class="cls-8" x="62" y="38.6" width="3" height="1.9"/>
            <rect class="cls-8" x="50.3" y="45.1" width="16" height="1.9"/>
            <rect class="cls-8" x="56.5" y="51.5" width="12.2" height="1.9"/>
            <path class="cls-6" d="M52,55v6.9h-.6c0,0,.5.5-6.8-6.4v-.5h7.4Z"/>
            <path class="cls-12" d="M51.5,62.6c-.4,0,0,.3-7.6-6.9v-1.6h9v8.5c-1.7,0-1.2,0-1.4,0ZM46.2,55.7c5.2,4.9,4.7,4.4,5.1,4.8v-4.8h-5.1Z"/>
            <path class="cls-12" d="M119.8,31.3c-2,0-3.6-1.8-3.2-3.8.3-1.8,2-2.9,3.8-2.6,1.8.3,2.9,2,2.6,3.8h0c-.3,1.6-1.7,2.6-3.2,2.6ZM119.8,26.5c-.8,0-1.5.5-1.6,1.3-.3,1.4,1.4,2.5,2.6,1.7.4-.2.6-.6.7-1.1h0c.2-1-.6-2-1.6-2Z"/>
            <path class="cls-12" d="M108.7,19.4c-1.6,0-2.7-1.4-2.5-2.9.3-1.4,1.6-2.2,2.9-2,1.3.2,2.2,1.6,2,2.9h0c-.2,1.2-1.3,2-2.4,2ZM108.7,16c-.4,0-.8.3-.9.7-.1.8.7,1.4,1.4.9.7-.5.4-1.6-.5-1.6Z"/>
            <path class="cls-10" d="M20,109.5c1.7,0,3,1.4,3,3,0-1.7,1.4-3,3-3-1.7,0-3-1.4-3-3,0,1.7-1.4,3-3,3Z"/>
            <rect class="cls-12" x="33.2" y="36.7" width="5.2" height="1.6"/>
            <rect class="cls-12" x="35" y="43.5" width="5.2" height="1.6" transform="translate(-20.3 39.6) rotate(-45)"/>
            <rect class="cls-12" x="36.5" y="28.3" width="1.6" height="5.2" transform="translate(-10.9 35.4) rotate(-45)"/>
            <path class="cls-5" d="M78.1,21.5v36.4c-12.6-8.9-12.6-27.5,0-36.4Z"/>
            <path class="cls-12" d="M78.9,62.6h-27.8l-7.3-6.9V15.3h35v47.3ZM51.8,61h25.6V16.9h-31.9v38.2l6.3,6Z"/>
            <circle class="cls-11" cx="91" cy="39.7" r="17.9"/>
            <path class="cls-12" d="M91,58.4c-10.3,0-18.7-8.4-18.7-18.7s8.4-18.7,18.7-18.7,18.7,8.4,18.7,18.7-8.4,18.7-18.7,18.7ZM91,22.6c-9.4,0-17.1,7.7-17.1,17.1s7.7,17.1,17.1,17.1,17.1-7.7,17.1-17.1-7.7-17.1-17.1-17.1Z"/>
            <polygon class="cls-10" points="82.5 40.2 82.5 38.8 94.5 31 96.1 33.5 86.8 39.5 96.1 45.5 94.5 48 82.5 40.2"/>
            <circle class="cls-10" cx="95.7" cy="31.9" r="3.9"/>
            <circle class="cls-10" cx="83.9" cy="39.5" r="3.9"/>
            <circle class="cls-10" cx="95.7" cy="47.1" r="3.9"/>
          </g>
          <polygon class="cls-10" points="101.9 84.1 101.9 73.8 75 73.8 75 66.7 70.4 66.7 70.4 73.8 43.9 73.8 43.9 84.1 41.1 84.1 46.2 89.4 51.3 84.1 48.5 84.1 48.5 78.4 97.4 78.4 97.4 84.1 94.6 84.1 99.7 89.4 104.8 84.1 101.9 84.1"/>
        </g>
        <path class="cls-9" d="M121.1,130.1h-1.6v-1.6h1.6v1.6ZM121.1,125.9h-1.6v-1.6h1.6v1.6ZM121.1,121.6h-1.6c0-.7,0-1,0-1.5h1.6c0,.5,0,.9,0,1.5ZM119.1,117.6c-.1-.5-.3-1-.4-1.4l1.5-.5c.2.5.3,1.1.5,1.6l-1.5.4ZM117.7,113.9c-.2-.4-.5-.9-.8-1.3l1.3-.9c.3.5.6.9.9,1.4l-1.4.8ZM115.3,110.7c-.6-.6-1.1-1-1.1-1l.9-1.3s.6.4,1.3,1.2l-1.1,1.1Z"/>
      </g>
    </g>
  </g>
</svg>