<?xml version="1.0" encoding="UTF-8"?>
<svg xmlns="http://www.w3.org/2000/svg" version="1.1" xmlns:xlink="http://www.w3.org/1999/xlink" viewBox="0 0 144 144">
  <defs>
    <style>
      .cls-1 {
        isolation: isolate;
      }

      .cls-2 {
        fill: #dee1ec;
      }

      .cls-3 {
        fill: #a9afc4;
      }

      .cls-4 {
        fill: #df107b;
      }

      .cls-5 {
        fill: #f5f5f5;
      }

      .cls-6 {
        fill: #5e6175;
      }

      .cls-7 {
        fill: url(#linear-gradient);
        mix-blend-mode: multiply;
      }
    </style>
    <linearGradient id="linear-gradient" x1="76.4" y1="104.8" x2="114.7" y2="104.8" gradientUnits="userSpaceOnUse">
      <stop offset="0" stop-color="#cacfdd"/>
      <stop offset="1" stop-color="#eef0f1"/>
    </linearGradient>
  </defs>
  <!-- Generator: Adobe Illustrator 28.7.1, SVG Export Plug-In . SVG Version: 1.2.0 Build 142)  -->
  <g class="cls-1">
    <g id="Layer_1">
      <g>
        <g>
          <path class="cls-3" d="M109.7,65c0-7.7,5.7-14,13.1-15.1-2.4-8.3-6.8-15.9-12.8-22.2-4.6,5.9-12.9,7.6-19.6,3.8-6.6-3.8-9.3-11.9-6.5-18.8-8.3-2-17.1-2.1-25.6,0,2.8,6.9.1,15-6.5,18.9-6.7,3.8-15,2.1-19.6-3.8-6.1,6.3-10.4,14-12.8,22.2,7.4,1,13.1,7.4,13.1,15.1s-5.7,14-13.1,15.1c2.3,8,6.7,15.8,12.8,22.2,4.6-5.9,12.9-7.6,19.6-3.8,6.6,3.8,9.3,11.9,6.5,18.8,8.3,2,17.1,2.1,25.6,0-2.8-6.9-.1-15,6.5-18.9,6.6-3.8,15-2.1,19.6,3.8,6-6.2,10.4-13.8,12.8-22.2-7.4-1-13.1-7.4-13.1-15.1ZM43.2,81.1c-8.9-15.4-3.6-35.1,11.8-43.9,15.4-8.9,35.1-3.6,43.9,11.8,8.9,15.4,3.6,35.1-11.8,43.9-15.3,8.8-35,3.7-43.9-11.8Z"/>
          <path class="cls-3" d="M127.5,55.1l-1-1.3c.4-.3.7-.6.9-1l1.4.9c-.3.6-.8,1-1.3,1.5ZM127.9,50.6c0-.6-.1-.9-.3-1.4l1.6-.5c.2.6.3,1.1.3,1.8h-1.7ZM126.8,46.5c-.2-.5-.4-1-.5-1.5l1.6-.6c.2.5.4,1.1.6,1.6l-1.6.5ZM125.3,42.4c-.2-.5-.4-1-.7-1.5l1.5-.7c.2.5.5,1,.7,1.5l-1.5.6ZM123.5,38.5c-.2-.5-.5-1-.8-1.5l1.5-.8c.3.5.5,1,.8,1.5l-1.5.8ZM121.3,34.7c-.3-.5-.6-.9-.9-1.4l1.4-.9c.3.5.6,1,.9,1.4l-1.4.9ZM119,31c-.3-.4-.6-.9-1-1.3l1.3-1c.3.4.7.9,1,1.4l-1.4,1ZM97.4,28.7v-1.7c.6,0,1.1,0,1.6,0l.2,1.6c-.6,0-1.2,0-1.8,0ZM94.5,28.1c-.6-.2-1.1-.5-1.6-.8l.8-1.4c.4.3.9.5,1.4.6l-.6,1.6ZM102.1,27.9l-.7-1.5c.5-.2.9-.4,1.3-.7l.9,1.4c-.5.3-1,.6-1.6.8ZM116.3,27.5c-.3-.4-.7-.8-1.1-1.2l1.3-1.1c.4.4.7.9,1.1,1.3l-1.3,1.1ZM105.9,25l-1.3-1.1c.3-.3.8-1,1-1.3l1.3,1.1c-.2.2-.8,1-1,1.3ZM113.4,24.3c-.5-.6-.8-.8-1.1-1.1l1-1.3c.4.3.7.6,1.3,1.2l-1.2,1.1ZM108.9,22.5l-.4-1.6c.6-.2,1.3-.2,1.9-.2v1.7c-.6,0-1,0-1.5.1Z"/>
          <path class="cls-3" d="M109.7,65c0-7.7,5.7-14,13.1-15.1-2.4-8.3-6.8-15.9-12.8-22.2-4.6,5.9-12.9,7.6-19.6,3.8-6.6-3.8-9.3-11.9-6.5-18.8-8.3-2-17.1-2.1-25.6,0,2.8,6.9.1,15-6.5,18.9-6.7,3.8-15,2.1-19.6-3.8-6.1,6.3-10.4,14-12.8,22.2,7.4,1,13.1,7.4,13.1,15.1s-5.7,14-13.1,15.1c2.4,8.1,6.7,15.8,12.8,22.2,4.6-5.9,12.9-7.6,19.6-3.8,6.6,3.8,9.3,11.9,6.5,18.8,8.2,2,17,2.1,25.6,0-2.8-6.9-.1-15,6.5-18.9,6.7-3.8,15-2.1,19.6,3.8,5.9-6.1,10.3-13.7,12.8-22.2-7.4-1-13.1-7.4-13.1-15.1ZM43.2,81.1c-8.9-15.4-3.6-35.1,11.8-43.9,15.4-8.9,35.1-3.6,43.9,11.8,8.9,15.4,3.6,35.1-11.8,43.9-15.3,8.8-35,3.7-43.9-11.8Z"/>
          <path class="cls-5" d="M43.2,81.1c-8.9-15.4-3.6-35.1,11.8-43.9,15.4-8.9,35.1-3.6,43.9,11.8,8.9,15.4,3.6,35.1-11.8,43.9-15.3,8.8-35,3.7-43.9-11.8Z"/>
          <path class="cls-2" d="M48.2,78.2c-7.3-12.6-3-28.8,9.7-36.1,12.6-7.3,28.8-3,36.1,9.7,7.3,12.6,3,28.8-9.7,36.1-12.5,7.3-28.7,3-36.1-9.7Z"/>
          <path class="cls-6" d="M71.1,98c-11.7,0-22.6-6.1-28.6-16.5-9.1-15.8-3.7-36,12.1-45.1,7.6-4.4,16.5-5.6,25-3.3,17.6,4.7,28.1,22.8,23.3,40.4-3.9,14.7-17.2,24.5-31.8,24.5ZM55.4,37.9c-15,8.6-20.1,27.8-11.5,42.8,8.8,15.3,28.2,19.9,42.8,11.5,15-8.7,20.1-27.8,11.5-42.8-8.6-15-27.8-20.2-42.8-11.5Z"/>
          <path class="cls-5" d="M71.1,41.4l-2,3.6v20h3.9v-20l-2-3.6Z"/>
          <path class="cls-6" d="M73.9,65.8h-5.6v-21.1l2.8-5.1,2.8,5.1v21.1ZM69.9,64.2h2.3v-19l-1.1-2.1-1.1,2.1v19Z"/>
          <path class="cls-5" d="M59.5,76.5l3.9-1.2,9.1-9.1c-1-1-1.8-1.8-2.8-2.8l-9.1,9.1-1.1,3.9Z"/>
          <path class="cls-6" d="M58.2,77.7l1.6-5.6,9.8-9.8,4,4-9.8,9.8-5.6,1.6ZM61.3,73l-.7,2.3,2.3-.7,8.3-8.3-1.6-1.6-8.3,8.3Z"/>
          <circle class="cls-6" cx="71.1" cy="65" r="5.1"/>
          <rect class="cls-6" x="70.2" y="32.8" width="1.7" height="3.6"/>
          <rect class="cls-6" x="70.2" y="93.6" width="1.7" height="3.6"/>
          <rect class="cls-6" x="99.7" y="64.2" width="3.6" height="1.7"/>
          <rect class="cls-6" x="38.9" y="64.2" width="3.6" height="1.7"/>
          <path class="cls-7" d="M114.7,96.6c-1.4,2-3,3.9-4.7,5.6-4.6-5.9-12.9-7.6-19.6-3.8-6.7,3.8-9.3,11.9-6.5,18.9-2.4.6-4.7,1-7.1,1.2-2.7-14.3,8.3-27.6,22.8-27.6s11,2.1,15.1,5.6Z"/>
          <path class="cls-6" d="M71.1,119.7c-5.3,0-9.4-.7-14-1.8l.4-.9c2.7-6.6,0-14.3-6.2-17.8-6.2-3.6-14.1-2-18.5,3.6l-.6.8c-3.2-3.3-5.8-6.5-8.5-11.2-2.7-4.6-4.1-8.5-5.4-13h1c7-1.1,12.4-7.2,12.4-14.4s-5.3-13.2-12.4-14.2h-.9c0-.1.3-1.1.3-1.1,2.5-8.4,7-16.2,13-22.6l.7-.7.6.8c4.4,5.6,12.3,7.1,18.5,3.6,6.2-3.6,8.8-11.2,6.1-17.8l-.4-.9.9-.2c8.5-2.1,17.5-2.1,26,0l.9.2-.4.9c-2.7,6.6,0,14.3,6.2,17.8,6.2,3.6,14.1,2,18.5-3.6l.6-.8.7.7c6,6.3,10.5,14.1,13,22.5l.3.9h-1c-7,1.1-12.4,7.2-12.4,14.4,0,7.1,5.3,13.2,12.4,14.2h.9c0,.1-.3,1.1-.3,1.1-2.5,8.5-6.9,16.2-13,22.6l-.7.7-.6-.8c-4.4-5.6-12.3-7.2-18.5-3.6-6.2,3.6-8.8,11.2-6.2,17.8l.4.9c-4.4,1.1-8.6,1.8-13.9,1.8ZM59.4,116.7c7.7,1.7,15.8,1.8,23.4,0-2.4-7.1.6-15.2,7.2-19,6.6-3.8,15-2.4,20,3.3,5.4-5.8,9.4-12.7,11.7-20.3-7.4-1.5-12.8-8.1-12.8-15.7,0-7.6,5.5-14.2,12.8-15.7-2.3-7.3-6.2-14.3-11.7-20.3-5,5.6-13.4,7.1-20,3.3-6.6-3.8-9.6-11.8-7.2-19-7.7-1.7-15.8-1.8-23.4,0,3.4,10.2-4.1,21.1-15.2,21.1-4.5,0-8.9-1.9-12.1-5.4-5.3,5.8-9.4,12.8-11.7,20.3,7.4,1.5,12.8,8.1,12.8,15.7s-5.5,14.2-12.8,15.7c2.3,7.3,6.2,14.3,11.7,20.3,5-5.6,13.4-7.1,20-3.3,6.6,3.8,9.6,11.8,7.2,19Z"/>
          <circle class="cls-5" cx="99.6" cy="114.2" r="18.7"/>
          <path class="cls-6" d="M99.6,133.7c-10.7,0-19.5-8.7-19.5-19.5s8.7-19.5,19.5-19.5,19.5,8.7,19.5,19.5-8.7,19.5-19.5,19.5ZM99.6,96.4c-9.8,0-17.8,8-17.8,17.8s8,17.8,17.8,17.8,17.8-8,17.8-17.8-8-17.8-17.8-17.8Z"/>
          <circle class="cls-4" cx="99.8" cy="113.9" r="13.4"/>
          <polygon class="cls-5" points="96.6 119.1 94.7 117.1 98.5 113.3 98.5 105.2 101.2 105.2 101.2 114.5 96.6 119.1"/>
        </g>
        <path class="cls-6" d="M18.5,109.5c-2.4,0-4.2-2-4-4.3h0c.2-2.2,2.1-3.9,4.3-3.7,2.2.2,3.9,2.1,3.7,4.3-.2,2.1-2,3.7-4,3.7ZM16.1,105.3c-.2,2.1,2.3,3.4,3.9,2,1.6-1.4.7-4-1.4-4.2-1.3-.1-2.4.9-2.5,2.2h0Z"/>
        <path class="cls-6" d="M28.3,116.5c.1-1.5,1.4-2.5,2.9-2.4,2.3.2,3.3,3.1,1.5,4.7-1.8,1.5-4.6.1-4.4-2.2ZM30.9,115.8c-.5,0-.9.4-1,.9,0,.9,1,1.4,1.6.8s.3-1.7-.6-1.7Z"/>
      </g>
    </g>
  </g>
</svg>