<?xml version="1.0" encoding="UTF-8"?>
<svg xmlns="http://www.w3.org/2000/svg" version="1.1" viewBox="0 0 144 144">
  <defs>
    <style>
      .cls-1 {
        fill: #f5f6f6;
      }

      .cls-2 {
        fill: #a9afc4;
      }

      .cls-3 {
        fill: #df107b;
      }

      .cls-4 {
        fill: #afb3da;
      }

      .cls-5 {
        fill: #ababab;
      }

      .cls-6 {
        fill: #dee1ec;
      }

      .cls-7 {
        fill: #5f6276;
      }
    </style>
  </defs>
  <!-- Generator: Adobe Illustrator 28.7.1, SVG Export Plug-In . SVG Version: 1.2.0 Build 142)  -->
  <g>
    <g id="Layer_1">
      <g>
        <rect class="cls-2" x="25.7" y="38.9" width="5.2" height="11.3"/>
        <rect class="cls-3" x="34.9" y="34.8" width="5.2" height="15.3"/>
        <rect class="cls-6" x="44" y="43.8" width="5.2" height="6.3"/>
        <path class="cls-7" d="M31.8,51h-6.9v-12.9h6.9v12.9ZM26.6,49.3h3.6v-9.6h-3.6v9.6Z"/>
        <path class="cls-7" d="M40.9,51h-6.9v-17h6.9v17ZM35.7,49.3h3.6v-13.7h-3.6v13.7Z"/>
        <path class="cls-7" d="M50,51h-6.9v-8h6.9v8ZM44.8,49.3h3.6v-4.7h-3.6v4.7Z"/>
        <g>
          <path class="cls-1" d="M46.9,20.3c-9-3.7-20-2-27.6,5.6-9.9,9.9-9.8,25.8.1,35.6,8.5,8.4,22.1,10.1,33,2.3l5.4,5.4c0,.2-.1.5-.2.7l2.8,2.8,6.1-6.1-2.9-2.9c-.2,0-.5.1-.7.2l-5.4-5.3.4-.5h0c9.3-13.3,3.7-31.6-11.2-37.7ZM51,56.5c-5.1,5.3-12.3,7-18.8,5.2-2.7-.8-5-2.2-7.2-3.9-8.2-7-8.7-19.8-1.1-27.4,7.2-7.2,19.4-7.3,26.7,0s7,19.6.4,26.2Z"/>
          <path class="cls-1" d="M46.9,20.3c-9-3.7-20-2-27.6,5.6-9.9,9.9-9.8,25.8.1,35.6,8.5,8.4,22.1,10.1,33,2.3l5.4,5.4c0,.2-.1.5-.2.7l2.8,2.8,6.1-6.1-2.9-2.9c-.2,0-.5.1-.7.2l-5.4-5.3.4-.5h0c9.3-13.3,3.7-31.6-11.2-37.7ZM51,56.5c-5.1,5.3-12.3,7-18.8,5.2-2.7-.8-5-2.2-7.2-3.9-8.2-7-8.7-19.8-1.1-27.4,7.2-7.2,19.4-7.3,26.7,0s7,19.6.4,26.2Z"/>
          <path class="cls-7" d="M60.6,73.8l-3.7-3.6c0-.5,0-.5.1-.8l-4.6-4.6c-4.8,3.2-10.2,4.9-15.7,4.8-6.6-.1-13.1-2.9-17.8-7.5-10.3-10.1-10.3-26.6-.1-36.7,7.8-7.8,19.2-9.5,28.5-5.7h0c15,6.1,21.1,24.5,11.9,38.3h0s-.4.5-.4.5l4.5,4.5c.2,0,.3,0,.7-.1l3.8,3.7-7.3,7.3ZM58.7,69.6l1.9,1.9,5-5-2-1.9c-.2,0-.2,0-.7.2l-6.2-6.1.8-1.1c6.8-9.7,5.6-22.8-2.8-31.2-4.7-4.7-10.9-7.1-17.3-7.1-13.6,0-24.4,11.1-24.4,24.4,0,19.4,22.1,31.5,39.2,19.4l.6-.4,6.3,6.2c0,.4-.1.5-.2.7ZM32,62.4c-3.2-.9-5.7-2.6-7.5-4h0c-4.1-3.5-6.5-8.7-6.7-14.1-.4-11,8.2-20.2,19.5-20.2,9.3,0,17,6.2,19.1,14.7h0c1.7,6.5-.2,13.7-4.8,18.3-5.4,5.6-12.9,7.2-19.6,5.4ZM25.5,57.1c2.5,2,4.6,3.1,6.9,3.7,6.1,1.7,13,.2,18-4.9,4.2-4.2,5.9-10.7,4.4-16.7h0c-2-7.8-9.1-13.5-17.5-13.4-10.5,0-18.2,8.5-17.9,18.5.2,5,2.4,9.7,6.1,12.9Z"/>
          <path class="cls-4" d="M70.4,65.6l19.4,19.2c2.9,2.9,3,7.6,0,10.5s-7.7,2.9-10.6,0l-19.3-19.1c-2.9-2.9-3-7.6,0-10.5,2.9-2.9,7.6-2.9,10.5-.1Z"/>
          <path class="cls-7" d="M84.6,98.3c-2.1,0-4.2-.8-5.9-2.4l-19.3-19.1c-4.8-4.7-2.2-12.8,4.3-14,2.8-.5,5.6.5,7.3,2.2l19.4,19.2c1.6,1.6,2.5,3.6,2.5,5.8,0,4.6-3.8,8.3-8.3,8.3ZM59.1,68.3c-1.1,2.4-.7,5.4,1.4,7.4l19.3,19.1c2.6,2.6,6.8,2.6,9.4,0,2.6-2.6,2.6-6.8,0-9.4l-19.4-19.2c-3.3-3.2-8.8-2.2-10.7,2.1Z"/>
        </g>
        <polygon class="cls-5" points="47.2 39.5 46 38.3 62.2 22.1 97.8 22.1 97.8 23.7 62.9 23.7 47.2 39.5"/>
        <rect class="cls-5" x="70.2" y="28.7" width="4.7" height="1.7"/>
        <rect class="cls-5" x="79.9" y="28.7" width="17.8" height="1.7"/>
        <rect class="cls-5" x="70.2" y="35.1" width="4.7" height="1.7"/>
        <rect class="cls-5" x="79.9" y="35.1" width="17.8" height="1.7"/>
        <path class="cls-5" d="M131.2,60.5c0-.5,0-1.1,0-1.6l1.6-.2c0,.6,0,1.1.1,1.7h-1.7ZM130.7,56.2c-.1-.5-.2-1-.4-1.5l1.6-.5c.2.5.3,1.1.4,1.7l-1.6.3ZM129.4,52.2c-.2-.5-.4-1-.7-1.5l1.5-.7c.3.5.5,1,.7,1.6l-1.5.6ZM127.4,48.4c-.3-.4-.6-.9-.9-1.3l1.3-1c.3.5.7.9,1,1.4l-1.4.9ZM124.8,45.1c-.4-.4-.8-.8-1.1-1.1l1.1-1.2c.4.4.8.8,1.2,1.2l-1.2,1.1ZM121.6,42.3c-.4-.3-.9-.6-1.3-.9l.9-1.4c.5.3,1,.6,1.4,1l-1,1.3ZM117.9,40.1c-.5-.2-1-.4-1.5-.6l.6-1.5c.5.2,1.1.4,1.6.7l-.7,1.5ZM113.9,38.7c-.5-.1-1-.2-1.6-.3l.3-1.6c.6.1,1.1.2,1.7.4l-.4,1.6ZM109.7,38c-.5,0-1.1,0-1.6,0v-1.7c.6,0,1.1,0,1.7,0v1.7Z"/>
        <path class="cls-4" d="M108.1,50.5c-2.9,0-5.5,1.2-7.4,3.1l-4.7-4.7c3.1-3.1,7.4-5,12.1-5,9.5,0,17.2,7.7,17.2,17.2h-6.7c0-5.8-4.7-10.5-10.5-10.5Z"/>
        <path class="cls-6" d="M118.6,61h6.7c0,9.5-7.7,17.2-17.2,17.2v-6.7c5.8,0,10.5-4.7,10.5-10.5Z"/>
        <path class="cls-3" d="M95.9,48.9l4.7,4.7c-1.9,1.9-3.1,4.5-3.1,7.4,0,5.8,4.7,10.5,10.5,10.5v6.7c-9.4,0-17.2-7.6-17.2-17.2,0-4.7,1.9-9,5-12.1Z"/>
        <path class="cls-7" d="M126.1,61.9h-8.3v-.8c0-5.3-4.3-9.7-9.7-9.7s-5,1-6.8,2.8l-.6.6-5.9-5.9.6-.6c3.4-3.4,7.9-5.3,12.7-5.3,9.9,0,18,8.1,18,18v.8ZM119.4,60.2h5c-.4-8.6-7.6-15.5-16.3-15.5s-8,1.5-11,4.2l3.6,3.6c2.1-1.8,4.7-2.8,7.4-2.8,6,0,10.9,4.6,11.3,10.5Z"/>
        <path class="cls-7" d="M107.3,79v-8.3h.8c5.3,0,9.7-4.3,9.7-9.7v-.8h8.3v.8c0,9.9-8.1,18-18,18h-.8ZM108.9,72.3v5c8.4-.4,15.1-7.1,15.5-15.5h-5c-.4,5.6-4.9,10.1-10.5,10.5Z"/>
        <path class="cls-7" d="M108.9,79h-.8c-9.9,0-18-8.1-18-18s1.9-9.3,5.3-12.7l.6-.6,5.9,5.9-.6.6c-1.8,1.8-2.8,4.3-2.8,6.8,0,5.3,4.3,9.6,9.6,9.7h.9c0-.1,0,8.3,0,8.3ZM95.9,50.1c-2.7,3-4.2,6.9-4.2,11,0,8.7,6.9,15.9,15.5,16.3v-5c-5.9-.4-10.5-5.3-10.5-11.3s1-5.3,2.8-7.4l-3.6-3.6Z"/>
        <polygon class="cls-5" points="125.3 85.4 100.1 85.4 100.1 73.7 101.7 73.7 101.7 83.7 125.3 83.7 125.3 85.4"/>
        <rect class="cls-5" x="100.2" y="89.8" width="4.3" height="1.7"/>
        <rect class="cls-5" x="109" y="89.8" width="16.3" height="1.7"/>
        <rect class="cls-5" x="100.2" y="95.8" width="4.3" height="1.7"/>
        <rect class="cls-5" x="109" y="95.8" width="16.3" height="1.7"/>
        <g>
          <path class="cls-1" d="M84,72.1H31.9c-4.3,0-7.8,3.5-7.8,7.8v27.9c0,4.3,3.5,7.8,7.8,7.8h34.5s7.5,8.1,7.5,8.1v-8.1s10.1,0,10.1,0c4.3,0,7.8-3.5,7.8-7.8v-27.9c0-4.3-3.5-7.8-7.8-7.8Z"/>
          <path class="cls-7" d="M74.9,126.4l-9-9.7H31.9c-4.9,0-8.8-4-8.8-8.8v-27.9c0-4.9,4-8.8,8.8-8.8h52.1c4.9,0,8.8,4,8.8,8.8v27.9c0,4.9-4,8.8-8.8,8.8h-9.1v9.7ZM31.9,73.1c-3.8,0-6.8,3.1-6.8,6.8v27.9c0,3.8,3.1,6.8,6.8,6.8h34.9l6.1,6.6v-6.5h11.1c3.8,0,6.8-3.1,6.8-6.8v-27.9c0-3.8-3.1-6.8-6.8-6.8H31.9Z"/>
          <circle class="cls-3" cx="41.9" cy="93.1" r="3.5"/>
          <circle class="cls-3" cx="58" cy="93.1" r="3.5"/>
          <circle class="cls-3" cx="74.1" cy="93.1" r="3.5"/>
        </g>
      </g>
    </g>
  </g>
</svg>