<?xml version="1.0" encoding="UTF-8"?>
<svg xmlns="http://www.w3.org/2000/svg" version="1.1" xmlns:xlink="http://www.w3.org/1999/xlink" viewBox="0 0 144 144">
  <defs>
    <style>
      .cls-1 {
        isolation: isolate;
      }

      .cls-2 {
        fill: #dee1ec;
      }

      .cls-3 {
        fill: #a9afc4;
      }

      .cls-4 {
        fill: #df107b;
      }

      .cls-5 {
        fill: #f5f5f5;
      }

      .cls-6 {
        fill: #5e6175;
      }

      .cls-7 {
        fill: url(#linear-gradient);
        mix-blend-mode: multiply;
      }
    </style>
    <linearGradient id="linear-gradient" x1="49.1" y1="81.5" x2="101.5" y2="81.5" gradientUnits="userSpaceOnUse">
      <stop offset="0" stop-color="#cacfdd"/>
      <stop offset="1" stop-color="#eef0f1"/>
    </linearGradient>
  </defs>
  <!-- Generator: Adobe Illustrator 28.7.1, SVG Export Plug-In . SVG Version: 1.2.0 Build 142)  -->
  <g class="cls-1">
    <g id="Layer_1">
      <g>
        <g>
          <g>
            <path class="cls-7" d="M101.5,100.3h-6.8l-19.5-19.5-1.6,1.6c-5.4,5.4-14,5.5-19.5.4l-5-4.7,15.2-15.2c1.5.6,2.9,1.5,4.1,2.7l-12.4,12.4,1.4,1.3c3.7,3.4,9.3,3.3,12.9-.2l4.9-4.9,22.4,22.4c.5.4.4.3,4,3.9Z"/>
            <path class="cls-2" d="M55.9,77.9l12.3-12.3c2.2-2.2,5.3-3.5,8.4-3.5h38.1v33.5h-18.1s-21.5-21.5-21.5-21.5l-4.9,4.9c-3.5,3.5-9.2,3.6-12.9.2l-1.4-1.3Z"/>
            <path class="cls-6" d="M79.2,79.4l-4.7-4.7,1.3-1.3,4.7,4.7c4.7,4.7,12.4,4.7,17.1,0l1.3-1.3,1.3,1.3-1.3,1.3c-5.4,5.4-14.2,5.4-19.6,0Z"/>
          </g>
          <g>
            <path class="cls-2" d="M32.1,108.9c2,2,5.1,2,7.1,0l4.8-4.8c2-2,2-5.1,0-7.1s-5.1-2-7.1,0l-4.8,4.8c-2,2-2,5.1,0,7.1Z"/>
            <path class="cls-2" d="M41,114.1c2,2,5.1,2,7.1,0l4.8-4.8c2-2,2-5.1,0-7.1s-5.1-2-7.1,0l-4.8,4.8c-2,2-2,5.1,0,7.1Z"/>
            <path class="cls-2" d="M49.8,119.5c2,2,5.1,2,7.1,0l5.4-5.4c2-2,2-5.1,0-7.1s-5.1-2-7.1,0l-5.4,5.4c-2,2-2,5.1,0,7.1Z"/>
            <path class="cls-2" d="M59.3,124.2c2,2,5.1,2,7.1,0l4.6-4.6c2-2,2-5.1,0-7.1s-5.1-2-7.1,0l-4.6,4.6c-2,2-2,5.1,0,7.1Z"/>
          </g>
          <path class="cls-2" d="M103.1,108.9c-2,2-5.1,2-7.1,0l-1.9-1.9c2,2,2,5.1,0,7.1-2,2-5.1,2-7.1,0l-1.7-1.7c2,2,2,5.1,0,7.1-2,2-5.1,2-7.1,0l-2.4-2.4c2,2,2,5.1,0,7.1-2,2-5.1,2-7.1,0l-1.2-1.2,3.5-3.5c2-2,2-5.1,0-7.1-2-2-5.1-2-7.1,0-1.4,1.4-1.3,1.3-1.3,1.3,2.7-3.3.3-8.1-3.9-8.1s-2.6.5-3.5,1.5c-2,2-1.8,1.8-1.8,1.8,1.6-2,1.4-4.8-.4-6.7-2-2-5.1-2-7.1,0l-1.8,1.8c1.9-2,1.8-5.1,0-7-1-1-2.3-1.5-3.5-1.5h-20v-33.5h39.4c3.1,0,6.1,1.2,8.4,3.5l-12.4,12.4,1.4,1.3c3.7,3.4,9.3,3.3,12.9-.2l4.9-4.9,22.4,22.4c.5.4.1,0,5.5,5.4,2,2,2,5.1,0,7.1Z"/>
          <path class="cls-7" d="M101.5,100.3c-4.3,0-8.5-1.7-11.7-4.8l-14.7-14.7-1.6,1.6c-5.4,5.4-14,5.5-19.5.4l-5-4.7,15.2-15.2c1.5.6,2.9,1.5,4.1,2.7l-12.4,12.4,1.4,1.3c3.7,3.4,9.3,3.3,12.9-.2l4.9-4.9,22.4,22.4c.5.4.4.3,4,3.9Z"/>
          <path class="cls-6" d="M115.6,96.4h-19.3l-21.1-21.1-4.3,4.3c-3.9,3.9-10.1,4-14.1.3l-2.1-2,13-13c2.4-2.4,5.7-3.8,9.1-3.8h39v35.3ZM97,94.6h16.8v-31.6h-37.1c-2.9,0-5.7,1.1-7.8,3.2l-11.6,11.6.7.7c3.3,3.1,8.4,3,11.6-.2l5.6-5.6,21.9,21.9Z"/>
          <g>
            <path class="cls-6" d="M35.6,111.3c-2.6,0-4.2-1.7-4.2-1.7-2.3-2.3-2.3-6.1,0-8.4l4.8-4.8c1.1-1.1,2.6-1.7,4.2-1.7,3.3,0,5.9,2.6,5.9,5.9,0,1.6-.6,3.1-1.7,4.2l-4.8,4.8c-1.1,1.1-2.6,1.7-4.2,1.7ZM40.5,96.4c-1.1,0-2.1.4-2.9,1.2l-4.8,4.8c-2.6,2.6-.7,7,2.9,7s2.1-.4,2.9-1.2l4.8-4.8c2.6-2.6.7-7-2.9-7Z"/>
            <path class="cls-6" d="M44.6,116.5c-2.6,0-4.2-1.7-4.2-1.7-2.3-2.3-2.3-6.1,0-8.4l4.8-4.8c2.3-2.3,6.1-2.3,8.4,0,2.3,2.3,2.3,6.1,0,8.4l-4.8,4.8c-1.2,1.2-2.7,1.7-4.2,1.7ZM46.5,102.9l-4.8,4.8c-1.6,1.6-1.6,4.2,0,5.8h0c1.6,1.6,4.2,1.6,5.8,0l4.8-4.8c1.6-1.6,1.6-4.2,0-5.8-1.6-1.6-4.2-1.6-5.8,0Z"/>
            <path class="cls-6" d="M49.2,120.2h0c-2.3-2.3-2.3-6.1,0-8.4l5.4-5.4c2.3-2.3,6.1-2.3,8.4,0,2.3,2.3,2.3,6.1,0,8.4l-5.4,5.4c-2.3,2.3-6.1,2.3-8.4,0ZM50.5,118.9c1.6,1.6,4.2,1.6,5.8,0l5.4-5.4c2.6-2.6.8-7-2.9-7s-2.1.4-2.9,1.2l-5.4,5.4c-1.6,1.6-1.6,4.2,0,5.8h0Z"/>
            <path class="cls-6" d="M62.9,126.6c-2.6,0-4.2-1.7-4.2-1.7-2.3-2.3-2.3-6.1,0-8.4l4.6-4.6c2.3-2.3,6.1-2.3,8.4,0,2.3,2.3,2.3,6.1,0,8.4l-4.6,4.6c-1.2,1.2-2.7,1.7-4.2,1.7ZM64.6,113.1l-4.6,4.6c-1.6,1.6-1.6,4.2,0,5.8h0c1.6,1.6,4.2,1.6,5.8,0l4.6-4.6c1.6-1.6,1.6-4.2,0-5.8-1.6-1.6-4.2-1.6-5.8,0Z"/>
          </g>
          <path class="cls-6" d="M72.3,126.6c-1.6,0-3.1-.6-4.2-1.7l-1.8-1.8,4.1-4.1c.8-.8,1.2-1.8,1.2-2.9,0-3.7-4.4-5.5-7-2.9l-1.8,1.8-1.6-.9.7-.8c2.2-2.7.2-6.7-3.2-6.7s-2.1.4-2.9,1.2l-2.3,2.3-1.6-.8.7-.9c2.1-2.7.2-6.7-3.2-6.7s-2.1.4-2.9,1.2l-1.8,1.8-1.3-1.3c2.5-2.6.6-6.9-3-6.9h-20.9v-35.4h40.3c3.4,0,6.7,1.3,9.1,3.8l.6.6-12.4,12.4.7.7c3.3,3.1,8.4,3,11.6-.2l5.6-5.6,23,23c.6.5.5.4,5.6,5.5,1.1,1.1,1.7,2.6,1.7,4.2,0,4.6-5,7.4-8.9,5.1.1,4.5-4.8,7.5-8.8,5.3,0,1.6-.5,3.2-1.7,4.4-2.1,2.1-5.5,2.3-7.8.5,0,3.2-2.7,5.9-5.9,5.9ZM68.9,123l.5.5c.8.8,1.8,1.2,2.9,1.2,3.7,0,5.5-4.4,2.9-7l1.3-1.3s-.3-.3,2.4,2.4c1.6,1.6,4.2,1.6,5.8,0,1.6-1.6,1.6-4.2,0-5.8l1.3-1.3,1.7,1.7c1.6,1.6,4.2,1.6,5.8,0,1.5-1.5,1.7-4.1,0-5.8l1.3-1.3s-.2-.2,1.9,1.9c1.6,1.6,4.2,1.6,5.8,0,1.6-1.6,1.6-4.2,0-5.8-6.4-6.4-4.6-4.6-5.5-5.4l-21.8-21.8-4.3,4.3c-3.9,3.9-10.1,4-14.1.3l-2.1-2,12.4-12.4c-2-1.7-4.5-2.6-7.1-2.6H21.4v31.7h19.1c3.4,0,6,2.8,5.9,6,3.9-2.3,9,.5,8.9,5.1,2.3-1.6,5.5-1.4,7.6.7,1.2,1.2,1.8,2.8,1.7,4.4,3.9-2.2,8.8.6,8.8,5.2s-.6,3.1-1.7,4.2l-2.8,2.8Z"/>
          <rect class="cls-4" x="11.4" y="57.3" width="18.1" height="42"/>
          <rect class="cls-4" x="108.7" y="57.3" width="18.1" height="42"/>
          <circle class="cls-5" cx="20.7" cy="68.4" r="3.1"/>
          <circle class="cls-5" cx="117.8" cy="90.2" r="3.1"/>
        </g>
        <path class="cls-3" d="M101.5,54.1c-4.3,1.7-9.3,0-11.7-4-2.4-4.1-1.3-9.3,2.3-12.1-4-3.8-8.8-6.5-13.7-7.9-.6,4.6-4.6,8.1-9.3,8.1-4.7,0-8.7-3.5-9.3-8.1-5.1,1.5-9.8,4.2-13.7,7.9,3.6,2.8,4.7,8,2.4,12.1-2.4,4.1-7.4,5.8-11.7,4-.6,2.6-1,5.3-1,7.9h20.6c0-2.2.6-4.4,1.7-6.4,3.5-6.1,11.3-8.2,17.4-4.7,4.1,2.4,6.4,6.6,6.4,11.1h20.6c0-2.6-.3-5.3-1-7.9Z"/>
        <path class="cls-6" d="M103.4,63h-22.4v-.9c0-7.7-7.3-13.5-14.9-11.5-5.3,1.4-8.8,6.2-8.8,11.5v.9h-22.4c0-4.6.4-6.6,1.2-10.1l1,.4c3.9,1.6,8.4,0,10.5-3.6,2.1-3.7,1.2-8.4-2.1-11l-.8-.6.8-.7c4-3.8,8.8-6.6,14.1-8.1l1-.3v1c.7,4.2,4.4,7.3,8.6,7.3,4.2,0,7.8-3.1,8.4-7.3v-1c3.1.9,5.5,1.7,8.7,3.5,3.1,1.8,5,3.4,7.3,5.6l-.8.6c-3.3,2.6-4.2,7.3-2.1,11,2.1,3.7,6.6,5.2,10.5,3.6l1-.4c1,4,1.2,6,1.2,10.1ZM82.8,61.2h18.8c0-1.9-.3-3.9-.7-5.8-4.5,1.3-9.4-.6-11.8-4.8-2.4-4.1-1.6-9.4,1.8-12.6-3.3-2.9-7.3-5.3-11.7-6.7-1.1,4.5-5.3,7.8-10,7.8-4.8,0-8.9-3.3-10-7.8-4.3,1.4-8.3,3.7-11.7,6.7,3.4,3.2,4.2,8.5,1.8,12.6-2.4,4.1-7.3,6.1-11.8,4.8-.4,1.9-.6,3.9-.7,5.8h18.8c.7-10,11.7-16,20.5-10.9,4,2.3,6.5,6.4,6.8,10.9Z"/>
        <path class="cls-4" d="M98.3,27.8c5.8,0,10.4,4.7,10.4,10.4,0-5.8,4.7-10.4,10.4-10.4-5.8,0-10.4-4.7-10.4-10.4,0,5.8-4.7,10.4-10.4,10.4Z"/>
        <path class="cls-4" d="M22.3,48.6c2,0,3.6,1.6,3.6,3.6,0-2,1.6-3.6,3.6-3.6-2,0-3.6-1.6-3.6-3.6,0,2-1.6,3.6-3.6,3.6Z"/>
        <path class="cls-3" d="M122.7,105.9h-1.8v-1.8h1.8v1.8ZM125.9,105.9l-.3-1.8c.5,0,1-.2,1.5-.4l.7,1.7c-.6.3-1.3.5-2,.6ZM130.6,103.3l-1.3-1.2c.4-.4.7-.8.9-1.3l1.6.8c-.3.6-.7,1.2-1.2,1.7ZM132.6,98.4h-1.8c0-.3,0-.4,0-1.8h1.8c0,1.6,0,1.6,0,1.8ZM132.6,93.5h-1.8v-1.8h1.8v1.8ZM132.6,88.7h-1.8v-1.8h1.8v1.8ZM132.6,83.8h-1.8v-1.8h1.8v1.8ZM132.6,79h-1.8v-1.8h1.8v1.8Z"/>
      </g>
    </g>
  </g>
</svg>