<?xml version="1.0" encoding="UTF-8"?>
<svg xmlns="http://www.w3.org/2000/svg" version="1.1" xmlns:xlink="http://www.w3.org/1999/xlink" viewBox="0 0 144 144">
  <defs>
    <style>
      .cls-1 {
        fill: url(#linear-gradient-2);
      }

      .cls-1, .cls-2, .cls-3, .cls-4 {
        mix-blend-mode: multiply;
      }

      .cls-5 {
        fill: url(#linear-gradient-3);
      }

      .cls-2 {
        fill: url(#linear-gradient-4);
      }

      .cls-6 {
        isolation: isolate;
      }

      .cls-3 {
        fill: url(#linear-gradient-5);
      }

      .cls-7 {
        fill: #dee1ec;
      }

      .cls-8 {
        fill: #a9afc4;
      }

      .cls-9 {
        fill: #df107b;
      }

      .cls-10 {
        fill: #f5f5f5;
      }

      .cls-11 {
        fill: #5e6175;
      }

      .cls-4 {
        fill: url(#linear-gradient);
      }
    </style>
    <linearGradient id="linear-gradient" x1="62.3" y1="117.8" x2="80.3" y2="117.8" gradientUnits="userSpaceOnUse">
      <stop offset="0" stop-color="#cacfdd"/>
      <stop offset="1" stop-color="#eef0f1"/>
    </linearGradient>
    <linearGradient id="linear-gradient-2" x1="58.3" y1="90" x2="58.3" y2="53.9" xlink:href="#linear-gradient"/>
    <linearGradient id="linear-gradient-3" x1="58.3" y1="81.9" x2="58.3" y2="47" xlink:href="#linear-gradient"/>
    <linearGradient id="linear-gradient-4" x1="75.1" y1="65.5" x2="107.7" y2="65.5" xlink:href="#linear-gradient"/>
    <linearGradient id="linear-gradient-5" x1="54" y1="56.5" x2="75.1" y2="56.5" xlink:href="#linear-gradient"/>
  </defs>
  <!-- Generator: Adobe Illustrator 28.7.1, SVG Export Plug-In . SVG Version: 1.2.0 Build 142)  -->
  <g class="cls-6">
    <g id="Layer_1">
      <g>
        <g>
          <rect class="cls-7" x="25.3" y="55.5" width="91.9" height="60.1"/>
          <rect class="cls-7" x="25.3" y="55.5" width="91.9" height="60.1"/>
          <rect class="cls-10" x="48.8" y="43.4" width="44.8" height="80.6" transform="translate(154.9 12.4) rotate(90)"/>
          <rect class="cls-8" x="25.3" y="106.1" width="91.9" height="9.5"/>
          <rect class="cls-8" x="62.3" y="115.6" width="18" height="9"/>
          <rect class="cls-8" x="58.1" y="124.6" width="26.3" height="4.3"/>
          <path class="cls-11" d="M85.2,129.7h-27.9v-5.9h27.9v5.9ZM58.9,128.1h24.8v-2.8h-24.8v2.8Z"/>
          <path class="cls-11" d="M118,116.4H24.5v-61.7h93.5v61.7ZM26.1,114.8h90.3v-58.5H26.1v58.5Z"/>
          <rect class="cls-4" x="62.3" y="115.6" width="18" height="4.5"/>
          <path class="cls-11" d="M81,125.4h-19.6v-10.5h19.6v10.5ZM63,123.8h16.4v-7.4h-16.4v7.4Z"/>
        </g>
        <rect class="cls-11" x="32.6" y="128.1" width="75.9" height="1.6"/>
        <path class="cls-10" d="M70.6,48.6h-24.6c-2.5,0-4.5,2-4.5,4.5v24.6c0,2.5,2,4.5,4.5,4.5h.9l3.7,6.1,3.7-6.1h16.2c2.5,0,4.5-2,4.5-4.5v-24.6c0-2.5-2-4.5-4.5-4.5Z"/>
        <path class="cls-1" d="M79.5,55.5v22.2c0,4.9-4,8.9-8.9,8.9h-13.8l-6.2,10-6.2-10.2c-4.1-.7-7.3-4.4-7.3-8.7v-22.2h42.3Z"/>
        <path class="cls-5" d="M75.1,53.1v24.6c0,2.5-2,4.5-4.5,4.5h-16.2l-3.7,6.1-3.7-6.1h-.9c-2.5,0-4.5-2-4.5-4.5v-24.6c0-2.5,2-4.5,4.5-4.5h24.6c2.5,0,4.5,2,4.5,4.5Z"/>
        <rect class="cls-7" x="57.5" y="96" width="45.9" height="3.6"/>
        <rect class="cls-7" x="86" y="79.7" width="17.4" height="3.6"/>
        <rect class="cls-7" x="79" y="88.1" width="7" height="3.6"/>
        <rect class="cls-7" x="91" y="88.1" width="12.4" height="3.6"/>
        <circle class="cls-9" cx="50.6" cy="66.2" r="1.7"/>
        <circle class="cls-9" cx="58.6" cy="66.2" r="1.7"/>
        <circle class="cls-9" cx="66.7" cy="66.2" r="1.7"/>
        <path class="cls-2" d="M107.7,55.5c0,5.1-3.8,8.7-8.3,9l-6.7,10.9-6.7-10.9h-10.8v-9h32.6Z"/>
        <path class="cls-3" d="M75.1,53.1v11.4h-12.3c-4.9,0-8.9-4-8.9-8.9v-7.1h16.6c2.5,0,4.5,2,4.5,4.5Z"/>
        <path class="cls-11" d="M50.7,89.8l-4.2-6.8h-.5c-2.9,0-5.3-2.4-5.3-5.3v-24.6c0-2.9,2.4-5.3,5.3-5.3h24.6c2.9,0,5.3,2.4,5.3,5.3v24.6c0,2.9-2.4,5.3-5.3,5.3h-15.7l-4.2,6.8ZM46,49.3c-2.1,0-3.7,1.7-3.7,3.7v24.6c0,2.1,1.7,3.7,3.7,3.7h1.4l3.3,5.4,3.3-5.4h16.6c2.1,0,3.7-1.7,3.7-3.7v-24.6c0-2.1-1.7-3.7-3.7-3.7h-24.6Z"/>
        <path class="cls-10" d="M98.9,15.1h-36c-2.5,0-4.5,2-4.5,4.5v36c0,2.5,2,4.5,4.5,4.5h25.6l4.3,7,4.3-7h1.9c2.5,0,4.5-2,4.5-4.5V19.6c0-2.5-2-4.5-4.5-4.5Z"/>
        <path class="cls-11" d="M92.7,68.6l-4.7-7.7h-25.1c-2.9,0-5.3-2.4-5.3-5.3V19.6c0-2.9,2.4-5.3,5.3-5.3h36c2.9,0,5.3,2.4,5.3,5.3v36c0,2.9-2.4,5.3-5.3,5.3h-1.5l-4.7,7.7ZM62.8,15.9c-2.1,0-3.7,1.7-3.7,3.7v36c0,2.1,1.7,3.7,3.7,3.7h26l3.8,6.3,3.8-6.3h2.4c2.1,0,3.7-1.7,3.7-3.7V19.6c0-2.1-1.7-3.7-3.7-3.7h-36Z"/>
        <polygon class="cls-8" points="77.7 38.8 75.6 46.6 72.2 46.6 72.2 38.8 77.7 38.8"/>
        <path class="cls-11" d="M71.8,38.1h-2.9c-1.3,0-2.3-1-2.3-2.3v-1.5c0-1.3,1-2.3,2.3-2.3h2.9v6.1ZM68.9,33.6c-.4,0-.7.3-.7.7v1.5c0,.4.3.7.7.7h1.3v-2.9h-1.3Z"/>
        <path class="cls-11" d="M71,37.3h-2.1c-.8,0-1.5-.7-1.5-1.5v-1.5c0-.8.7-1.5,1.5-1.5h2.1v4.5Z"/>
        <path class="cls-9" d="M77.7,31.5h-5.6c-.6,0-1.1.5-1.1,1.1v5c0,.6.5,1.1,1.1,1.1s5.7,0,5.6,0c5.3,0,10.6,1.6,15.2,5v-17.1c-4.7,3.4-10,5-15.2,5Z"/>
        <path class="cls-11" d="M76.2,47.3h-4.7v-9.4h7.4l-2.6,9.4ZM73,45.8h2l1.7-6.2h-3.7v6.2Z"/>
        <path class="cls-10" d="M77.7,31.5v7.2h-5.6c-.6,0-1.1-.5-1.1-1.1v-5c0-.6.5-1.1,1.1-1.1h5.6Z"/>
        <path class="cls-11" d="M93.8,45.3l-1.3-.9c-4.3-3.1-9.4-4.8-14.7-4.8h-5.6c-1.1,0-1.9-.9-1.9-1.9v-5c0-1.1.9-1.9,1.9-1.9h5.6c5.3,0,10.4-1.6,14.7-4.8l1.3-.9v20.2ZM72.1,32.3c-.2,0-.4.2-.4.4v5c0,.2.2.4.4.4h5.6c5.2,0,10.1,1.5,14.5,4.2v-14.2c-4.3,2.8-9.3,4.2-14.5,4.2h-5.6Z"/>
        <rect class="cls-11" x="108.7" y="33.8" width="4.9" height="1.6"/>
        <rect class="cls-11" x="106.9" y="27.4" width="4.9" height="1.6" transform="translate(12.1 85.6) rotate(-45)"/>
        <rect class="cls-11" x="108.9" y="38.4" width="1.6" height="4.9" transform="translate(3.2 89.5) rotate(-45)"/>
        <path class="cls-11" d="M26.3,125.7c-2.6,0-4.1-2.9-2.7-5,1.6-2.4,5.3-1.7,5.9,1.1.4,2-1.1,3.9-3.2,3.9ZM24.9,121.6c-.8,1.2.3,2.9,1.7,2.5.9-.2,1.5-1.1,1.3-2-.3-1.5-2.2-1.8-3-.6Z"/>
        <path class="cls-11" d="M16.4,114.9c-2,0-3.2-2.2-2.1-3.9,1.2-1.9,4.1-1.3,4.5.8.3,1.5-.8,3-2.4,3ZM15.7,112c-.4.7.2,1.6,1,1.4.5-.1.8-.6.7-1.1-.2-.8-1.2-1-1.7-.3Z"/>
        <path class="cls-8" d="M21.3,98.5c-.6-.2-1.1-.4-1.6-.6l.7-1.4c.4.2.8.4,1.3.5l-.4,1.5ZM17.4,96.1c-.4-.4-.7-.9-1-1.4l1.4-.7c.2.4.5.8.8,1.2l-1.2,1ZM15.6,91.9c0-.6,0-.9,0-1.7h1.6c0,.7,0,1,0,1.5l-1.6.2ZM17.1,87.6h-1.6v-1.6h1.6v1.6ZM17.1,83.4h-1.6v-1.6h1.6v1.6ZM17.1,79.2h-1.6v-1.6h1.6v1.6ZM17.1,75h-1.6v-1.6h1.6v1.6ZM17.1,70.8h-1.6v-1.6h1.6v1.6ZM17.1,66.6h-1.6v-1.6h1.6v1.6ZM17.1,62.4h-1.6v-1.6h1.6v1.6ZM17.1,58.2h-1.6v-1.6h1.6v1.6ZM17.1,54h-1.6v-1.6h1.6v1.6ZM17.1,49.8h-1.6v-1.6h1.6v1.6ZM17.1,45.6h-1.6v-1.6h1.6v1.6ZM17.1,41.5l-1.6-.2c0-.6.2-1.2.4-1.7l1.5.5c-.1.4-.2.9-.3,1.4ZM18.5,38.1l-1.2-1c.4-.4.8-.9,1.3-1.2l1,1.2c-.4.3-.7.6-1,1ZM21.6,36.1l-.4-1.5c.6-.2,1.1-.3,1.7-.3v1.6c-.4,0-.8.1-1.3.2ZM52.3,35.9h-1.6v-1.6h1.6v1.6ZM48.1,35.9h-1.6v-1.6h1.6v1.6ZM43.9,35.9h-1.6v-1.6h1.6v1.6ZM39.7,35.9h-1.6v-1.6h1.6v1.6ZM35.5,35.9h-1.6v-1.6h1.6v1.6ZM31.3,35.9h-1.6v-1.6h1.6v1.6ZM27.1,35.9h-1.6v-1.6h1.6v1.6Z"/>
        <path class="cls-8" d="M51.3,98.8h-1.6v-1.6h1.6v1.6ZM47.1,98.8h-1.6v-1.6h1.6v1.6ZM42.9,98.8h-1.6v-1.6h1.6v1.6ZM38.7,98.8h-1.6v-1.6h1.6v1.6ZM34.5,98.8h-1.6v-1.6h1.6v1.6ZM30.3,98.8h-1.6v-1.6h1.6v1.6Z"/>
        <path class="cls-9" d="M118.6,47.8c3.2,0,5.7,2.6,5.7,5.7,0-1.6.6-3,1.7-4s2.5-1.7,4-1.7c-3.2,0-5.7-2.6-5.7-5.7,0,3.2-2.6,5.7-5.7,5.7Z"/>
      </g>
    </g>
  </g>
</svg>