<?xml version="1.0" encoding="UTF-8"?>
<svg xmlns="http://www.w3.org/2000/svg" version="1.1" xmlns:xlink="http://www.w3.org/1999/xlink" viewBox="0 0 144 144">
  <defs>
    <style>
      .cls-1 {
        fill: #f5f6f6;
      }

      .cls-2 {
        fill: #a9afc4;
      }

      .cls-3 {
        fill: #de107b;
      }

      .cls-4 {
        fill: #ababab;
      }

      .cls-5 {
        isolation: isolate;
      }

      .cls-6 {
        fill: #dee1ec;
      }

      .cls-7 {
        fill: url(#linear-gradient);
        mix-blend-mode: multiply;
      }

      .cls-8 {
        fill: #5f6276;
      }
    </style>
    <linearGradient id="linear-gradient" x1="76.7" y1="43.2" x2="97.6" y2="43.2" gradientUnits="userSpaceOnUse">
      <stop offset="0" stop-color="#cbd0de"/>
      <stop offset="1" stop-color="#eff0f1"/>
    </linearGradient>
  </defs>
  <!-- Generator: Adobe Illustrator 28.7.1, SVG Export Plug-In . SVG Version: 1.2.0 Build 142)  -->
  <g class="cls-5">
    <g id="Layer_1">
      <g>
        <rect class="cls-1" x="29.7" y="31.5" width="67.8" height="95.2"/>
        <path class="cls-7" d="M97.6,31.5h-20.9v2.6c0,11.5,9.4,20.9,20.9,20.9,0-21.3,0-20.9,0-20.9h0v-2.6Z"/>
        <rect class="cls-6" x="40.6" y="79.1" width="46.3" height="2.9"/>
        <path class="cls-8" d="M98.3,127.4H29V30.7h69.4v96.7ZM30.5,125.9h66.3V32.3H30.5v93.6Z"/>
        <rect class="cls-2" x="80.7" y="62.7" width="6.7" height="10.3" transform="translate(168.1 135.8) rotate(180)"/>
        <rect class="cls-8" x="67.9" y="56.1" width="6.7" height="17" transform="translate(142.5 129.2) rotate(180)"/>
        <rect class="cls-8" x="41.1" y="56.1" width="6.7" height="17" transform="translate(88.9 129.2) rotate(180)"/>
        <rect class="cls-2" x="55.1" y="48.5" width="6.7" height="24.6" transform="translate(116.9 121.6) rotate(180)"/>
        <rect class="cls-6" x="40.6" y="86" width="46.3" height="2.9"/>
        <rect class="cls-6" x="40.6" y="93" width="6.8" height="2.9"/>
        <rect class="cls-6" x="52.3" y="93" width="15.8" height="2.9"/>
        <circle class="cls-1" cx="97.6" cy="34.1" r="16.7"/>
        <path class="cls-8" d="M97.6,51.5c-9.6,0-17.5-7.8-17.5-17.5s7.8-17.5,17.5-17.5,17.5,7.8,17.5,17.5-7.8,17.5-17.5,17.5ZM97.6,18.1c-8.8,0-15.9,7.1-15.9,15.9s7.1,15.9,15.9,15.9,15.9-7.1,15.9-15.9-7.1-15.9-15.9-15.9Z"/>
        <polygon class="cls-8" points="90.2 56.9 83.7 56.9 70.9 43.4 55 43.4 47.4 51 37.4 51 37.4 49.5 46.7 49.5 54.3 41.9 71.6 41.9 84.3 55.3 90.2 55.3 90.2 56.9"/>
        <circle class="cls-3" cx="84" cy="58.7" r="1.8"/>
        <circle class="cls-3" cx="71.2" cy="42.6" r="1.8"/>
        <circle class="cls-3" cx="58.4" cy="42.6" r="1.8"/>
        <circle class="cls-3" cx="44.4" cy="50.3" r="1.8"/>
        <polygon class="cls-3" points="95.1 42 88.2 35.1 90.6 32.7 95.1 37.2 105.3 27.1 107.6 29.4 95.1 42"/>
        <path class="cls-3" d="M78.7,107.4h-35.7c-1.3,0-2.4-1.1-2.4-2.4,0-1.3,1.1-2.4,2.4-2.4h35.7v4.8Z"/>
        <path class="cls-6" d="M84.5,110h-5.8v-4.8h5.8c1.3,0,2.4,1.1,2.4,2.4s-1.1,2.4-2.4,2.4Z"/>
        <path class="cls-8" d="M84.5,108.2h-41.5c-1.8,0-3.2-1.4-3.2-3.2s1.4-3.2,3.2-3.2h41.5c1.8,0,3.2,1.4,3.2,3.2s-1.4,3.2-3.2,3.2ZM43.1,103.3c-.9,0-1.6.7-1.6,1.6s.7,1.6,1.6,1.6h41.5c.9,0,1.6-.7,1.6-1.6s-.7-1.6-1.6-1.6h-41.5Z"/>
        <path class="cls-3" d="M63.8,116.9h-20.7c-1.3,0-2.4-1.1-2.4-2.4s1.1-2.4,2.4-2.4h20.7v4.8Z"/>
        <path class="cls-6" d="M84.5,116.9h-20.7v-4.8h20.7c1.3,0,2.4,1.1,2.4,2.4s-1.1,2.4-2.4,2.4Z"/>
        <path class="cls-8" d="M84.5,117.6h-41.5c-1.8,0-3.2-1.4-3.2-3.2s1.4-3.2,3.2-3.2h41.5c1.8,0,3.2,1.4,3.2,3.2s-1.4,3.2-3.2,3.2ZM43.1,112.8c-.9,0-1.6.7-1.6,1.6s.7,1.6,1.6,1.6h41.5c.9,0,1.6-.7,1.6-1.6s-.7-1.6-1.6-1.6h-41.5Z"/>
        <path class="cls-4" d="M100.3,115.2v-1.6c.5,0,.9,0,1.4-.2l.4,1.5c-.6.1-1.1.2-1.7.2ZM104.6,113.8l-.9-1.3c.4-.3.7-.6,1-.9l1.2,1c-.4.4-.8.8-1.3,1.2ZM107.4,110.2l-1.5-.5c.1-.4.2-.9.3-1.3h1.6c0,.7-.2,1.3-.4,1.8ZM107.7,105.8h-1.6v-1.6h1.6v1.6ZM107.7,101.6h-1.6v-1.6h1.6v1.6ZM107.7,97.5h-1.6v-1.6h1.6v1.6ZM107.7,93.3h-1.6v-1.6h1.6v1.6ZM107.7,89.2h-1.6v-1.6h1.6v1.6ZM107.7,85h-1.6v-1.6h1.6v1.6ZM107.7,80.9h-1.6v-1.6h1.6v1.6ZM107.7,76.7h-1.6v-1.6h1.6v1.6ZM107.7,72.6h-1.6v-1.6h1.6v1.6ZM107.7,68.4h-1.6v-1.6h1.6v1.6ZM107.7,64.3h-1.6v-1.5h1.6v1.5Z"/>
        <rect class="cls-2" x="92.7" y="113.7" width="1.6" height="1.6"/>
      </g>
    </g>
  </g>
</svg>