<?xml version="1.0" encoding="UTF-8"?>
<svg xmlns="http://www.w3.org/2000/svg" version="1.1" xmlns:xlink="http://www.w3.org/1999/xlink" viewBox="0 0 144 144">
  <defs>
    <style>
      .cls-1 {
        fill: url(#linear-gradient-2);
      }

      .cls-1, .cls-2, .cls-3, .cls-4, .cls-5, .cls-6, .cls-7 {
        mix-blend-mode: multiply;
      }

      .cls-8 {
        fill: #f5f6f6;
      }

      .cls-9 {
        fill: #a9afc4;
      }

      .cls-10 {
        fill: #de107b;
      }

      .cls-2 {
        fill: url(#linear-gradient-4);
      }

      .cls-11 {
        isolation: isolate;
      }

      .cls-12 {
        fill: #dee1ec;
      }

      .cls-3 {
        fill: url(#linear-gradient-5);
      }

      .cls-4 {
        fill: url(#linear-gradient-3);
      }

      .cls-13 {
        fill: #aaaaab;
      }

      .cls-5 {
        fill: url(#linear-gradient);
      }

      .cls-14 {
        fill: #5f6276;
      }

      .cls-6 {
        fill: url(#linear-gradient-6);
      }

      .cls-7 {
        fill: url(#linear-gradient-7);
      }
    </style>
    <linearGradient id="linear-gradient" x1="91.5" y1="75.9" x2="115" y2="75.9" gradientUnits="userSpaceOnUse">
      <stop offset="0" stop-color="#cbd0de"/>
      <stop offset="1" stop-color="#eff0f1"/>
    </linearGradient>
    <linearGradient id="linear-gradient-2" x1="57.4" y1="60" x2="57.4" y2="50.3" gradientUnits="userSpaceOnUse">
      <stop offset="0" stop-color="#a9afc4"/>
      <stop offset="1" stop-color="#d5d9e5"/>
    </linearGradient>
    <linearGradient id="linear-gradient-3" x1="72" y1="60" x2="72" y2="50.3" xlink:href="#linear-gradient-2"/>
    <linearGradient id="linear-gradient-4" x1="32.1" y1="103.3" x2="32.1" y2="93.6" xlink:href="#linear-gradient-2"/>
    <linearGradient id="linear-gradient-5" x1="46.7" y1="103.3" x2="46.7" y2="93.6" xlink:href="#linear-gradient-2"/>
    <linearGradient id="linear-gradient-6" x1="82.7" y1="103.3" x2="82.7" y2="93.6" xlink:href="#linear-gradient-2"/>
    <linearGradient id="linear-gradient-7" x1="97.3" y1="103.3" x2="97.3" y2="93.6" xlink:href="#linear-gradient-2"/>
  </defs>
  <!-- Generator: Adobe Illustrator 28.7.1, SVG Export Plug-In . SVG Version: 1.2.0 Build 142)  -->
  <g class="cls-11">
    <g id="Layer_1">
      <g>
        <path class="cls-12" d="M115.3,90.5c0,14-11.3,25.3-25.3,25.3s-25.3-11.3-25.3-25.3,12.5-26.1,26.8-25.3c13.3.8,23.8,11.8,23.8,25.3Z"/>
        <path class="cls-5" d="M115,86.5c-12.5,1.3-23.5-8.6-23.5-21.3,12,.7,21.7,9.7,23.5,21.3Z"/>
        <circle class="cls-9" cx="64.7" cy="46.7" r="25.3"/>
        <circle class="cls-8" cx="39.4" cy="90.5" r="25.3"/>
        <path class="cls-14" d="M76.2,112.6l.9-1.4c16.6,10.2,37.4-1.7,37.4-20.7s-11-24.5-24.5-24.5-8,1-11.4,2.8c-.5.3-1,.6-1.6.9-6.9,4.3-11.4,12-11.4,20.7,0,14.4-11.7,26.1-26.1,26.1s-26.1-11.7-26.1-26.1,11.7-26.1,26.1-26.1,9.3,1.3,13.3,3.6h0c7,4,15.9,4.3,23.4.3.5-.3,1-.6,1.6-.9,6.9-4.3,11.4-12,11.4-20.7,0-13.5-11-24.5-24.5-24.5s-24.5,11-24.5,24.5h-1.7c0-14.4,11.7-26.1,26.1-26.1s26.1,11.7,26.1,26.1-3,13.8-7.8,18.6c16.7-4.6,33.1,8,33.1,25.2s-22.2,33-39.9,22.1ZM39.4,66c-13.5,0-24.5,11-24.5,24.5s11,24.5,24.5,24.5,24.5-11,24.5-24.5,3-13.8,7.8-18.6c-6.7,1.9-14,.9-20.1-2.6h0c-3.7-2.2-7.9-3.3-12.1-3.3Z"/>
        <path class="cls-8" d="M52.6,59.6v-7.5c0-4.4,3.6-8,8-8h8.1c4.4,0,8,3.6,8,8v7.5h-24.1Z"/>
        <path class="cls-8" d="M64.7,44.1c-3.4,0-6.2-2.8-6.2-6.2v-1.4c0-3.4,2.8-6.2,6.2-6.2,3.4,0,6.2,2.8,6.2,6.2v1.4c0,3.4-2.8,6.2-6.2,6.2Z"/>
        <path class="cls-12" d="M64.7,44.1c-3.4,0-6.2-2.8-6.2-6.2v-1.4c0-3.4,2.8-6.2,6.2-6.2,3.4,0,6.2,2.8,6.2,6.2v1.4c0,3.4-2.8,6.2-6.2,6.2Z"/>
        <path class="cls-14" d="M77.6,60.5h-25.8v-8.3c0-4.9,4-8.9,8.9-8.9h8.1c4.9,0,8.9,4,8.9,8.9v8.3ZM53.5,58.8h22.5v-6.7c0-4-3.2-7.2-7.2-7.2h-8.1c-4,0-7.2,3.2-7.2,7.2v6.7Z"/>
        <path class="cls-14" d="M64.7,44.9c-3.9,0-7-3.1-7-7v-1.4c0-3.9,3.1-7,7-7s7,3.1,7,7v1.4c0,3.9-3.1,7-7,7ZM64.7,31.1c-2.9,0-5.3,2.4-5.3,5.3v1.4c0,2.9,2.4,5.3,5.3,5.3s5.3-2.4,5.3-5.3v-1.4c0-2.9-2.4-5.3-5.3-5.3Z"/>
        <path class="cls-1" d="M56.2,59.6v-7.2c.4,0,.8.3.9.8l1.3,6.5h-2.3Z"/>
        <path class="cls-4" d="M73.1,59.6v-7.2c-.4,0-.8.3-.9.8l-1.3,6.5h2.3Z"/>
        <path class="cls-9" d="M27.3,102.9v-7.5c0-4.4,3.6-8,8-8h8.1c4.4,0,8,3.6,8,8v7.5h-24.1Z"/>
        <path class="cls-8" d="M39.4,87.3c-3.4,0-6.2-2.8-6.2-6.2v-1.4c0-3.4,2.8-6.2,6.2-6.2,3.4,0,6.2,2.8,6.2,6.2v1.4c0,3.4-2.8,6.2-6.2,6.2Z"/>
        <path class="cls-12" d="M39.4,87.3c-3.4,0-6.2-2.8-6.2-6.2v-1.4c0-3.4,2.8-6.2,6.2-6.2,3.4,0,6.2,2.8,6.2,6.2v1.4c0,3.4-2.8,6.2-6.2,6.2Z"/>
        <path class="cls-14" d="M52.3,103.7h-25.8v-8.3c0-4.9,4-8.9,8.9-8.9h8.1c4.9,0,8.9,4,8.9,8.9v8.3ZM28.2,102.1h22.5v-6.7c0-4-3.2-7.2-7.2-7.2h-8.1c-4,0-7.2,3.2-7.2,7.2v6.7Z"/>
        <path class="cls-14" d="M39.4,88.2c-3.9,0-7-3.1-7-7v-1.4c0-3.9,3.1-7,7-7s7,3.1,7,7v1.4c0,3.9-3.1,7-7,7ZM39.4,74.4c-2.9,0-5.3,2.4-5.3,5.3v1.4c0,2.9,2.4,5.3,5.3,5.3s5.3-2.4,5.3-5.3v-1.4c0-2.9-2.4-5.3-5.3-5.3Z"/>
        <path class="cls-2" d="M30.9,102.9v-7.2c.4,0,.8.3.9.8l1.3,6.5h-2.3Z"/>
        <path class="cls-3" d="M47.8,102.9v-7.2c-.4,0-.8.3-.9.8l-1.3,6.5h2.3Z"/>
        <path class="cls-9" d="M77.9,102.9v-7.5c0-4.4,3.6-8,8-8h8.1c4.4,0,8,3.6,8,8v7.5h-24.1Z"/>
        <path class="cls-8" d="M90,87.3c-3.4,0-6.2-2.8-6.2-6.2v-1.4c0-3.4,2.8-6.2,6.2-6.2,3.4,0,6.2,2.8,6.2,6.2v1.4c0,3.4-2.8,6.2-6.2,6.2Z"/>
        <path class="cls-8" d="M90,87.3c-3.4,0-6.2-2.8-6.2-6.2v-1.4c0-3.4,2.8-6.2,6.2-6.2,3.4,0,6.2,2.8,6.2,6.2v1.4c0,3.4-2.8,6.2-6.2,6.2Z"/>
        <path class="cls-14" d="M102.9,103.7h-25.8v-8.3c0-4.9,4-8.9,8.9-8.9h8.1c4.9,0,8.9,4,8.9,8.9v8.3ZM78.8,102.1h22.5v-6.7c0-4-3.2-7.2-7.2-7.2h-8.1c-4,0-7.2,3.2-7.2,7.2v6.7Z"/>
        <path class="cls-14" d="M90,88.2c-3.9,0-7-3.1-7-7v-1.4c0-3.9,3.1-7,7-7s7,3.1,7,7v1.4c0,3.9-3.1,7-7,7ZM90,74.4c-2.9,0-5.3,2.4-5.3,5.3v1.4c0,2.9,2.4,5.3,5.3,5.3s5.3-2.4,5.3-5.3v-1.4c0-2.9-2.4-5.3-5.3-5.3Z"/>
        <path class="cls-6" d="M81.5,102.9v-7.2c.4,0,.8.3.9.8l1.3,6.5h-2.3Z"/>
        <path class="cls-7" d="M98.4,102.9v-7.2c-.4,0-.8.3-.9.8l-1.3,6.5h2.3Z"/>
        <circle class="cls-8" cx="112.9" cy="65.2" r="17"/>
        <path class="cls-14" d="M112.9,83c-9.8,0-17.8-8-17.8-17.8s8-17.8,17.8-17.8,17.8,8,17.8,17.8-8,17.8-17.8,17.8ZM112.9,49c-8.9,0-16.2,7.3-16.2,16.2s7.3,16.2,16.2,16.2,16.2-7.3,16.2-16.2-7.3-16.2-16.2-16.2Z"/>
        <path class="cls-13" d="M123.1,123.3h-1.7v-1.7h1.7v1.7ZM123.1,118.9h-1.7v-1.7h1.7v1.7ZM123.1,114.5h-1.7v-1.7h1.7v1.7ZM123.1,110h-1.7v-1.7h1.7v1.7ZM123.1,105.6h-1.7v-1.7h1.7v1.7ZM123.1,101.2h-1.7v-1.7h1.7v1.7ZM123.1,96.7h-1.7v-1.7h1.7v1.7ZM123.1,92.3h-1.7v-1.7h1.7v1.7ZM123.1,87.9h-1.7v-1.7h1.7v1.7Z"/>
        <path class="cls-13" d="M65.5,123.3h-1.7v-1.7h1.7v1.7ZM65.5,118.9h-1.7v-1.7h1.7v1.7ZM65.5,114.5h-1.7v-1.7h1.7v1.7ZM65.5,110h-1.7v-1.7h1.7v1.7Z"/>
        <path class="cls-13" d="M118.8,123.4h-1.7v-1.7h1.7v1.7ZM114.4,123.4h-1.7v-1.7h1.7v1.7ZM110,123.4h-1.7v-1.7h1.7v1.7ZM105.5,123.4h-1.7v-1.7h1.7v1.7ZM101.1,123.4h-1.7v-1.7h1.7v1.7ZM96.7,123.4h-1.7v-1.7h1.7v1.7ZM92.2,123.4h-1.7v-1.7h1.7v1.7ZM87.8,123.4h-1.7v-1.7h1.7v1.7ZM83.4,123.4h-1.7v-1.7h1.7v1.7ZM78.9,123.4h-1.7v-1.7h1.7v1.7ZM74.5,123.4h-1.7v-1.7h1.7v1.7ZM70.1,123.4h-1.7v-1.7h1.7v1.7Z"/>
        <g>
          <path class="cls-10" d="M116,62c0,9.5,0,9.4,0,9.4l-2.4,1.3c-.8.4-1.7.7-2.6.7h-3.8c-.7,0-1.3-.6-1.3-1.3s.6-1.3,1.3-1.3h-.7c-.7,0-1.3-.5-1.3-1.3,0-.7.6-1.3,1.3-1.3h-.5c-.7,0-1.3-.5-1.3-1.3,0-.7.6-1.3,1.3-1.3h.5c-.8,0-1.5-.7-1.5-1.5s.7-1.5,1.5-1.5h3.3c.3,0,.5-.3.4-.5l-.7-1.7c-1-2.5-.3-3.8,1.1-5l1.4,3.1c.5,1.1,1.3,2,2.4,2.5.6.3,1.2.7,1.7.9h0Z"/>
          <rect class="cls-10" x="117.6" y="62.1" width="4.3" height="9.3"/>
        </g>
      </g>
    </g>
  </g>
</svg>